<?xml version="1.0" standalone="no"?>
<!DOCTYPE svg PUBLIC "-//W3C//DTD SVG 20010904//EN"
 "http://www.w3.org/TR/2001/REC-SVG-20010904/DTD/svg10.dtd">
<svg version="1.0" xmlns="http://www.w3.org/2000/svg"
 width="3390.000000pt" height="3390.000000pt" viewBox="0 0 3390.000000 3390.000000"
 preserveAspectRatio="xMidYMid meet">

<g transform="translate(0.000000,3390.000000) scale(0.100000,-0.100000)"
fill="#000000" stroke="none">
<path d="M0 16950 l0 -16950 16950 0 16950 0 0 16950 0 16950 -16950 0 -16950
0 0 -16950z m17960 12555 c0 -78 -3 -95 -15 -95 -12 0 -15 17 -15 95 0 78 3
95 15 95 12 0 15 -17 15 -95z m330 -510 c0 -20 -5 -25 -25 -25 -16 0 -25 -6
-25 -15 0 -8 -7 -15 -15 -15 -8 0 -15 -7 -15 -15 0 -8 -7 -15 -15 -15 -8 0
-15 -4 -15 -10 0 -5 -7 -10 -15 -10 -8 0 -15 -7 -15 -15 0 -8 -4 -15 -10 -15
-5 0 -10 -7 -10 -15 0 -8 -7 -15 -15 -15 -8 0 -15 -7 -15 -15 0 -8 -7 -15 -15
-15 -10 0 -15 10 -15 30 0 20 5 30 15 30 8 0 15 7 15 15 0 8 5 15 11 15 14 0
39 25 39 39 0 6 7 11 15 11 8 0 15 7 15 15 0 8 7 15 15 15 8 0 15 5 15 10 0 6
7 10 15 10 8 0 15 7 15 15 0 9 9 15 25 15 20 0 25 -5 25 -25z m80 -135 c0 -16
-4 -30 -10 -30 -5 0 -10 -7 -10 -15 0 -10 -10 -15 -30 -15 -16 0 -30 -4 -30
-10 0 -5 -7 -10 -15 -10 -10 0 -15 -10 -15 -30 0 -16 -4 -30 -10 -30 -7 0 -10
-188 -10 -545 0 -357 3 -545 10 -545 6 0 10 -13 10 -30 0 -20 5 -30 15 -30 9
0 15 -9 15 -25 0 -16 6 -25 15 -25 8 0 15 -7 15 -15 0 -8 7 -15 15 -15 8 0 15
-7 15 -15 0 -8 5 -15 10 -15 6 0 10 -7 10 -15 0 -8 7 -15 15 -15 8 0 15 -4 15
-10 0 -5 7 -10 15 -10 8 0 15 -7 15 -15 0 -8 5 -15 10 -15 6 0 10 -7 10 -15 0
-8 7 -15 15 -15 8 0 15 -7 15 -15 0 -8 7 -15 15 -15 8 0 15 -4 15 -10 0 -5 7
-10 15 -10 8 0 15 -7 15 -15 0 -8 5 -15 10 -15 6 0 10 -7 10 -15 0 -8 7 -15
15 -15 8 0 15 -7 15 -15 0 -8 7 -15 15 -15 8 0 15 -4 15 -10 0 -5 7 -10 15
-10 8 0 15 -7 15 -15 0 -8 5 -15 10 -15 6 0 10 -7 10 -15 0 -8 7 -15 15 -15 8
0 15 -4 15 -10 0 -5 7 -10 15 -10 8 0 15 -7 15 -15 0 -8 7 -15 15 -15 8 0 15
-7 15 -15 0 -8 5 -15 10 -15 6 0 10 -7 10 -15 0 -8 7 -15 15 -15 8 0 15 -4 15
-10 0 -5 7 -10 15 -10 8 0 15 -7 15 -15 0 -8 7 -15 15 -15 8 0 15 -7 15 -15 0
-8 5 -15 10 -15 6 0 10 -7 10 -15 0 -8 7 -15 15 -15 8 0 15 -4 15 -10 0 -5 7
-10 15 -10 8 0 15 -7 15 -15 0 -8 5 -15 10 -15 6 0 10 -13 10 -30 0 -20 5 -30
15 -30 13 0 15 -22 15 -135 l0 -135 -25 0 c-16 0 -25 6 -25 15 0 8 5 15 10 15
6 0 10 28 10 65 0 37 -4 65 -10 65 -5 0 -10 20 -10 45 0 33 -4 45 -15 45 -9 0
-15 9 -15 25 0 16 -6 25 -15 25 -9 0 -15 10 -15 26 0 26 -20 54 -39 54 -6 0
-11 7 -11 15 0 8 -7 15 -15 15 -8 0 -15 7 -15 15 0 8 -7 15 -15 15 -8 0 -15 5
-15 11 0 14 -25 39 -39 39 -6 0 -11 6 -11 14 0 7 -9 16 -21 19 -12 3 -18 10
-14 17 3 6 3 10 -2 9 -24 -4 -43 3 -43 16 0 8 -7 15 -15 15 -8 0 -15 5 -15 10
0 6 -7 10 -15 10 -8 0 -15 7 -15 15 0 8 -7 15 -15 15 -8 0 -15 5 -15 11 0 14
-25 39 -39 39 -6 0 -11 7 -11 15 0 8 -7 15 -15 15 -8 0 -15 7 -15 15 0 8 -7
15 -15 15 -8 0 -15 5 -15 11 0 13 -25 39 -38 39 -5 0 -12 14 -15 30 -4 18 -13
30 -22 30 -9 0 -18 7 -21 15 -4 8 -12 15 -20 15 -8 0 -14 5 -14 10 0 6 -7 10
-15 10 -8 0 -15 7 -15 15 0 8 -6 15 -14 15 -7 0 -17 10 -21 23 -4 12 -8 25
-10 30 -1 4 -3 12 -4 17 0 6 -8 10 -16 10 -10 0 -15 10 -15 28 0 15 -7 36 -15
46 -19 25 -19 36 0 36 13 0 15 69 15 565 0 395 3 565 11 565 14 0 39 25 39 39
0 6 7 11 15 11 8 0 15 7 15 15 0 8 7 15 15 15 8 0 15 7 15 15 0 9 9 15 25 15
21 0 25 -5 25 -30z m-330 -1290 c0 -20 5 -30 15 -30 8 0 15 -4 15 -10 0 -5 7
-10 15 -10 8 0 15 -7 15 -15 0 -8 7 -15 15 -15 8 0 15 -7 15 -15 0 -8 5 -15
10 -15 6 0 10 -7 10 -15 0 -8 7 -15 15 -15 8 0 15 -4 15 -10 0 -5 7 -10 15
-10 8 0 15 -7 15 -15 0 -8 7 -15 15 -15 8 0 15 -7 15 -15 0 -8 5 -15 10 -15 6
0 10 -7 10 -15 0 -8 7 -15 15 -15 8 0 15 -4 15 -10 0 -5 7 -10 15 -10 8 0 15
-7 15 -15 0 -8 7 -15 15 -15 8 0 15 -7 15 -15 0 -8 5 -15 10 -15 6 0 10 -7 10
-15 0 -8 7 -15 15 -15 8 0 15 -4 15 -10 0 -5 7 -10 15 -10 8 0 15 -7 15 -15 0
-8 5 -15 10 -15 6 0 10 -7 10 -15 0 -8 7 -15 15 -15 8 0 15 -4 15 -10 0 -5 7
-10 15 -10 8 0 15 -7 15 -15 0 -8 7 -15 15 -15 8 0 15 -7 15 -15 0 -8 5 -15
10 -15 6 0 10 -7 10 -15 0 -8 7 -15 15 -15 8 0 15 -4 15 -10 0 -5 7 -10 15
-10 8 0 15 -7 15 -15 0 -8 7 -15 15 -15 8 0 15 -7 15 -15 0 -8 5 -15 10 -15 6
0 10 -7 10 -15 0 -8 7 -15 15 -15 8 0 15 -4 15 -10 0 -5 7 -10 15 -10 8 0 15
-7 15 -15 0 -8 7 -15 15 -15 13 0 15 -99 15 -835 0 -550 3 -835 10 -835 6 0
10 -13 10 -30 0 -20 5 -30 15 -30 8 0 15 -4 15 -10 0 -5 7 -10 15 -10 8 0 15
-7 15 -15 0 -8 7 -15 15 -15 8 0 15 -7 15 -15 0 -8 5 -15 10 -15 6 0 10 -7 10
-15 0 -8 7 -15 15 -15 8 0 15 -4 15 -10 0 -5 7 -10 15 -10 8 0 15 -7 15 -15 0
-8 5 -15 10 -15 6 0 10 -7 10 -15 0 -8 7 -15 15 -15 8 0 15 -4 15 -10 0 -5 7
-10 15 -10 8 0 15 -7 15 -15 0 -8 7 -15 15 -15 8 0 15 -7 15 -15 0 -8 5 -15
10 -15 6 0 10 -7 10 -15 0 -8 7 -15 15 -15 8 0 15 -4 15 -10 0 -5 7 -10 15
-10 8 0 15 -7 15 -15 0 -8 7 -15 15 -15 8 0 15 -7 15 -15 0 -8 5 -15 10 -15 6
0 10 -7 10 -15 0 -8 7 -15 15 -15 8 0 15 -4 15 -10 0 -5 7 -10 15 -10 8 0 15
-7 15 -15 0 -8 7 -15 15 -15 11 0 15 -11 15 -40 0 -22 4 -40 10 -40 6 0 9
-369 9 -1040 0 -655 -3 -1040 -9 -1040 -6 0 -10 -7 -10 -15 0 -8 -7 -15 -15
-15 -8 0 -15 -7 -15 -15 0 -8 -7 -15 -15 -15 -8 0 -15 -7 -15 -15 0 -8 -5 -15
-11 -15 -14 0 -39 -25 -39 -39 0 -6 -7 -11 -15 -11 -8 0 -15 -7 -15 -15 0 -8
-7 -15 -15 -15 -8 0 -15 -7 -15 -15 0 -8 -5 -15 -11 -15 -14 0 -39 -25 -39
-39 0 -6 -7 -11 -15 -11 -8 0 -15 -7 -15 -15 0 -8 -7 -15 -15 -15 -8 0 -15 -7
-15 -15 0 -8 -5 -15 -11 -15 -14 0 -39 -25 -39 -39 0 -6 -7 -11 -15 -11 -8 0
-15 -7 -15 -15 0 -8 -7 -15 -15 -15 -13 0 -15 -44 -15 -340 0 -296 2 -340 15
-340 11 0 15 -11 15 -40 0 -29 4 -40 15 -40 12 0 15 -13 15 -55 0 -42 -3 -55
-15 -55 -8 0 -15 -7 -15 -15 0 -11 -11 -15 -40 -15 -29 0 -40 4 -40 15 0 8 -5
15 -11 15 -17 0 -49 40 -49 62 0 10 7 18 15 18 8 0 15 7 15 15 0 8 7 15 15 15
13 0 21 32 16 63 -1 4 6 10 14 13 13 5 15 54 15 360 0 229 4 354 10 354 6 0
10 7 10 15 0 10 10 15 30 15 25 0 30 4 30 25 0 14 5 25 10 25 6 0 10 7 10 15
0 8 7 15 15 15 8 0 15 7 15 15 0 8 7 15 15 15 8 0 15 5 15 10 0 6 7 10 15 10
8 0 15 7 15 15 0 8 5 15 10 15 6 0 10 7 10 15 0 8 7 15 15 15 8 0 15 7 15 15
0 8 7 15 15 15 8 0 15 5 15 10 0 6 7 10 15 10 8 0 15 7 15 15 0 8 5 15 10 15
6 0 10 7 10 15 0 8 7 15 15 15 8 0 15 7 15 15 0 8 7 15 15 15 13 0 15 122 15
1040 0 918 -2 1040 -15 1040 -9 0 -15 9 -15 25 0 16 -6 25 -15 25 -8 0 -15 7
-15 15 0 8 -4 15 -10 15 -5 0 -10 7 -10 15 0 8 -7 15 -15 15 -8 0 -15 5 -15
10 0 6 -7 10 -15 10 -8 0 -15 7 -15 15 0 8 -7 15 -15 15 -8 0 -15 7 -15 15 0
8 -4 15 -10 15 -5 0 -10 7 -10 15 0 8 -7 15 -15 15 -8 0 -15 5 -15 10 0 6 -7
10 -15 10 -8 0 -15 7 -15 15 0 8 -7 15 -15 15 -8 0 -15 7 -15 15 0 8 -4 15
-10 15 -5 0 -10 7 -10 15 0 8 -7 15 -15 15 -8 0 -15 5 -15 10 0 6 -7 10 -15
10 -8 0 -15 7 -15 15 0 8 -4 15 -10 15 -5 0 -10 7 -10 15 0 8 -7 15 -15 15 -8
0 -15 5 -15 10 0 6 -7 10 -15 10 -8 0 -15 7 -15 15 0 8 -7 15 -15 15 -8 0 -15
7 -15 15 0 8 -4 15 -10 15 -5 0 -10 11 -10 25 0 16 -6 25 -15 25 -13 0 -15 97
-15 810 0 713 -2 810 -15 810 -9 0 -15 9 -15 25 0 16 -6 25 -15 25 -10 0 -15
10 -15 30 0 17 -4 30 -10 30 -5 0 -10 7 -10 15 0 8 -7 15 -15 15 -8 0 -15 5
-15 10 0 6 -7 10 -15 10 -8 0 -15 8 -15 18 0 10 -11 25 -25 32 -14 7 -25 19
-25 27 0 7 -7 13 -15 13 -8 0 -15 5 -15 10 0 6 -7 10 -15 10 -8 0 -15 7 -15
15 0 8 -7 15 -15 15 -8 0 -15 7 -15 15 0 8 -4 15 -10 15 -5 0 -10 7 -10 15 0
8 -7 15 -15 15 -8 0 -15 5 -15 10 0 6 -7 10 -15 10 -8 0 -15 7 -15 15 0 8 -4
15 -10 15 -5 0 -10 7 -10 15 0 8 -7 15 -15 15 -8 0 -15 5 -15 10 0 6 -7 10
-15 10 -8 0 -15 7 -15 15 0 8 -7 15 -15 15 -8 0 -15 7 -15 15 0 8 -4 15 -10
15 -5 0 -10 7 -10 15 0 8 -7 15 -15 15 -8 0 -15 5 -15 10 0 6 -7 10 -15 10 -8
0 -15 7 -15 15 0 8 -7 15 -15 15 -8 0 -15 7 -15 15 0 8 -4 15 -10 15 -5 0 -10
7 -10 15 0 8 -7 15 -15 15 -8 0 -15 5 -15 10 0 6 -7 10 -15 10 -8 0 -15 7 -15
15 0 8 -7 15 -15 15 -8 0 -15 7 -15 15 0 8 -4 15 -10 15 -5 0 -10 7 -10 15 0
8 -7 15 -15 15 -9 0 -15 9 -15 25 0 16 6 25 15 25 8 0 15 7 15 15 0 8 5 15 10
15 6 0 10 -13 10 -30z m506 -785 c12 -12 15 -57 14 -267 -4 -1037 0 -1388 15
-1388 8 0 15 -4 15 -10 0 -5 7 -10 15 -10 8 0 15 -7 15 -15 0 -8 7 -15 15 -15
8 0 15 -7 15 -15 0 -8 5 -15 10 -15 6 0 10 -7 10 -15 0 -8 7 -15 15 -15 8 0
15 -4 15 -10 0 -5 7 -10 15 -10 8 0 15 -7 15 -15 0 -8 7 -15 15 -15 8 0 15 -5
15 -11 0 -14 25 -39 39 -39 6 0 11 -7 11 -15 0 -8 7 -15 15 -15 8 0 15 -7 15
-15 0 -8 7 -15 15 -15 8 0 15 -5 15 -11 0 -14 25 -39 39 -39 6 0 11 -7 11 -15
0 -8 7 -15 15 -15 8 0 15 -7 15 -15 0 -8 5 -15 10 -15 6 0 10 -7 10 -15 0 -8
7 -15 15 -15 8 0 15 -4 15 -10 0 -5 7 -10 15 -10 8 0 15 -7 15 -15 0 -8 7 -15
15 -15 8 0 15 -7 15 -15 0 -8 5 -15 10 -15 6 0 10 -7 10 -15 0 -8 7 -15 15
-15 13 0 15 -44 15 -340 0 -296 2 -340 15 -340 10 0 15 -10 15 -30 0 -20 5
-30 15 -30 9 0 15 -9 15 -25 0 -14 5 -25 10 -25 6 0 10 -25 10 -55 0 -30 -4
-55 -10 -55 -5 0 -10 -7 -10 -15 0 -10 -10 -15 -30 -15 -16 0 -30 -4 -30 -10
0 -5 -7 -10 -15 -10 -8 0 -15 5 -15 10 0 6 -11 10 -25 10 -16 0 -25 6 -25 15
0 8 -7 15 -15 15 -10 0 -15 10 -15 29 0 16 -6 32 -12 35 -10 5 -10 7 0 12 6 3
12 19 12 35 0 19 5 29 15 29 8 0 15 5 15 10 0 6 7 10 15 10 13 0 15 48 15 370
0 322 -2 370 -15 370 -8 0 -15 7 -15 15 0 8 -7 15 -15 15 -8 0 -15 7 -15 15 0
8 -7 15 -15 15 -8 0 -15 5 -15 11 0 13 -21 33 -40 37 -8 2 -20 12 -27 22 -31
44 -82 90 -100 90 -13 0 -24 12 -33 36 -8 20 -27 45 -42 56 -15 10 -28 26 -28
34 0 8 -7 14 -15 14 -8 0 -15 5 -15 11 0 14 -25 39 -39 39 -6 0 -11 7 -11 15
0 8 -7 15 -15 15 -8 0 -15 7 -15 15 0 8 -7 15 -15 15 -8 0 -15 5 -15 11 0 14
-25 39 -39 39 -16 0 -15 1053 0 1082 8 15 8 19 0 14 -8 -5 -11 64 -11 243 0
216 -2 251 -15 251 -8 0 -15 7 -15 15 0 13 -44 15 -340 15 l-340 0 0 25 0 25
366 0 c309 0 368 -2 380 -15z m454 -970 c0 -602 2 -685 15 -685 8 0 15 -4 15
-10 0 -5 7 -10 15 -10 8 0 15 -7 15 -15 0 -8 5 -15 10 -15 6 0 10 -7 10 -15 0
-8 7 -15 15 -15 8 0 15 -7 15 -15 0 -8 7 -15 15 -15 8 0 15 -4 15 -10 0 -5 7
-10 15 -10 8 0 15 -7 15 -15 0 -8 5 -15 10 -15 6 0 10 -7 10 -15 0 -8 7 -15
15 -15 8 0 15 -4 15 -10 0 -5 7 -10 15 -10 8 0 15 -7 15 -15 0 -8 7 -15 15
-15 8 0 15 -7 15 -15 0 -8 5 -15 10 -15 6 0 10 -7 10 -15 0 -8 7 -15 15 -15 8
0 15 -4 15 -10 0 -5 7 -10 15 -10 8 0 15 -7 15 -15 0 -8 7 -15 15 -15 8 0 15
-7 15 -15 0 -8 5 -15 10 -15 6 0 10 -7 10 -15 0 -8 7 -15 15 -15 8 0 15 -4 15
-10 0 -5 7 -10 15 -10 8 0 15 -7 15 -15 0 -8 7 -15 15 -15 10 0 15 -10 15 -30
0 -16 5 -30 10 -30 7 0 10 -230 10 -670 0 -589 2 -670 15 -670 8 0 15 -7 15
-15 0 -9 9 -15 25 -15 14 0 25 -4 25 -10 0 -5 7 -10 15 -10 8 0 15 -7 15 -15
0 -8 7 -15 15 -15 12 0 15 -16 15 -80 0 -64 -3 -80 -15 -80 -8 0 -15 -7 -15
-15 0 -8 -7 -15 -15 -15 -8 0 -15 -7 -15 -15 0 -8 -4 -15 -10 -15 -5 0 -10 -7
-10 -15 0 -12 -15 -15 -78 -15 -65 0 -80 3 -95 20 -9 11 -17 25 -17 30 0 6 -7
10 -15 10 -9 0 -15 9 -15 25 0 16 -6 25 -15 25 -12 0 -15 13 -15 55 0 42 3 55
15 55 8 0 15 7 15 15 0 8 7 15 15 15 8 0 15 5 15 11 0 14 25 39 39 39 6 0 11
7 11 15 0 8 7 15 15 15 13 0 21 25 16 53 0 4 6 7 14 7 13 0 15 75 15 615 0
540 -2 615 -15 615 -9 0 -15 9 -15 25 0 16 -6 25 -15 25 -10 0 -15 10 -15 30
0 20 -5 30 -15 30 -8 0 -15 5 -15 11 0 14 -25 39 -39 39 -6 0 -11 7 -11 15 0
8 -7 15 -15 15 -8 0 -15 7 -15 15 0 8 -7 15 -15 15 -8 0 -15 5 -15 11 0 14
-25 39 -39 39 -6 0 -11 7 -11 15 0 8 -7 15 -15 15 -8 0 -15 7 -15 15 0 8 -7
15 -15 15 -8 0 -15 5 -15 11 0 14 -25 39 -39 39 -6 0 -11 7 -11 15 0 8 -7 15
-15 15 -8 0 -15 7 -15 15 0 8 -5 15 -11 15 -14 0 -39 25 -39 39 0 6 -7 11 -15
11 -8 0 -15 7 -15 15 0 8 -7 15 -15 15 -8 0 -15 7 -15 15 0 8 -7 15 -15 15 -9
0 -15 9 -15 25 0 14 -4 25 -10 25 -6 0 -10 51 -10 134 0 79 4 137 10 141 6 4
10 193 10 536 0 464 2 529 15 529 13 0 15 -83 15 -685z m740 -10 c0 -10 10
-15 30 -15 20 0 30 -5 30 -15 0 -11 11 -15 40 -15 22 0 40 -4 40 -10 0 -5 7
-10 15 -10 8 0 15 -7 15 -15 0 -9 -9 -15 -25 -15 -14 0 -28 -7 -31 -15 -4 -8
-17 -15 -30 -15 -15 0 -24 -6 -24 -15 0 -8 -7 -15 -15 -15 -8 0 -15 -4 -15
-10 0 -5 -7 -10 -15 -10 -8 0 -15 -7 -15 -15 0 -9 -9 -15 -25 -15 -16 0 -25 6
-25 15 0 10 -10 15 -30 15 -16 0 -30 5 -30 10 0 6 -7 10 -15 10 -12 0 -15 14
-15 70 0 53 3 70 14 70 8 0 16 7 20 15 4 11 20 15 56 15 38 0 50 -4 50 -15z
m-2380 -275 c0 -153 2 -180 15 -180 8 0 15 -4 15 -10 0 -6 88 -10 245 -10 157
0 245 4 245 10 0 6 7 10 15 10 8 0 15 7 15 15 0 9 9 15 25 15 16 0 25 6 25 15
0 11 11 15 40 15 29 0 40 -4 40 -15 0 -8 5 -15 10 -15 6 0 19 -9 30 -20 25
-25 29 -120 5 -120 -8 0 -15 -4 -15 -10 0 -6 -29 -10 -66 -10 -64 0 -94 13
-94 39 0 6 -13 11 -30 11 -20 0 -30 5 -30 15 0 13 -28 15 -190 15 -162 0 -190
-2 -190 -15 0 -12 -13 -15 -55 -15 -42 0 -55 3 -55 15 0 8 -7 15 -15 15 -8 0
-15 7 -15 15 0 8 -7 15 -15 15 -13 0 -15 24 -15 159 0 132 3 160 15 165 8 3
15 17 15 31 0 16 6 25 15 25 13 0 15 -27 15 -180z m-190 -1040 c0 -758 -2
-860 -15 -860 -10 0 -15 -10 -15 -30 l0 -30 -220 0 c-189 0 -220 2 -220 15 0
9 -9 15 -25 15 -16 0 -25 6 -25 15 0 8 -7 15 -15 15 -8 0 -15 7 -15 15 0 8 -5
15 -11 15 -14 0 -39 25 -39 39 0 6 -7 11 -15 11 -8 0 -15 7 -15 15 0 8 -7 15
-15 15 -8 0 -15 7 -15 15 0 8 -5 15 -11 15 -14 0 -39 25 -39 39 0 6 -7 11 -15
11 -8 0 -15 7 -15 15 0 8 -7 15 -15 15 -8 0 -15 5 -15 10 0 6 -7 10 -15 10 -8
0 -15 7 -15 15 0 8 -4 15 -10 15 -5 0 -10 14 -10 30 0 20 -5 30 -15 30 -12 0
-15 17 -15 95 0 78 3 95 15 95 12 0 15 -13 15 -55 0 -30 5 -55 10 -55 6 0 10
-18 10 -40 0 -29 4 -40 15 -40 8 0 15 -7 15 -15 0 -8 7 -15 15 -15 8 0 15 -7
15 -15 0 -8 7 -15 15 -15 8 0 15 -5 15 -11 0 -14 25 -39 39 -39 6 0 11 -7 11
-15 0 -8 7 -15 15 -15 8 0 15 -7 15 -15 0 -8 5 -15 11 -15 14 0 39 -25 39 -39
0 -6 7 -11 15 -11 8 0 15 -7 15 -15 0 -8 7 -15 15 -15 8 0 15 -5 15 -11 0 -19
28 -39 54 -39 16 0 26 -6 26 -15 0 -11 11 -15 40 -15 29 0 40 -4 40 -15 0 -12
17 -15 95 -15 78 0 95 3 95 15 0 12 13 15 55 15 l55 0 0 795 c0 523 -3 795
-10 795 -5 0 -10 11 -10 25 0 14 5 25 10 25 6 0 10 14 10 30 0 20 5 30 15 30
8 0 15 5 15 10 0 6 7 10 15 10 13 0 15 -102 15 -860z m2680 685 c0 -10 10 -15
30 -15 30 0 30 -1 30 -55 0 -42 -3 -55 -15 -55 -8 0 -15 -7 -15 -15 0 -11 -11
-15 -40 -15 -29 0 -40 4 -40 15 0 8 -7 15 -15 15 -12 0 -15 13 -15 55 0 42 3
55 15 55 8 0 15 7 15 15 0 9 9 15 25 15 16 0 25 -6 25 -15z m250 -15 c0 -16 5
-30 10 -30 6 0 10 -18 10 -40 0 -29 4 -40 15 -40 8 0 15 -7 15 -15 0 -8 -7
-15 -15 -15 -13 0 -15 -78 -15 -640 0 -562 2 -640 15 -640 8 0 15 -7 15 -15 0
-13 29 -15 205 -15 l205 0 0 -25 0 -25 -230 0 c-147 0 -230 4 -230 10 0 6 -7
10 -15 10 -13 0 -15 91 -15 755 0 664 2 755 15 755 10 0 15 -10 15 -30z m-220
-395 c0 -8 7 -15 15 -15 12 0 15 -13 15 -55 0 -54 0 -55 -30 -55 -20 0 -30 -5
-30 -15 0 -9 -9 -15 -25 -15 -16 0 -25 6 -25 15 0 8 -7 15 -15 15 -12 0 -15
13 -15 55 0 42 3 55 15 55 8 0 15 7 15 15 0 11 11 15 40 15 29 0 40 -4 40 -15z
m-1370 -110 c0 -8 7 -15 15 -15 8 0 15 -7 15 -15 0 -8 5 -15 10 -15 6 0 10
-23 10 -51 0 -49 -15 -79 -39 -79 -6 0 -11 -13 -11 -30 0 -20 -5 -30 -15 -30
-13 0 -15 -57 -15 -450 0 -393 -2 -450 -15 -450 -8 0 -15 -7 -15 -15 0 -8 -4
-15 -10 -15 -5 0 -10 -7 -10 -15 0 -8 -7 -15 -15 -15 -8 0 -15 -4 -15 -10 0
-5 -7 -10 -15 -10 -8 0 -15 -7 -15 -15 0 -8 -4 -15 -10 -15 -5 0 -10 -7 -10
-15 0 -8 -7 -15 -15 -15 -9 0 -15 -9 -15 -25 0 -16 -6 -25 -15 -25 -8 0 -15
-7 -15 -15 0 -8 -7 -15 -15 -15 -8 0 -15 -7 -15 -15 0 -8 -4 -15 -10 -15 -5 0
-10 -7 -10 -15 0 -8 -7 -15 -15 -15 -8 0 -15 -4 -15 -10 0 -5 -7 -10 -15 -10
-8 0 -15 -7 -15 -15 0 -8 -7 -15 -15 -15 -8 0 -15 -5 -15 -11 0 -19 -28 -39
-54 -39 -16 0 -26 -6 -26 -15 0 -8 -7 -15 -15 -15 -8 0 -15 -7 -15 -15 0 -8
-4 -15 -10 -15 -5 0 -10 -7 -10 -15 0 -8 -7 -15 -15 -15 -8 0 -15 -4 -15 -10
0 -5 -7 -10 -15 -10 -8 0 -15 -7 -15 -15 0 -8 -7 -15 -15 -15 -8 0 -15 -7 -15
-15 0 -8 -4 -15 -10 -15 -6 0 -10 -79 -10 -216 0 -173 3 -218 14 -230 8 -8 19
-14 25 -14 6 0 11 -7 11 -15 0 -8 7 -15 15 -15 11 0 15 -11 15 -40 0 -29 -4
-40 -15 -40 -8 0 -15 -7 -15 -15 0 -8 -7 -15 -15 -15 -8 0 -15 -7 -15 -15 0
-12 -14 -15 -65 -15 l-65 0 0 30 c0 20 -5 30 -15 30 -11 0 -15 11 -15 40 0 29
4 40 15 40 8 0 15 5 15 11 0 14 25 39 39 39 8 0 11 66 11 205 0 176 2 205 15
205 10 0 15 10 15 30 0 25 4 30 25 30 20 0 25 5 25 25 0 16 6 25 15 25 8 0 15
7 15 15 0 8 7 15 15 15 8 0 15 7 15 15 0 8 7 15 15 15 8 0 15 5 15 11 0 14 25
39 39 39 6 0 11 7 11 15 0 8 7 15 15 15 8 0 15 7 15 15 0 8 5 15 11 15 14 0
39 25 39 39 0 6 7 11 15 11 8 0 15 7 15 15 0 8 7 15 15 15 8 0 15 7 15 15 0 8
5 15 11 15 14 0 39 25 39 39 0 6 7 11 15 11 8 0 15 7 15 15 0 8 7 15 15 15 8
0 15 7 15 15 0 8 5 15 11 15 14 0 39 25 39 39 0 6 7 11 15 11 8 0 15 7 15 15
0 8 7 15 15 15 13 0 15 60 15 480 0 420 -2 480 -15 480 -8 0 -15 5 -15 10 0 6
-7 10 -15 10 -12 0 -15 13 -15 55 0 42 3 55 15 55 8 0 15 7 15 15 0 8 7 15 15
15 8 0 15 7 15 15 0 11 11 15 40 15 29 0 40 -4 40 -15z m-1620 -140 c0 -10 10
-15 30 -15 17 0 30 -4 30 -10 0 -5 7 -10 15 -10 12 0 15 -13 15 -55 0 -42 -3
-55 -15 -55 -8 0 -15 -7 -15 -15 0 -8 -7 -15 -15 -15 -8 0 -15 -7 -15 -15 0
-12 -13 -15 -55 -15 -42 0 -55 3 -55 15 0 8 -7 15 -15 15 -8 0 -15 7 -15 15 0
9 -9 15 -25 15 -14 0 -25 5 -25 10 0 6 -38 10 -95 10 l-95 0 0 30 0 30 110 0
c91 0 110 3 110 15 0 9 9 15 25 15 14 0 25 5 25 10 0 6 7 10 15 10 8 0 15 7
15 15 0 9 9 15 25 15 16 0 25 -6 25 -15z m2990 -80 c0 -8 7 -15 15 -15 11 0
15 -11 15 -40 0 -29 -4 -40 -15 -40 -8 0 -15 -7 -15 -15 0 -12 -13 -15 -55
-15 l-55 0 0 70 0 70 55 0 c42 0 55 -3 55 -15z m-1640 -270 c0 -8 5 -15 10
-15 6 0 10 -18 10 -40 0 -22 -4 -40 -10 -40 -5 0 -10 -7 -10 -15 0 -12 -13
-15 -55 -15 -42 0 -55 3 -55 15 0 8 -7 15 -15 15 -9 0 -15 9 -15 25 0 16 6 25
15 25 10 0 15 10 15 30 0 30 1 30 55 30 42 0 55 -3 55 -15z m-660 -170 c0 -8
7 -15 15 -15 12 0 15 -14 15 -65 0 -51 -3 -65 -15 -65 -8 0 -15 -7 -15 -15 0
-8 -7 -15 -15 -15 -9 0 -15 -9 -15 -25 0 -16 -6 -25 -15 -25 -13 0 -15 -101
-15 -850 0 -749 2 -850 15 -850 8 0 15 -7 15 -15 0 -10 10 -15 30 -15 20 0 30
-5 30 -15 0 -9 9 -15 25 -15 14 0 25 -4 25 -10 0 -5 14 -10 30 -10 20 0 30 -5
30 -15 0 -8 5 -15 10 -15 6 0 10 -7 10 -15 0 -8 7 -15 15 -15 13 0 15 -37 15
-275 0 -189 3 -275 11 -275 21 0 39 -29 39 -65 0 -36 -18 -65 -39 -65 -6 0
-11 -7 -11 -15 0 -9 -9 -15 -25 -15 -16 0 -25 6 -25 15 0 8 -7 15 -15 15 -8 0
-15 5 -15 10 0 6 -7 10 -15 10 -10 0 -15 10 -15 30 0 20 5 30 15 30 8 0 15 7
15 15 0 8 7 15 15 15 12 0 15 13 15 55 0 30 5 55 10 55 6 0 10 11 10 25 0 14
-4 25 -10 25 -6 0 -10 30 -10 70 0 40 4 70 10 70 6 0 10 38 10 95 0 57 -4 95
-10 95 -5 0 -10 11 -10 25 0 16 -6 25 -15 25 -8 0 -15 7 -15 15 0 8 -7 15 -15
15 -8 0 -15 7 -15 15 0 9 -9 15 -25 15 -16 0 -25 6 -25 15 0 10 -10 15 -30 15
-16 0 -30 5 -30 10 0 6 -7 10 -15 10 -8 0 -15 7 -15 15 0 8 -4 15 -10 15 -5 0
-10 7 -10 15 0 8 -7 15 -15 15 -12 0 -15 14 -15 64 0 36 5 68 10 71 6 4 8 11
5 16 -4 5 -1 9 4 9 15 0 15 1383 0 1411 -12 23 -16 53 -18 127 -1 39 -5 52
-16 52 -8 0 -15 7 -15 15 0 8 -7 15 -15 15 -12 0 -15 14 -15 65 0 51 3 65 15
65 8 0 15 7 15 15 0 12 14 15 70 15 56 0 70 -3 70 -15z m-1430 -410 c0 -247 2
-285 15 -285 8 0 15 -7 15 -15 0 -8 7 -15 15 -15 8 0 15 -7 15 -15 0 -8 5 -15
11 -15 14 0 39 -25 39 -39 0 -6 7 -11 15 -11 8 0 15 -7 15 -15 0 -8 7 -15 15
-15 8 0 15 -4 15 -10 0 -5 7 -10 15 -10 8 0 15 -7 15 -15 0 -8 5 -15 10 -15 6
0 10 -7 10 -15 0 -8 7 -15 15 -15 8 0 15 -7 15 -15 0 -8 7 -15 15 -15 8 0 15
-4 15 -10 0 -5 7 -10 15 -10 8 0 15 -7 15 -15 0 -8 5 -15 10 -15 6 0 10 -7 10
-15 0 -8 7 -15 15 -15 8 0 15 -7 15 -15 0 -8 7 -15 15 -15 8 0 15 -4 15 -10 0
-5 7 -10 15 -10 8 0 15 -7 15 -15 0 -8 5 -15 10 -15 6 0 10 -7 10 -15 0 -8 7
-15 15 -15 8 0 15 -7 15 -15 0 -8 5 -15 11 -15 19 0 39 -28 39 -54 0 -16 6
-26 15 -26 13 0 15 -22 15 -135 0 -113 -2 -135 -15 -135 -8 0 -15 -7 -15 -15
0 -8 5 -15 10 -15 6 0 10 -18 10 -40 0 -22 -4 -40 -10 -40 -6 0 -10 -98 -10
-275 0 -238 2 -275 15 -275 13 0 15 -32 15 -230 0 -198 2 -230 15 -230 12 0
15 -13 15 -55 0 -42 -3 -55 -15 -55 -8 0 -15 -7 -15 -15 0 -11 -11 -15 -40
-15 -29 0 -40 4 -40 15 0 8 -7 15 -15 15 -12 0 -15 13 -15 55 0 42 3 55 15 55
8 0 15 5 15 10 0 6 7 10 15 10 13 0 15 83 15 685 0 602 -2 685 -15 685 -10 0
-15 10 -15 30 0 17 -5 30 -11 30 -14 0 -39 25 -39 39 0 6 -7 11 -15 11 -8 0
-15 7 -15 15 0 8 -7 15 -15 15 -8 0 -15 7 -15 15 0 8 -5 15 -11 15 -14 0 -39
25 -39 39 0 6 -7 11 -15 11 -8 0 -15 7 -15 15 0 8 -7 15 -15 15 -8 0 -15 7
-15 15 0 8 -5 15 -11 15 -14 0 -39 25 -39 39 0 6 -7 11 -15 11 -8 0 -15 7 -15
15 0 8 -7 15 -15 15 -8 0 -15 7 -15 15 0 8 -5 15 -11 15 -14 0 -39 25 -39 39
0 6 -7 11 -15 11 -8 0 -15 7 -15 15 0 8 -7 15 -15 15 -8 0 -15 5 -15 10 0 6
-7 10 -15 10 -8 0 -15 7 -15 15 0 8 -4 15 -10 15 -5 0 -10 14 -10 30 0 20 -5
30 -15 30 -13 0 -15 36 -15 260 0 224 2 260 15 260 8 0 15 5 15 10 0 6 5 10
10 10 6 0 10 -102 10 -285z m2090 220 c0 -8 5 -15 10 -15 6 0 10 -18 10 -40 0
-22 -4 -40 -10 -40 -5 0 -10 -7 -10 -15 0 -8 -7 -15 -15 -15 -8 0 -15 -4 -15
-10 0 -5 -12 -10 -26 -10 -26 0 -54 20 -54 39 0 6 -7 11 -15 11 -10 0 -15 10
-15 30 0 17 5 30 11 30 14 0 39 25 39 39 0 6 20 11 45 11 33 0 45 -4 45 -15z
m-2390 -520 c0 -202 2 -235 15 -235 8 0 15 -4 15 -10 0 -5 7 -10 15 -10 8 0
15 -7 15 -15 0 -8 7 -15 15 -15 10 0 15 -10 15 -30 0 -20 -5 -30 -15 -30 -9 0
-15 -9 -15 -25 0 -16 -6 -25 -15 -25 -8 0 -15 -7 -15 -15 0 -12 -14 -15 -63
-15 -63 0 -63 0 -80 35 -28 60 -18 155 17 155 3 0 15 9 26 20 18 18 20 33 20
140 0 100 3 120 15 120 8 0 15 5 15 10 0 6 -7 10 -15 10 -12 0 -15 14 -15 70
0 56 3 70 15 70 8 0 15 7 15 15 0 8 5 15 10 15 6 0 10 -85 10 -235z m1040 -30
c0 -10 10 -15 30 -15 29 0 30 -1 30 -50 0 -38 -4 -50 -15 -50 -8 0 -15 -7 -15
-15 0 -11 -11 -15 -40 -15 -29 0 -40 4 -40 15 0 8 -7 15 -15 15 -11 0 -15 12
-15 48 0 43 3 48 33 64 41 21 47 22 47 3z m330 0 c0 -10 10 -15 30 -15 29 0
30 -1 30 -49 0 -47 -2 -50 -30 -56 -16 -4 -30 -11 -30 -16 0 -5 -11 -9 -25 -9
-16 0 -25 6 -25 15 0 8 -7 15 -15 15 -8 0 -15 5 -15 10 0 6 -7 10 -15 10 -10
0 -15 10 -15 30 0 20 5 30 15 30 8 0 15 5 15 10 0 6 7 10 15 10 8 0 15 7 15
15 0 9 9 15 25 15 16 0 25 -6 25 -15z m1197 -27 c33 -12 33 -12 33 -80 0 -39
-4 -68 -10 -68 -5 0 -10 -7 -10 -15 0 -8 -7 -15 -15 -15 -9 0 -15 -9 -15 -25
0 -16 -6 -25 -15 -25 -13 0 -15 -43 -15 -330 0 -213 -4 -330 -10 -330 -5 0
-10 -7 -10 -15 0 -8 -7 -15 -15 -15 -8 0 -15 -4 -15 -10 0 -5 -7 -10 -15 -10
-8 0 -15 -7 -15 -15 0 -8 -7 -15 -15 -15 -8 0 -15 -7 -15 -15 0 -8 -4 -15 -10
-15 -5 0 -10 -7 -10 -15 0 -8 -7 -15 -15 -15 -8 0 -15 -4 -15 -10 0 -5 -7 -10
-15 -10 -8 0 -15 -7 -15 -15 0 -8 -7 -15 -15 -15 -8 0 -15 -5 -15 -11 0 -14
-25 -39 -39 -39 -6 0 -11 -7 -11 -15 0 -8 -7 -15 -15 -15 -13 0 -15 -45 -15
-345 0 -300 2 -345 15 -345 8 0 15 -4 15 -10 0 -5 7 -10 15 -10 11 0 15 -12
15 -45 0 -33 -4 -45 -15 -45 -8 0 -15 -4 -15 -10 0 -5 -7 -10 -15 -10 -8 0
-15 -7 -15 -15 0 -9 -9 -15 -25 -15 -16 0 -25 6 -25 15 0 8 -7 15 -15 15 -8 0
-15 5 -15 10 0 6 -7 10 -15 10 -11 0 -15 12 -15 45 0 33 4 45 15 45 9 0 15 9
15 25 0 16 6 25 15 25 13 0 15 42 15 315 0 203 4 315 10 315 6 0 10 14 10 30
0 20 5 30 15 30 8 0 15 5 15 10 0 6 7 10 15 10 8 0 15 7 15 15 0 8 7 15 15 15
8 0 15 5 15 11 0 14 25 39 39 39 6 0 11 7 11 15 0 8 7 15 15 15 8 0 15 7 15
15 0 8 7 15 15 15 8 0 15 5 15 11 0 14 25 39 39 39 6 0 11 7 11 15 0 8 7 15
15 15 13 0 15 46 15 355 0 309 -2 355 -15 355 -8 0 -15 7 -15 15 0 8 -7 15
-15 15 -12 0 -15 14 -15 70 0 56 3 70 15 70 8 0 15 5 15 10 0 14 87 13 127 -2z
m313 2 c0 -5 11 -10 25 -10 24 0 25 -2 25 -70 0 -40 -4 -70 -10 -70 -5 0 -10
-7 -10 -15 0 -8 -7 -15 -15 -15 -8 0 -15 -4 -15 -10 0 -5 -7 -10 -15 -10 -13
0 -15 -45 -15 -345 0 -300 -2 -345 -15 -345 -8 0 -15 -7 -15 -15 0 -8 -4 -15
-10 -15 -5 0 -10 -7 -10 -16 0 -8 -4 -12 -10 -9 -5 3 -10 -1 -10 -9 0 -9 -9
-16 -20 -16 -11 0 -20 -7 -20 -15 0 -8 -7 -15 -15 -15 -8 0 -15 -7 -15 -15 0
-8 -4 -15 -10 -15 -5 0 -10 -6 -10 -13 0 -8 -11 -20 -25 -27 -14 -7 -23 -15
-20 -18 2 -3 -7 -13 -20 -24 -14 -11 -25 -26 -25 -34 0 -8 -4 -14 -10 -14 -5
0 -10 -7 -10 -15 0 -8 -7 -15 -15 -15 -8 0 -15 -7 -15 -15 0 -8 -7 -15 -15
-15 -13 0 -15 -39 -15 -289 0 -244 2 -290 15 -301 8 -7 15 -23 15 -36 0 -15 6
-24 15 -24 8 0 15 -7 15 -15 0 -8 5 -15 10 -15 6 0 10 -12 10 -26 0 -26 -20
-54 -39 -54 -6 0 -11 -7 -11 -15 0 -9 -9 -15 -25 -15 -16 0 -25 6 -25 15 0 10
-10 15 -30 15 -30 0 -30 1 -30 55 0 42 3 55 15 55 8 0 15 5 15 10 0 6 7 10 15
10 13 0 15 45 15 345 0 223 4 345 10 345 6 0 10 7 10 15 0 8 7 15 15 15 8 0
15 5 15 10 0 6 7 10 15 10 8 0 15 7 15 15 0 8 5 15 10 15 6 0 10 7 10 15 0 8
8 15 18 15 27 0 72 23 72 38 0 6 5 12 10 12 6 0 10 7 10 15 0 8 7 15 15 15 8
0 15 7 15 15 0 8 7 15 15 15 9 0 15 9 15 25 0 16 6 25 15 25 10 0 15 10 15 30
0 17 5 30 10 30 12 0 8 551 -5 613 -4 21 -13 37 -21 37 -8 0 -14 7 -14 15 0 8
-7 15 -15 15 -12 0 -15 14 -15 70 l0 70 30 0 c17 0 30 5 30 10 0 6 18 10 40
10 22 0 40 -4 40 -10z m1940 -15 c0 -25 0 -25 -95 -25 -78 0 -95 -3 -95 -15 0
-9 -9 -15 -25 -15 -14 0 -25 -4 -25 -10 0 -5 -13 -10 -30 -10 -20 0 -30 -5
-30 -15 0 -8 -7 -15 -15 -15 -8 0 -15 -7 -15 -15 0 -8 -4 -15 -10 -15 -5 0
-10 -7 -10 -15 0 -8 -7 -15 -15 -15 -8 0 -15 -4 -15 -10 0 -5 -7 -10 -15 -10
-8 0 -15 -7 -15 -15 0 -8 -7 -15 -15 -15 -8 0 -15 -7 -15 -15 0 -8 -4 -15 -10
-15 -5 0 -10 -7 -10 -15 0 -8 -7 -15 -15 -15 -8 0 -15 -4 -15 -10 0 -5 -7 -10
-15 -10 -8 0 -15 -7 -15 -15 0 -8 -7 -15 -15 -15 -8 0 -15 -7 -15 -15 0 -8 -4
-15 -10 -15 -5 0 -10 -7 -10 -15 0 -8 -7 -15 -15 -15 -8 0 -15 -4 -15 -10 0
-5 -7 -10 -15 -10 -8 0 -15 -7 -15 -15 0 -8 -4 -15 -10 -15 -5 0 -10 -7 -10
-15 0 -8 -7 -15 -15 -15 -8 0 -15 -7 -15 -15 0 -8 -7 -15 -15 -15 -8 0 -15 -4
-15 -10 0 -5 -7 -10 -15 -10 -8 0 -15 -7 -15 -15 0 -8 -4 -15 -10 -15 -5 0
-10 -7 -10 -15 0 -8 -7 -15 -15 -15 -8 0 -15 -4 -15 -10 0 -5 -7 -10 -15 -10
-8 0 -15 -7 -15 -15 0 -8 -7 -15 -15 -15 -8 0 -15 -7 -15 -15 0 -8 -4 -15 -10
-15 -5 0 -10 -7 -10 -15 0 -8 -7 -15 -15 -15 -8 0 -15 -4 -15 -10 0 -5 -7 -10
-15 -10 -8 0 -15 -7 -15 -15 0 -8 -7 -15 -15 -15 -8 0 -15 -7 -15 -15 0 -8 -4
-15 -10 -15 -5 0 -10 -7 -10 -15 0 -8 -7 -15 -15 -15 -8 0 -15 -4 -15 -10 0
-5 -7 -10 -15 -10 -8 0 -15 -7 -15 -15 0 -8 -7 -15 -15 -15 -8 0 -15 -7 -15
-15 0 -8 -4 -15 -10 -15 -5 0 -10 -7 -10 -15 0 -8 -7 -15 -15 -15 -8 0 -15 -4
-15 -10 0 -5 -7 -10 -15 -10 -8 0 -15 -7 -15 -15 0 -8 -4 -15 -10 -15 -5 0
-10 -7 -10 -15 0 -8 -7 -15 -15 -15 -8 0 -15 -7 -15 -15 0 -8 -7 -15 -15 -15
-8 0 -15 -4 -15 -10 0 -5 -7 -10 -15 -10 -8 0 -15 -7 -15 -15 0 -8 -4 -15 -10
-15 -5 0 -10 -7 -10 -15 0 -8 -7 -15 -15 -15 -8 0 -15 -4 -15 -10 0 -5 -7 -10
-15 -10 -8 0 -15 -7 -15 -15 0 -8 -7 -15 -15 -15 -10 0 -15 -10 -15 -30 0 -16
-5 -30 -10 -30 -10 0 -9 -178 2 -375 2 -33 5 -104 6 -157 2 -80 5 -98 17 -98
8 0 15 -4 15 -10 0 -5 14 -10 30 -10 27 0 30 -3 30 -30 0 -16 5 -30 10 -30 6
0 10 -18 10 -40 0 -22 -4 -40 -10 -40 -5 0 -10 -13 -10 -30 0 -27 -3 -30 -30
-30 -16 0 -30 -4 -30 -10 0 -5 -25 -10 -55 -10 -30 0 -55 5 -55 10 0 6 -7 10
-15 10 -8 0 -15 7 -15 15 0 8 -4 15 -10 15 -6 0 -10 30 -10 70 0 40 4 70 10
70 6 0 10 7 10 15 0 8 7 15 15 15 12 0 15 13 15 55 0 42 3 55 15 55 13 0 15
40 15 300 0 260 2 300 15 300 8 0 15 5 15 11 0 14 25 39 39 39 6 0 11 7 11 15
0 8 7 15 15 15 8 0 15 7 15 15 0 8 5 15 11 15 14 0 39 25 39 39 0 6 7 11 15
11 8 0 15 7 15 15 0 8 7 15 15 15 8 0 15 7 15 15 0 8 5 15 11 15 14 0 39 25
39 39 0 6 7 11 15 11 8 0 15 7 15 15 0 8 7 15 15 15 8 0 15 5 15 11 0 14 25
39 39 39 6 0 11 7 11 15 0 8 7 15 15 15 8 0 15 7 15 15 0 8 7 15 15 15 8 0 15
5 15 11 0 14 25 39 39 39 6 0 11 7 11 15 0 8 7 15 15 15 8 0 15 7 15 15 0 8 7
15 15 15 8 0 15 5 15 11 0 14 25 39 39 39 6 0 11 7 11 15 0 8 7 15 15 15 8 0
15 7 15 15 0 8 5 15 11 15 14 0 39 25 39 39 0 6 7 11 15 11 8 0 15 7 15 15 0
8 7 15 15 15 8 0 15 7 15 15 0 8 5 15 11 15 14 0 39 25 39 39 0 6 7 11 15 11
8 0 15 7 15 15 0 8 7 15 15 15 8 0 15 5 15 11 0 14 25 39 39 39 6 0 11 7 11
15 0 8 7 15 15 15 8 0 15 7 15 15 0 8 7 15 15 15 8 0 15 5 15 11 0 14 25 39
39 39 6 0 11 7 11 15 0 8 7 15 15 15 8 0 15 7 15 15 0 8 7 15 15 15 8 0 15 5
15 11 0 14 25 39 39 39 6 0 11 7 11 15 0 8 7 15 15 15 8 0 15 7 15 15 0 8 7
15 15 15 8 0 15 5 15 10 0 6 47 10 120 10 l120 0 0 -25z m-5120 -325 c0 -216
2 -250 15 -250 9 0 15 -9 15 -25 0 -16 6 -25 15 -25 8 0 15 -7 15 -15 0 -8 5
-15 10 -15 6 0 10 -7 10 -15 0 -8 7 -15 15 -15 8 0 15 -4 15 -9 0 -5 10 -11
23 -15 13 -3 29 -17 37 -31 7 -13 21 -27 32 -31 10 -3 18 -10 18 -15 0 -5 7
-9 15 -9 8 0 15 -4 15 -10 0 -5 7 -10 15 -10 8 0 15 -7 15 -15 0 -8 5 -15 10
-15 6 0 10 -9 10 -20 0 -11 4 -20 9 -20 5 0 13 -9 16 -20 3 -11 13 -20 21 -20
8 0 14 -7 14 -15 0 -8 7 -15 15 -15 8 0 15 -7 15 -15 0 -9 9 -15 25 -15 20 0
25 -5 25 -25 0 -16 6 -25 15 -25 8 0 15 -7 15 -15 0 -8 7 -15 15 -15 8 0 15
-5 15 -11 0 -14 25 -39 39 -39 6 0 11 -7 11 -15 0 -8 7 -15 15 -15 10 0 15
-10 15 -30 0 -16 5 -30 10 -30 6 0 10 -25 10 -55 0 -42 3 -55 15 -55 12 0 15
-14 15 -65 0 -51 -3 -65 -15 -65 -13 0 -15 -25 -15 -165 0 -140 2 -165 15
-165 11 0 15 -11 15 -40 0 -29 4 -40 15 -40 12 0 15 -13 15 -55 0 -42 -3 -55
-15 -55 -8 0 -15 -7 -15 -15 0 -11 -11 -15 -40 -15 -29 0 -40 4 -40 15 0 8 -7
15 -15 15 -12 0 -15 13 -15 55 0 42 3 55 15 55 8 0 15 5 15 10 0 6 7 10 15 10
13 0 15 42 15 315 0 273 -2 315 -15 315 -8 0 -15 7 -15 15 0 8 -7 15 -15 15
-8 0 -15 7 -15 15 0 8 -4 15 -10 15 -5 0 -10 7 -10 15 0 8 -7 15 -15 15 -8 0
-15 5 -15 10 0 6 -7 10 -15 10 -10 0 -15 10 -15 30 0 25 -4 30 -25 30 -14 0
-25 5 -25 10 0 6 -7 10 -15 10 -8 0 -15 7 -15 15 0 8 -7 15 -15 15 -8 0 -15 7
-15 15 0 8 -7 15 -15 15 -8 0 -15 5 -15 11 0 14 -25 39 -39 39 -6 0 -11 7 -11
15 0 8 -7 15 -15 15 -8 0 -15 7 -15 15 0 8 -7 15 -15 15 -8 0 -15 5 -15 11 0
14 -25 39 -39 39 -6 0 -11 7 -11 15 0 8 -7 15 -15 15 -8 0 -15 7 -15 15 0 8
-7 15 -15 15 -8 0 -15 5 -15 11 0 14 -25 39 -39 39 -6 0 -11 7 -11 15 0 8 -7
15 -15 15 -8 0 -15 7 -15 15 0 8 -4 15 -10 15 -6 0 -10 88 -10 245 0 211 -2
245 -15 245 -8 0 -15 7 -15 15 0 8 7 15 15 15 8 0 15 7 15 15 0 8 5 15 10 15
6 0 10 -90 10 -250z m-240 -115 c0 -30 5 -55 10 -55 6 0 10 -18 10 -40 0 -29
4 -40 15 -40 9 0 15 -9 15 -25 0 -16 6 -25 15 -25 8 0 15 -7 15 -15 0 -8 7
-15 15 -15 8 0 15 -5 15 -11 0 -14 25 -39 39 -39 6 0 11 -7 11 -15 0 -8 7 -15
15 -15 8 0 15 -7 15 -15 0 -8 7 -15 15 -15 8 0 15 -5 15 -11 0 -14 25 -39 39
-39 6 0 11 -7 11 -15 0 -8 7 -15 15 -15 8 0 15 -7 15 -15 0 -8 5 -15 10 -15 6
0 10 -7 10 -15 0 -8 7 -15 15 -15 8 0 15 -4 15 -10 0 -5 7 -10 15 -10 8 0 15
-7 15 -15 0 -8 7 -15 15 -15 8 0 15 -7 15 -15 0 -8 5 -15 10 -15 6 0 10 -7 10
-15 0 -8 7 -15 15 -15 8 0 15 -4 15 -10 0 -5 7 -10 15 -10 8 0 15 -7 15 -15 0
-8 7 -15 15 -15 8 0 15 -5 15 -11 0 -14 25 -39 39 -39 6 0 11 -7 11 -15 0 -8
7 -15 15 -15 10 0 15 -10 15 -30 0 -20 -5 -30 -15 -30 -8 0 -15 7 -15 15 0 8
-7 15 -15 15 -8 0 -15 7 -15 15 0 8 -4 15 -10 15 -5 0 -10 7 -10 15 0 8 -7 15
-15 15 -8 0 -15 5 -15 10 0 6 -7 10 -15 10 -8 0 -15 7 -15 15 0 8 -7 15 -15
15 -8 0 -15 5 -15 11 0 14 -25 39 -39 39 -6 0 -11 7 -11 15 0 8 -7 15 -15 15
-8 0 -15 7 -15 15 0 8 -7 15 -15 15 -8 0 -15 5 -15 11 0 14 -25 39 -39 39 -6
0 -11 7 -11 15 0 8 -7 15 -15 15 -8 0 -15 7 -15 15 0 8 -4 15 -10 15 -5 0 -10
7 -10 15 0 8 -7 15 -15 15 -8 0 -15 5 -15 10 0 6 -7 10 -15 10 -8 0 -15 7 -15
15 0 8 -7 15 -15 15 -8 0 -15 7 -15 15 0 8 -4 15 -10 15 -5 0 -10 7 -10 15 0
8 -7 15 -15 15 -8 0 -15 5 -15 10 0 6 -7 10 -15 10 -8 0 -15 7 -15 15 0 8 -7
15 -15 15 -8 0 -15 7 -15 15 0 8 -4 15 -10 15 -5 0 -10 11 -10 25 0 16 -6 25
-15 25 -12 0 -15 17 -15 95 0 78 3 95 15 95 12 0 15 -13 15 -55z m5500 -185
l0 -30 -180 0 c-121 0 -180 -3 -180 -11 0 -14 -25 -39 -39 -39 -6 0 -11 -7
-11 -15 0 -8 -7 -15 -15 -15 -8 0 -15 -7 -15 -15 0 -8 -7 -15 -15 -15 -8 0
-15 -5 -15 -11 0 -14 -25 -39 -39 -39 -6 0 -11 -7 -11 -15 0 -8 -7 -15 -15
-15 -8 0 -15 -7 -15 -15 0 -8 -7 -15 -15 -15 -8 0 -15 -5 -15 -11 0 -14 -25
-39 -39 -39 -6 0 -11 -7 -11 -15 0 -8 -7 -15 -15 -15 -8 0 -15 -7 -15 -15 0
-8 -7 -15 -15 -15 -8 0 -15 -5 -15 -11 0 -14 -25 -39 -39 -39 -6 0 -11 -7 -11
-15 0 -8 -7 -15 -15 -15 -8 0 -15 -5 -15 -11 0 -14 -25 -39 -39 -39 -6 0 -11
-7 -11 -15 0 -8 -7 -15 -15 -15 -8 0 -15 -7 -15 -15 0 -8 -7 -15 -15 -15 -8 0
-15 -5 -15 -11 0 -14 -25 -39 -39 -39 -6 0 -11 -7 -11 -15 0 -8 -7 -15 -15
-15 -8 0 -15 -6 -15 -14 0 -7 -7 -19 -15 -26 -8 -7 -15 -25 -15 -40 0 -16 -6
-30 -12 -33 -10 -4 -10 -7 0 -18 7 -7 12 -39 12 -76 0 -58 -3 -66 -30 -93 -17
-17 -35 -30 -40 -30 -6 0 -10 -7 -10 -15 0 -12 -14 -15 -70 -15 -56 0 -70 3
-70 15 0 9 -9 15 -25 15 -16 0 -25 6 -25 15 0 8 -7 15 -15 15 -11 0 -15 11
-15 40 0 22 -4 40 -10 40 -5 0 -10 11 -10 25 0 14 5 25 10 25 6 0 10 14 10 30
0 20 5 30 15 30 8 0 15 7 15 15 0 8 7 15 15 15 8 0 15 5 15 10 0 6 33 10 80
10 64 0 80 3 80 15 0 10 10 15 30 15 20 0 30 5 30 15 0 8 5 15 10 15 6 0 10 7
10 15 0 8 7 15 15 15 8 0 15 5 15 10 0 6 7 10 15 10 8 0 15 7 15 15 0 8 7 15
15 15 8 0 15 7 15 15 0 9 9 15 25 15 20 0 25 5 25 25 0 16 6 25 15 25 8 0 15
7 15 15 0 8 7 15 15 15 8 0 15 5 15 11 0 14 25 39 39 39 6 0 11 7 11 15 0 8 7
15 15 15 8 0 15 7 15 15 0 8 5 15 10 15 6 0 10 7 10 15 0 8 7 15 15 15 8 0 15
5 15 10 0 6 7 10 15 10 8 0 15 7 15 15 0 8 7 15 15 15 8 0 15 7 15 15 0 8 5
15 10 15 6 0 10 7 10 15 0 8 7 15 15 15 8 0 15 5 15 10 0 6 7 10 15 10 8 0 15
7 15 15 0 8 7 15 15 15 8 0 15 7 15 15 0 8 5 15 10 15 6 0 10 7 10 15 0 8 7
15 15 15 8 0 15 5 15 10 0 6 7 10 15 10 8 0 15 7 15 15 0 8 7 15 15 15 8 0 15
7 15 15 0 9 9 15 25 15 16 0 25 6 25 15 0 13 25 15 165 15 l165 0 0 -30z m30
-275 l0 -25 -100 0 c-66 0 -100 -4 -100 -11 0 -6 -11 -20 -25 -31 l-25 -19 0
-380 c0 -330 -2 -379 -15 -379 -8 0 -15 -7 -15 -15 0 -8 -4 -15 -10 -15 -5 0
-10 -7 -10 -15 0 -8 -7 -15 -15 -15 -8 0 -15 -7 -15 -15 0 -8 -7 -15 -15 -15
-8 0 -15 -4 -15 -10 0 -5 -7 -10 -15 -10 -8 0 -15 -7 -15 -15 0 -8 -4 -15 -10
-15 -5 0 -10 -7 -10 -15 0 -8 -7 -15 -15 -15 -8 0 -15 -7 -15 -15 0 -8 -7 -15
-15 -15 -8 0 -15 -4 -15 -10 0 -5 -7 -10 -15 -10 -8 0 -15 -7 -15 -15 0 -8 -4
-15 -10 -15 -5 0 -10 -7 -10 -15 0 -8 -7 -15 -15 -15 -8 0 -15 -7 -15 -15 0
-8 -7 -15 -15 -15 -8 0 -15 -4 -15 -10 0 -5 -11 -10 -25 -10 -21 0 -25 -5 -25
-30 0 -20 -5 -30 -15 -30 -8 0 -15 -7 -15 -15 0 -8 -7 -15 -15 -15 -8 0 -15
-4 -15 -10 0 -5 -7 -10 -15 -10 -8 0 -15 -7 -15 -15 0 -8 -4 -15 -10 -15 -5 0
-10 -7 -10 -15 0 -13 -22 -15 -140 -15 -87 0 -140 -4 -140 -10 0 -5 -11 -10
-25 -10 -16 0 -25 -6 -25 -15 0 -11 -11 -15 -40 -15 -29 0 -40 4 -40 15 0 8
-7 15 -15 15 -8 0 -15 5 -15 10 0 6 -7 10 -15 10 -10 0 -15 10 -15 30 0 20 5
30 15 30 8 0 15 5 15 10 0 6 7 10 15 10 8 0 15 7 15 15 0 9 9 15 25 15 16 0
25 -6 25 -15 0 -10 10 -15 30 -15 17 0 30 -4 30 -10 0 -6 55 -10 146 -10 146
0 174 6 174 39 0 6 7 11 15 11 8 0 15 7 15 15 0 8 7 15 15 15 9 0 15 9 15 25
0 16 6 25 15 25 8 0 15 5 15 11 0 17 40 49 62 49 10 0 18 7 18 15 0 8 5 15 11
15 14 0 39 25 39 39 0 6 7 11 15 11 8 0 15 7 15 15 0 8 7 15 15 15 8 0 15 7
15 15 0 8 5 15 11 15 14 0 39 25 39 39 0 6 7 11 15 11 8 0 15 7 15 15 0 8 7
15 15 15 8 0 15 7 15 15 0 8 7 15 15 15 13 0 15 48 16 370 1 204 3 373 4 378
1 4 5 26 10 50 l8 42 123 0 c104 0 124 2 124 15 0 8 7 15 15 15 9 0 15 -9 15
-25z m-5450 -260 c0 -8 7 -15 15 -15 12 0 15 -13 15 -55 0 -42 -3 -55 -15 -55
-8 0 -15 -7 -15 -15 0 -11 -11 -15 -40 -15 -29 0 -40 4 -40 15 0 8 -7 15 -15
15 -12 0 -15 13 -15 55 0 52 1 55 25 55 16 0 25 6 25 15 0 10 10 15 30 15 20
0 30 -5 30 -15z m5420 -110 c0 -9 9 -15 25 -15 16 0 25 6 25 15 0 10 10 15 30
15 27 0 30 -3 30 -30 l0 -30 -70 0 c-40 0 -70 -4 -70 -10 0 -5 -7 -10 -15 -10
-13 0 -15 -33 -15 -235 0 -150 -4 -235 -10 -235 -6 0 -10 -52 -10 -135 0 -83
4 -135 10 -135 6 0 10 -13 10 -30 0 -16 -4 -30 -10 -30 -5 0 -10 -11 -10 -25
0 -16 -6 -25 -15 -25 -8 0 -15 -7 -15 -15 0 -8 -7 -15 -15 -15 -8 0 -15 -7
-15 -15 0 -8 -5 -15 -11 -15 -14 0 -39 -25 -39 -39 0 -6 -7 -11 -15 -11 -8 0
-15 -7 -15 -15 0 -8 -7 -15 -15 -15 -8 0 -15 -5 -15 -11 0 -14 -25 -39 -39
-39 -6 0 -11 -7 -11 -15 0 -8 -7 -15 -15 -15 -8 0 -15 -7 -15 -15 0 -8 -7 -15
-15 -15 -8 0 -15 -5 -15 -11 0 -14 -25 -39 -39 -39 -6 0 -11 -7 -11 -15 0 -8
-7 -15 -15 -15 -8 0 -15 -7 -15 -15 0 -8 -7 -15 -15 -15 -8 0 -15 -7 -15 -15
0 -9 -9 -15 -25 -15 -14 0 -25 -4 -25 -8 0 -7 -131 -11 -397 -12 -76 0 -93 -3
-93 -15 0 -10 -10 -15 -30 -15 -20 0 -30 -5 -30 -15 0 -9 -9 -15 -25 -15 -16
0 -25 6 -25 15 0 8 -7 15 -15 15 -8 0 -15 7 -15 15 0 8 -7 15 -15 15 -9 0 -15
9 -15 25 0 16 6 25 15 25 10 0 15 10 15 30 0 30 1 30 55 30 42 0 55 -3 55 -15
0 -9 9 -15 25 -15 16 0 25 -6 25 -15 0 -13 34 -15 250 -15 216 0 250 2 250 15
0 8 5 15 10 15 6 0 10 7 10 15 0 8 7 15 15 15 8 0 15 5 15 10 0 6 7 10 15 10
8 0 15 7 15 15 0 8 7 15 15 15 8 0 15 7 15 15 0 8 5 15 10 15 6 0 10 7 10 15
0 8 7 15 15 15 8 0 15 5 15 10 0 6 7 10 15 10 8 0 15 7 15 15 0 8 7 15 15 15
8 0 15 7 15 15 0 8 5 15 10 15 6 0 10 7 10 15 0 8 7 15 15 15 8 0 15 5 15 10
0 6 7 10 15 10 8 0 15 7 15 15 0 8 5 15 10 15 6 0 10 7 10 15 0 8 7 15 15 15
8 0 15 5 15 10 0 6 7 10 15 10 13 0 15 56 15 440 0 384 2 440 15 440 8 0 15 7
15 15 0 11 11 15 40 15 29 0 40 -4 40 -15z m-6160 -80 c0 -8 7 -15 15 -15 8 0
15 -7 15 -15 0 -12 14 -15 65 -15 51 0 65 -3 65 -15 0 -8 7 -15 15 -15 8 0 15
-4 15 -10 0 -5 7 -10 15 -10 12 0 15 -13 15 -55 0 -42 -3 -55 -15 -55 -8 0
-15 -7 -15 -15 0 -9 -9 -15 -25 -15 -16 0 -25 -6 -25 -15 0 -10 -10 -15 -30
-15 -20 0 -30 5 -30 15 0 8 -7 15 -15 15 -8 0 -15 7 -15 15 0 8 -4 15 -10 15
-5 0 -10 25 -10 55 0 42 -3 55 -15 55 -9 0 -15 9 -15 25 0 16 -6 25 -15 25
-10 0 -15 10 -15 30 0 20 5 30 15 30 8 0 15 -7 15 -15z m770 -275 l0 -70 -55
0 c-42 0 -55 3 -55 15 0 8 -7 15 -15 15 -11 0 -15 11 -15 40 0 29 4 40 15 40
8 0 15 7 15 15 0 12 13 15 55 15 l55 0 0 -70z m-990 -85 c0 -8 5 -15 11 -15
14 0 39 -25 39 -39 0 -6 7 -11 15 -11 8 0 15 -7 15 -15 0 -8 7 -15 15 -15 8 0
15 -7 15 -15 0 -12 14 -15 66 -15 81 0 94 -11 94 -78 0 -45 -3 -50 -25 -56
-14 -4 -25 -11 -25 -16 0 -6 -13 -10 -30 -10 -16 0 -30 5 -30 11 0 14 -25 39
-39 39 -6 0 -11 16 -11 36 0 25 -3 33 -12 28 -8 -5 -7 0 2 11 9 11 10 16 2 11
-7 -4 -15 -1 -18 8 -3 9 -12 16 -20 16 -8 0 -14 7 -14 15 0 8 -4 15 -10 15 -5
0 -10 7 -10 15 0 8 -7 15 -15 15 -8 0 -15 7 -15 15 0 8 -7 15 -15 15 -9 0 -15
9 -15 25 0 16 6 25 15 25 8 0 15 -7 15 -15z m-110 -160 c0 -8 7 -15 15 -15 8
0 15 -7 15 -15 0 -8 7 -15 15 -15 8 0 15 -5 15 -11 0 -14 25 -39 39 -39 6 0
11 -7 11 -15 0 -8 7 -15 15 -15 8 0 15 -7 15 -15 0 -8 5 -15 10 -15 6 0 10 -7
10 -15 0 -8 7 -15 15 -15 8 0 15 -4 15 -10 0 -5 7 -10 15 -10 8 0 15 -7 15
-15 0 -8 7 -15 15 -15 8 0 15 -7 15 -15 0 -8 5 -15 10 -15 6 0 10 -7 10 -15 0
-8 7 -15 15 -15 8 0 15 -4 15 -10 0 -5 7 -10 15 -10 8 0 15 -7 15 -15 0 -8 7
-15 15 -15 8 0 15 -5 15 -11 0 -14 25 -39 39 -39 6 0 11 -7 11 -15 0 -8 7 -15
15 -15 8 0 15 -7 15 -15 0 -8 7 -15 15 -15 8 0 15 -5 15 -11 0 -14 25 -39 39
-39 6 0 11 -7 11 -15 0 -8 7 -15 15 -15 8 0 15 -7 15 -15 0 -8 7 -15 15 -15 8
0 15 -7 15 -15 0 -13 34 -15 245 -15 211 0 245 2 245 15 0 8 7 15 15 15 8 0
15 7 15 15 0 11 11 15 40 15 29 0 40 -4 40 -15 0 -8 7 -15 15 -15 12 0 15 -13
15 -55 0 -42 -3 -55 -15 -55 -8 0 -15 -7 -15 -15 0 -11 -11 -15 -40 -15 -29 0
-40 4 -40 15 0 8 -7 15 -15 15 -8 0 -15 7 -15 15 0 13 -33 15 -235 15 -202 0
-235 2 -235 15 0 9 -9 15 -25 15 -14 0 -25 5 -25 10 0 6 -7 10 -15 10 -8 0
-15 7 -15 15 0 8 -7 15 -15 15 -8 0 -15 7 -15 15 0 8 -4 15 -10 15 -5 0 -10
-7 -10 -15 0 -8 -7 -15 -15 -15 -9 0 -15 -9 -15 -25 0 -20 -5 -25 -24 -25 -13
0 -26 -7 -30 -15 -7 -20 -26 -19 -26 0 0 9 -6 15 -12 14 -36 -4 -48 2 -48 25
0 13 -7 26 -15 30 -8 3 -15 15 -15 26 0 23 -22 50 -39 50 -6 0 -11 8 -11 18 0
10 -12 30 -27 44 -35 32 -83 88 -83 97 0 8 -50 31 -67 31 -7 0 -13 7 -13 15 0
8 -7 15 -15 15 -8 0 -15 7 -15 15 0 8 -7 15 -15 15 -9 0 -15 9 -15 25 0 14 -4
25 -10 25 -5 0 -10 7 -10 15 0 10 -10 15 -30 15 -27 0 -30 3 -30 30 0 27 3 30
30 30 20 0 30 -5 30 -15 0 -8 5 -15 10 -15 6 0 10 -7 10 -15 0 -8 7 -15 15
-15 8 0 15 -7 15 -15 0 -8 7 -15 15 -15 8 0 15 -4 15 -10 0 -5 7 -10 15 -10 8
0 15 -7 15 -15 0 -8 5 -15 10 -15 6 0 10 -7 10 -15 0 -8 7 -15 15 -15 8 0 15
-7 15 -15 0 -8 5 -15 11 -15 14 0 39 -25 39 -39 0 -6 7 -11 15 -11 8 0 15 -7
15 -15 0 -8 7 -15 15 -15 8 0 15 -4 15 -10 0 -5 7 -10 15 -10 8 0 15 -7 15
-15 0 -8 5 -15 10 -15 6 0 10 -7 10 -15 0 -8 7 -15 15 -15 8 0 15 -7 15 -15 0
-11 11 -15 40 -15 29 0 40 4 40 15 0 8 -4 15 -10 15 -5 0 -10 7 -10 15 0 8 -7
15 -15 15 -8 0 -15 7 -15 15 0 8 -7 15 -15 15 -8 0 -15 5 -15 10 0 6 -7 10
-15 10 -8 0 -15 7 -15 15 0 8 -4 15 -10 15 -5 0 -10 7 -10 15 0 8 -7 15 -15
15 -8 0 -15 5 -15 10 0 6 -7 10 -15 10 -8 0 -15 7 -15 15 0 8 -7 15 -15 15 -8
0 -15 7 -15 15 0 8 -4 15 -10 15 -5 0 -10 7 -10 15 0 8 -7 15 -15 15 -8 0 -15
5 -15 10 0 6 -7 10 -15 10 -8 0 -15 7 -15 15 0 8 -4 15 -10 15 -5 0 -10 7 -10
15 0 8 -7 15 -15 15 -8 0 -15 7 -15 15 0 8 -7 15 -15 15 -8 0 -15 9 -15 19 0
10 -7 21 -15 25 -9 3 -15 18 -15 36 0 20 5 30 15 30 8 0 15 -7 15 -15z m-264
-499 c8 -8 14 -19 14 -25 0 -6 7 -11 15 -11 8 0 15 -7 15 -15 0 -8 7 -15 15
-15 8 0 15 -7 15 -15 0 -8 5 -15 11 -15 14 0 39 -25 39 -39 0 -6 7 -11 15 -11
8 0 15 -7 15 -15 0 -8 7 -15 15 -15 8 0 15 -7 15 -15 0 -8 5 -15 11 -15 14 0
39 -25 39 -39 0 -6 7 -11 15 -11 8 0 15 -7 15 -15 0 -8 7 -15 15 -15 8 0 15
-7 15 -15 0 -8 5 -15 11 -15 14 0 39 -25 39 -39 0 -6 7 -11 15 -11 8 0 15 -7
15 -15 0 -8 7 -15 15 -15 8 0 15 -6 15 -14 0 -20 53 -22 513 -18 333 2 387 5
387 17 0 10 10 15 30 15 20 0 30 5 30 15 0 11 11 15 40 15 29 0 40 -4 40 -15
0 -8 7 -15 15 -15 8 0 15 -7 15 -15 0 -8 5 -15 10 -15 6 0 10 -11 10 -25 0
-14 -4 -25 -10 -25 -5 0 -10 -7 -10 -15 0 -8 -7 -15 -15 -15 -8 0 -15 -4 -15
-10 0 -5 -13 -10 -30 -10 -16 0 -30 5 -30 10 0 6 -11 10 -25 10 -16 0 -25 6
-25 15 0 13 -57 15 -455 15 -398 0 -455 2 -455 15 0 9 -9 15 -25 15 -14 0 -25
5 -25 10 0 6 -11 10 -25 10 -16 0 -25 6 -25 15 0 8 -7 15 -15 15 -8 0 -15 7
-15 15 0 8 -7 15 -15 15 -9 0 -15 9 -15 25 0 16 -6 25 -15 25 -8 0 -15 7 -15
15 0 8 -4 15 -10 15 -5 0 -10 7 -10 15 0 8 -7 15 -15 15 -8 0 -15 7 -15 15 0
8 -7 15 -15 15 -8 0 -15 5 -15 10 0 6 -7 10 -15 10 -8 0 -15 7 -15 15 0 8 -4
15 -10 15 -5 0 -10 7 -10 15 0 8 -7 15 -15 15 -8 0 -15 7 -15 15 0 8 -7 15
-15 15 -8 0 -15 5 -15 10 0 6 -7 10 -15 10 -8 0 -15 7 -15 15 0 9 -9 15 -25
15 -16 0 -25 6 -25 15 0 8 -7 15 -15 15 -8 0 -15 7 -15 15 0 8 7 15 15 15 8 0
15 5 15 10 0 15 19 12 36 -4z m5004 -81 c0 -9 9 -15 25 -15 20 0 25 -5 25 -25
0 -16 6 -25 15 -25 11 0 15 -11 15 -40 0 -29 4 -40 15 -40 13 0 15 -156 15
-1345 0 -1189 -2 -1345 -15 -1345 -11 0 -15 -11 -15 -40 0 -29 -4 -40 -15 -40
-8 0 -15 -7 -15 -15 0 -9 -9 -15 -25 -15 -14 0 -25 -4 -25 -10 0 -7 -500 -10
-1480 -10 -980 0 -1480 3 -1480 10 0 6 -7 10 -15 10 -8 0 -15 7 -15 15 0 8 -4
15 -10 15 -5 0 -10 7 -10 15 0 8 -7 15 -15 15 -13 0 -15 162 -15 1395 0 1233
2 1395 15 1395 9 0 15 10 15 26 0 33 21 54 54 54 16 0 26 6 26 15 0 13 169 15
1465 15 1296 0 1465 -2 1465 -15z m1940 -55 c0 -29 -4 -40 -15 -40 -8 0 -15
-7 -15 -15 0 -9 -9 -15 -25 -15 -14 0 -25 -4 -25 -10 0 -5 -7 -10 -15 -10 -8
0 -15 -7 -15 -15 0 -8 -7 -15 -15 -15 -8 0 -15 -7 -15 -15 0 -8 -4 -15 -10
-15 -5 0 -10 -7 -10 -15 0 -8 -7 -15 -15 -15 -8 0 -15 -4 -15 -10 0 -5 -7 -10
-15 -10 -8 0 -15 -7 -15 -15 0 -8 -7 -15 -15 -15 -8 0 -15 -7 -15 -15 0 -8 -4
-15 -10 -15 -5 0 -10 -6 -10 -14 0 -8 -13 -20 -30 -28 -16 -7 -30 -19 -30 -25
0 -10 -87 -13 -409 -13 -323 0 -410 -3 -414 -13 -2 -7 -20 -14 -38 -15 -18 -1
-36 -7 -40 -13 -3 -6 -28 -9 -55 -7 -42 3 -49 6 -52 26 -2 12 -10 22 -18 22
-8 0 -14 10 -14 25 0 16 6 25 15 25 8 0 15 7 15 15 0 8 7 15 15 15 8 0 15 7
15 15 0 11 11 15 40 15 29 0 40 -4 40 -15 0 -8 7 -15 15 -15 8 0 15 -7 15 -15
0 -11 11 -15 40 -15 22 0 40 -4 40 -10 0 -6 133 -10 380 -10 247 0 380 4 380
10 0 6 7 10 15 10 8 0 15 7 15 15 0 8 7 15 15 15 8 0 15 7 15 15 0 8 7 15 15
15 8 0 15 5 15 11 0 6 6 17 14 25 8 8 19 14 25 14 6 0 11 7 11 15 0 8 7 15 15
15 8 0 15 7 15 15 0 8 7 15 15 15 8 0 15 5 15 11 0 6 6 17 14 25 8 8 19 14 25
14 6 0 11 7 11 15 0 8 7 15 15 15 8 0 15 7 15 15 0 8 7 15 15 15 8 0 15 5 15
10 0 15 23 39 38 40 7 0 12 -14 12 -40z m-1260 -575 c0 -9 9 -15 24 -15 14 0
28 -4 31 -10 3 -5 17 -10 31 -10 15 0 24 -6 24 -15 0 -13 69 -15 560 -15 491
0 560 -2 560 -15 0 -13 -71 -15 -575 -15 -504 0 -575 -2 -575 -15 0 -9 -9 -15
-25 -15 -14 0 -25 -4 -25 -10 0 -5 -25 -10 -55 -10 -52 0 -55 1 -55 25 0 16
-6 25 -15 25 -10 0 -15 10 -15 30 0 20 5 30 15 30 8 0 15 5 15 10 0 6 7 10 15
10 8 0 15 7 15 15 0 9 9 15 25 15 16 0 25 -6 25 -15z m-4240 -50 c0 -9 9 -15
25 -15 16 0 25 -6 25 -15 0 -8 7 -15 15 -15 12 0 15 -14 15 -70 0 -43 -4 -70
-11 -70 -6 0 -17 -6 -25 -14 -8 -8 -14 -19 -14 -25 0 -7 -23 -11 -55 -11 -42
0 -55 3 -55 15 0 10 -10 15 -30 15 -25 0 -30 4 -30 25 0 20 -5 25 -25 25 -16
0 -25 6 -25 15 0 13 -103 15 -865 15 -762 0 -865 2 -865 15 0 13 103 15 865
15 570 0 865 3 865 10 0 6 11 10 25 10 16 0 25 6 25 15 0 8 7 15 15 15 8 0 15
7 15 15 0 8 7 15 15 15 8 0 15 7 15 15 0 11 11 15 40 15 29 0 40 -4 40 -15z
m4270 -195 c0 -5 11 -10 25 -10 21 0 25 -5 25 -30 0 -27 3 -30 30 -30 17 0 30
-4 30 -10 0 -7 188 -10 545 -10 478 0 545 -2 545 -15 0 -13 -67 -15 -545 -15
-478 0 -545 -2 -545 -15 0 -10 -10 -15 -30 -15 -25 0 -30 -4 -30 -25 0 -14 -4
-25 -10 -25 -5 0 -10 -7 -10 -15 0 -12 -14 -15 -70 -15 -56 0 -70 3 -70 15 0
8 -7 15 -15 15 -8 0 -15 5 -15 10 0 6 -7 10 -15 10 -12 0 -15 14 -15 70 0 56
3 70 15 70 8 0 15 7 15 15 0 10 10 15 30 15 17 0 30 5 30 10 0 6 18 10 40 10
22 0 40 -4 40 -10z m-5340 -215 c0 -9 9 -15 25 -15 24 0 25 -3 25 -55 0 -30
-4 -55 -10 -55 -5 0 -10 -7 -10 -15 0 -11 -11 -15 -40 -15 -29 0 -40 4 -40 15
0 10 -10 15 -30 15 -20 0 -30 5 -30 15 0 13 -57 15 -450 15 -293 0 -450 3
-450 10 0 6 5 10 10 10 6 0 10 7 10 15 0 8 7 15 15 15 8 0 15 -7 15 -15 0 -13
52 -15 410 -15 358 0 410 2 410 15 0 10 10 15 30 15 20 0 30 5 30 15 0 9 9 15
25 15 16 0 25 6 25 15 0 8 7 15 15 15 8 0 15 -7 15 -15z m6160 -140 c0 -11 11
-15 40 -15 29 0 40 -4 40 -15 0 -13 22 -15 135 -15 83 0 135 -4 135 -10 0 -5
-4 -10 -10 -10 -5 0 -10 -7 -10 -15 0 -13 -23 -15 -150 -15 -127 0 -150 -2
-150 -15 0 -10 -10 -15 -30 -15 -20 0 -30 -5 -30 -15 0 -8 -4 -15 -10 -15 -5
0 -10 7 -10 15 0 10 -10 15 -30 15 -30 0 -30 1 -30 55 0 42 3 55 15 55 8 0 15
7 15 15 0 11 11 15 40 15 29 0 40 -4 40 -15z m-5090 -30 c0 -8 7 -15 15 -15
12 0 15 -13 15 -55 0 -42 -3 -55 -15 -55 -8 0 -15 -4 -15 -10 0 -5 -18 -10
-40 -10 -22 0 -40 5 -40 10 0 6 -20 10 -45 10 -33 0 -45 4 -45 15 0 13 -116
15 -985 15 -869 0 -985 2 -985 15 0 13 118 15 1000 15 882 0 1000 2 1000 15 0
8 7 15 15 15 8 0 15 5 15 10 0 6 7 10 15 10 8 0 15 7 15 15 0 11 11 15 40 15
29 0 40 -4 40 -15z m4270 -160 c0 -8 7 -15 15 -15 8 0 15 -6 15 -14 0 -12 31
-15 172 -18 126 -2 172 -6 176 -15 5 -18 32 -16 32 2 0 12 53 14 370 15 l370
0 0 -40 c0 -38 -2 -40 -30 -40 -20 0 -30 5 -30 15 0 13 -67 15 -540 15 -471 0
-541 -2 -546 -15 -4 -8 -12 -15 -20 -15 -8 0 -14 -7 -14 -15 0 -9 -9 -15 -25
-15 -16 0 -25 6 -25 15 0 8 -7 15 -15 15 -8 0 -15 7 -15 15 0 8 -7 15 -15 15
-9 0 -15 9 -15 25 0 16 6 25 15 25 10 0 15 10 15 30 0 30 1 30 55 30 42 0 55
-3 55 -15z m-4270 -190 c0 -8 7 -15 15 -15 12 0 15 -13 15 -55 0 -54 0 -55
-30 -55 -20 0 -30 -5 -30 -15 0 -9 -9 -15 -25 -15 -16 0 -25 6 -25 15 0 8 -7
15 -15 15 -8 0 -15 7 -15 15 0 10 -10 15 -30 15 -16 0 -30 5 -30 10 0 7 -238
10 -695 10 -611 0 -695 2 -695 15 0 12 -16 15 -85 15 -69 0 -85 -3 -85 -15 0
-13 -31 -15 -220 -15 -140 0 -220 -4 -220 -10 0 -5 -11 -10 -25 -10 -16 0 -25
-6 -25 -15 0 -8 -7 -15 -15 -15 -8 0 -15 -7 -15 -15 0 -8 -4 -15 -10 -15 -5 0
-10 14 -10 30 0 17 5 30 10 30 6 0 10 18 10 40 0 38 2 40 30 40 20 0 30 -5 30
-15 0 -9 9 -15 25 -15 16 0 25 6 25 15 0 13 78 15 645 15 567 0 645 -2 645
-15 0 -13 44 -15 340 -15 296 0 340 2 340 15 0 11 12 15 45 15 33 0 45 4 45
15 0 11 11 15 40 15 29 0 40 -4 40 -15z m4240 0 c0 -10 10 -15 30 -15 26 0 30
-4 30 -26 0 -56 -15 -54 544 -54 452 0 516 -2 516 -15 0 -13 -53 -15 -419 -15
-327 0 -420 -3 -423 -12 -3 -9 -35 -14 -101 -16 -54 -2 -97 -8 -97 -14 0 -13
-26 -38 -39 -38 -6 0 -11 -7 -11 -15 0 -12 -14 -15 -70 -15 -56 0 -70 3 -70
15 0 8 -5 15 -11 15 -24 0 -39 30 -39 79 0 28 5 51 10 51 6 0 10 14 10 30 0
27 3 30 30 30 20 0 30 5 30 15 0 11 11 15 40 15 29 0 40 -4 40 -15z m-4240
-250 c0 -8 7 -15 15 -15 12 0 15 -13 15 -55 0 -42 -3 -55 -15 -55 -8 0 -15 -7
-15 -15 0 -11 -11 -15 -40 -15 -29 0 -40 4 -40 15 0 8 -7 15 -15 15 -8 0 -15
7 -15 15 0 13 -54 15 -425 15 -371 0 -425 -2 -425 -15 0 -8 -7 -15 -15 -15 -8
0 -15 -7 -15 -15 0 -8 -5 -15 -11 -15 -14 0 -39 -25 -39 -39 0 -6 -7 -11 -15
-11 -8 0 -15 -7 -15 -15 0 -8 -5 -15 -11 -15 -14 0 -39 -25 -39 -39 0 -6 -7
-11 -15 -11 -8 0 -15 -7 -15 -15 0 -8 -7 -15 -15 -15 -8 0 -15 -7 -15 -15 0
-8 -5 -15 -11 -15 -14 0 -39 -25 -39 -39 0 -6 -7 -11 -15 -11 -8 0 -15 -7 -15
-15 0 -8 -7 -15 -15 -15 -8 0 -15 -7 -15 -15 0 -8 -7 -15 -15 -15 -9 0 -15 -9
-15 -25 0 -14 -4 -25 -10 -25 -7 0 -10 -148 -10 -425 0 -371 -2 -425 -15 -425
-8 0 -15 -7 -15 -15 0 -13 -72 -15 -590 -15 l-590 0 0 30 0 30 575 0 c377 0
575 3 575 10 0 6 7 10 15 10 13 0 15 54 15 425 0 371 2 425 15 425 8 0 15 7
15 15 0 8 5 15 10 15 6 0 10 7 10 15 0 8 7 15 15 15 8 0 15 7 15 15 0 8 7 15
15 15 8 0 15 5 15 10 0 6 7 10 15 10 8 0 15 7 15 15 0 8 5 15 10 15 6 0 10 7
10 15 0 8 7 15 15 15 8 0 15 7 15 15 0 8 7 15 15 15 8 0 15 5 15 10 0 6 7 10
15 10 8 0 15 7 15 15 0 8 5 15 10 15 6 0 10 7 10 15 0 8 7 15 15 15 8 0 15 5
15 10 0 6 7 10 15 10 8 0 15 7 15 15 0 8 5 15 10 15 6 0 10 7 10 15 0 8 7 15
15 15 8 0 15 7 15 15 0 8 7 15 15 15 8 0 15 5 15 10 0 7 143 10 410 10 358 0
410 2 410 15 0 10 10 15 30 15 20 0 30 5 30 15 0 11 11 15 40 15 29 0 40 -4
40 -15z m-1780 -70 c0 -16 6 -25 15 -25 13 0 15 -52 15 -410 0 -267 3 -410 10
-410 6 0 10 -7 10 -15 0 -8 7 -15 15 -15 8 0 15 -7 15 -15 0 -8 7 -15 15 -15
9 0 15 -9 15 -25 0 -16 -6 -25 -15 -25 -10 0 -15 -10 -15 -30 0 -30 -1 -30
-55 -30 -42 0 -55 3 -55 15 0 8 -7 15 -15 15 -11 0 -15 11 -15 40 0 29 4 40
15 40 13 0 15 56 15 440 0 384 -2 440 -15 440 -8 0 -15 7 -15 15 0 12 -19 15
-110 15 -91 0 -110 -3 -110 -15 0 -9 -9 -15 -25 -15 -16 0 -25 -6 -25 -15 0
-8 -7 -15 -15 -15 -8 0 -15 -7 -15 -15 0 -8 -5 -15 -11 -15 -6 0 -17 -6 -25
-14 -8 -8 -14 -19 -14 -25 0 -6 -7 -11 -15 -11 -8 0 -15 -7 -15 -15 0 -8 -5
-15 -11 -15 -6 0 -17 -6 -25 -14 -8 -8 -14 -19 -14 -25 0 -6 -7 -11 -15 -11
-8 0 -15 -7 -15 -15 0 -8 -7 -15 -15 -15 -8 0 -15 -7 -15 -15 0 -8 -5 -15 -11
-15 -6 0 -17 -6 -25 -14 -8 -8 -14 -19 -14 -25 0 -6 -7 -11 -15 -11 -9 0 -15
9 -15 25 0 16 6 25 15 25 10 0 15 10 15 30 0 17 5 30 10 30 6 0 10 7 10 15 0
10 10 15 30 15 17 0 30 5 30 10 0 6 7 10 15 10 8 0 15 7 15 15 0 8 5 15 10 15
6 0 10 7 10 15 0 8 7 15 15 15 8 0 15 5 15 10 0 6 7 10 15 10 8 0 15 7 15 15
0 8 5 15 10 15 6 0 10 7 10 15 0 8 7 15 15 15 8 0 15 7 15 15 0 8 7 15 15 15
8 0 15 5 15 10 0 6 62 10 165 10 l165 0 0 -25z m1780 -200 c0 -8 7 -15 15 -15
12 0 15 -13 15 -55 0 -42 -3 -55 -15 -55 -8 0 -15 -7 -15 -15 0 -11 -11 -15
-40 -15 -29 0 -40 4 -40 15 0 8 -7 15 -15 15 -8 0 -15 6 -15 13 0 29 -53 37
-262 37 -132 0 -208 -4 -208 -10 0 -5 -11 -10 -25 -10 -16 0 -25 -6 -25 -15 0
-8 -7 -15 -15 -15 -8 0 -15 -7 -15 -15 0 -8 -7 -15 -15 -15 -8 0 -15 -5 -15
-11 0 -6 -6 -17 -14 -25 -8 -8 -19 -14 -25 -14 -6 0 -11 -7 -11 -15 0 -8 -7
-15 -15 -15 -8 0 -15 -7 -15 -15 0 -8 -7 -15 -15 -15 -8 0 -15 -5 -15 -11 0
-14 -25 -39 -39 -39 -6 0 -11 -7 -11 -15 0 -8 -7 -15 -15 -15 -8 0 -15 -7 -15
-15 0 -8 -7 -15 -15 -15 -8 0 -15 -5 -15 -11 0 -14 -25 -39 -39 -39 -6 0 -11
-7 -11 -15 0 -8 -7 -15 -15 -15 -13 0 -15 -58 -15 -465 0 -407 2 -465 15 -465
10 0 15 -10 15 -30 0 -20 5 -30 15 -30 11 0 15 -11 15 -40 0 -29 -4 -40 -15
-40 -8 0 -15 -7 -15 -15 0 -12 -13 -15 -55 -15 -42 0 -55 3 -55 15 0 8 -7 15
-15 15 -11 0 -15 11 -15 40 0 29 4 40 15 40 8 0 15 7 15 15 0 8 7 15 15 15 13
0 15 58 15 465 0 303 3 465 10 465 6 0 10 14 10 30 0 20 5 30 15 30 8 0 15 5
15 10 0 6 7 10 15 10 8 0 15 7 15 15 0 8 7 15 15 15 8 0 15 7 15 15 0 8 5 15
10 15 6 0 10 7 10 15 0 8 7 15 15 15 8 0 15 5 15 10 0 6 7 10 15 10 8 0 15 7
15 15 0 8 7 15 15 15 8 0 15 7 15 15 0 8 5 15 10 15 6 0 10 7 10 15 0 8 7 15
15 15 8 0 15 5 15 10 0 6 7 10 15 10 8 0 15 7 15 15 0 8 7 15 15 15 8 0 15 7
15 15 0 8 5 15 10 15 6 0 10 7 10 15 0 8 7 15 15 15 8 0 15 5 15 10 0 6 7 10
15 10 8 0 15 7 15 15 0 13 34 15 245 15 211 0 245 2 245 15 0 10 10 15 30 15
20 0 30 5 30 15 0 11 11 15 40 15 29 0 40 -4 40 -15z m4270 -30 c0 -8 7 -15
15 -15 8 0 15 -7 15 -15 0 -13 59 -15 475 -15 l475 0 0 -40 c0 -22 -4 -40 -10
-40 -5 0 -10 7 -10 15 0 13 -57 15 -455 15 -398 0 -455 -2 -455 -15 0 -9 -9
-15 -25 -15 -16 0 -25 -6 -25 -15 0 -11 -11 -15 -40 -15 -29 0 -40 4 -40 15 0
8 -7 15 -15 15 -8 0 -15 7 -15 15 0 8 -7 15 -15 15 -9 0 -15 9 -15 25 0 16 6
25 15 25 8 0 15 7 15 15 0 8 7 15 15 15 8 0 15 7 15 15 0 11 11 15 40 15 29 0
40 -4 40 -15z m-30 -275 c0 -5 7 -10 15 -10 8 0 15 -7 15 -15 0 -9 9 -15 25
-15 16 0 25 -6 25 -15 0 -13 54 -15 425 -16 478 -2 444 -1 448 -14 1 -7 -150
-11 -435 -13 -281 -1 -438 -6 -438 -12 0 -6 -11 -10 -25 -10 -16 0 -25 -6 -25
-15 0 -12 -13 -15 -55 -15 -52 0 -55 1 -55 25 0 16 -6 25 -15 25 -10 0 -15 10
-15 30 0 20 5 30 15 30 8 0 15 7 15 15 0 9 9 15 25 15 14 0 25 5 25 10 0 6 7
10 15 10 8 0 15 -4 15 -10z m-4270 -55 c0 -8 7 -15 15 -15 11 0 15 -11 15 -40
l0 -40 -55 0 c-42 0 -55 3 -55 15 0 12 -19 15 -110 15 -91 0 -110 -3 -110 -15
0 -10 -10 -15 -30 -15 -20 0 -30 -5 -30 -15 0 -9 -9 -15 -25 -15 -14 0 -25 -4
-25 -10 0 -5 -7 -10 -15 -10 -8 0 -15 -7 -15 -15 0 -8 -7 -15 -15 -15 -8 0
-15 -7 -15 -15 0 -8 -4 -15 -10 -15 -5 0 -10 -7 -10 -15 0 -8 -7 -15 -15 -15
-8 0 -15 -4 -15 -10 0 -5 -7 -10 -15 -10 -8 0 -15 -7 -15 -15 0 -8 -4 -15 -10
-15 -5 0 -10 -7 -10 -15 0 -8 -7 -15 -15 -15 -8 0 -15 -7 -15 -15 0 -8 -7 -15
-15 -15 -8 0 -15 -4 -15 -10 0 -5 -7 -10 -15 -10 -8 0 -15 -7 -15 -15 0 -8 -4
-15 -10 -15 -5 0 -10 -7 -10 -15 0 -8 -7 -15 -15 -15 -8 0 -15 -7 -15 -15 0
-8 -7 -15 -15 -15 -8 0 -15 -4 -15 -10 0 -5 -7 -10 -15 -10 -8 0 -15 -7 -15
-15 0 -8 -4 -15 -10 -15 -5 0 -10 -7 -10 -15 0 -8 -7 -15 -15 -15 -13 0 -15
-52 -15 -410 0 -358 -2 -410 -15 -410 -8 0 -15 -7 -15 -15 0 -13 -101 -15
-850 -15 l-850 0 0 30 0 30 835 0 835 0 0 395 c0 344 2 395 15 395 8 0 15 7
15 15 0 8 7 15 15 15 8 0 15 7 15 15 0 8 5 15 11 15 14 0 39 25 39 39 0 6 7
11 15 11 8 0 15 7 15 15 0 8 7 15 15 15 8 0 15 7 15 15 0 8 5 15 11 15 6 0 17
6 25 14 8 8 14 19 14 25 0 6 7 11 15 11 8 0 15 7 15 15 0 8 7 15 15 15 8 0 15
7 15 15 0 8 5 15 11 15 14 0 39 25 39 39 0 6 7 11 15 11 8 0 15 7 15 15 0 8 7
15 15 15 8 0 15 5 15 11 0 6 6 17 14 25 8 8 19 14 25 14 6 0 11 7 11 15 0 8 7
15 15 15 8 0 15 7 15 15 0 8 5 15 11 15 6 0 17 6 25 14 8 8 14 19 14 25 0 7
54 11 165 11 140 0 165 2 165 15 0 8 7 15 15 15 8 0 15 -7 15 -15z m4300 -300
c0 -8 7 -15 15 -15 8 0 15 -5 15 -11 0 -6 6 -17 14 -25 8 -8 19 -14 25 -14 6
0 11 -7 11 -15 0 -13 29 -15 205 -15 176 0 205 -2 205 -15 0 -10 10 -15 30
-15 20 0 30 -5 30 -15 0 -9 9 -15 25 -15 14 0 25 -4 25 -10 0 -5 7 -10 15 -10
10 0 15 -10 15 -30 0 -20 5 -30 15 -30 8 0 15 -5 15 -11 0 -14 25 -39 39 -39
6 0 11 -13 11 -30 0 -20 -5 -30 -15 -30 -8 0 -15 7 -15 15 0 8 -4 15 -10 15
-5 0 -10 7 -10 15 0 8 -7 15 -15 15 -8 0 -15 5 -15 10 0 6 -7 10 -15 10 -8 0
-15 7 -15 15 0 8 -7 15 -15 15 -8 0 -15 7 -15 15 0 8 -4 15 -10 15 -5 0 -10 7
-10 15 0 10 -10 15 -30 15 -16 0 -30 5 -30 10 0 6 -11 10 -25 10 -16 0 -25 6
-25 15 0 13 -27 15 -180 15 -153 0 -180 -2 -180 -15 0 -9 -9 -15 -25 -15 -14
0 -25 -4 -25 -10 0 -5 -7 -10 -15 -10 -8 0 -15 -6 -15 -13 0 -7 -15 -19 -32
-27 -18 -7 -36 -15 -40 -18 -5 -2 -8 3 -8 12 0 11 -9 16 -30 16 -20 0 -30 5
-30 15 0 8 -5 15 -11 15 -24 0 -39 30 -39 79 0 28 5 51 10 51 6 0 10 7 10 15
0 8 7 15 15 15 8 0 15 7 15 15 0 12 14 15 70 15 56 0 70 -3 70 -15z m-6440
-70 c0 -16 6 -25 15 -25 8 0 15 -7 15 -15 0 -8 -7 -15 -15 -15 -9 0 -15 -9
-15 -25 0 -23 -3 -25 -50 -25 -27 0 -50 5 -50 10 0 6 -7 10 -15 10 -11 0 -15
12 -15 45 0 33 4 45 15 45 8 0 15 5 15 10 0 6 23 10 50 10 47 0 50 -2 50 -25z
m6740 -180 c0 -9 9 -15 25 -15 14 0 25 -4 25 -10 0 -6 40 -10 100 -10 82 0
100 -3 100 -15 0 -8 5 -15 10 -15 6 0 10 -7 10 -15 0 -8 7 -15 15 -15 8 0 15
-7 15 -15 0 -8 7 -15 15 -15 8 0 15 -4 15 -10 0 -5 7 -10 15 -10 8 0 15 -7 15
-15 0 -8 5 -15 10 -15 15 0 12 -19 -4 -36 -22 -21 -36 -17 -36 11 0 16 -6 25
-15 25 -8 0 -15 7 -15 15 0 8 -7 15 -15 15 -8 0 -15 5 -15 10 0 6 -11 10 -25
10 -16 0 -25 6 -25 15 0 12 -14 15 -70 15 -56 0 -70 -3 -70 -15 0 -9 -9 -15
-25 -15 -14 0 -25 -4 -25 -10 0 -5 -25 -10 -55 -10 -52 0 -55 1 -55 25 0 16
-6 25 -15 25 -10 0 -15 10 -15 30 0 20 5 30 15 30 8 0 15 5 15 10 0 6 7 10 15
10 8 0 15 7 15 15 0 9 9 15 25 15 16 0 25 -6 25 -15z m-4540 -240 c0 -8 5 -15
10 -15 6 0 10 -7 10 -15 0 -8 7 -15 15 -15 12 0 15 -14 15 -70 0 -56 -3 -70
-15 -70 -8 0 -15 -4 -15 -10 0 -6 -28 -10 -65 -10 -51 0 -65 -3 -65 -15 0 -10
-10 -15 -30 -15 -20 0 -30 -5 -30 -15 0 -8 -7 -15 -15 -15 -8 0 -15 -5 -15
-11 0 -6 -6 -17 -14 -25 -8 -8 -19 -14 -25 -14 -6 0 -11 -7 -11 -15 0 -8 -7
-15 -15 -15 -8 0 -15 -7 -15 -15 0 -8 -7 -15 -15 -15 -8 0 -15 -5 -15 -11 0
-6 -6 -17 -14 -25 -8 -8 -19 -14 -25 -14 -6 0 -11 -7 -11 -15 0 -8 -7 -15 -15
-15 -8 0 -15 -7 -15 -15 0 -8 -5 -15 -11 -15 -14 0 -39 -25 -39 -39 0 -6 -7
-11 -15 -11 -8 0 -15 -7 -15 -15 0 -10 -10 -15 -30 -15 -25 0 -30 -4 -30 -25
0 -14 -4 -25 -10 -25 -5 0 -10 -7 -10 -15 0 -8 -7 -15 -15 -15 -8 0 -15 -7
-15 -15 0 -8 -7 -15 -15 -15 -8 0 -15 -5 -15 -11 0 -14 -25 -39 -39 -39 -6 0
-11 -7 -11 -15 0 -8 -7 -15 -15 -15 -8 0 -15 -7 -15 -15 0 -8 -7 -15 -15 -15
-8 0 -15 -5 -15 -11 0 -14 -25 -39 -39 -39 -6 0 -11 -7 -11 -15 0 -13 -107
-15 -905 -15 l-905 0 0 25 c0 16 6 25 15 25 8 0 15 -4 15 -10 0 -7 290 -10
850 -10 560 0 850 3 850 10 0 6 18 10 40 10 29 0 40 4 40 15 0 8 7 15 15 15 8
0 15 7 15 15 0 8 5 15 10 15 6 0 10 7 10 15 0 8 7 15 15 15 8 0 15 5 15 10 0
6 7 10 15 10 8 0 15 7 15 15 0 8 7 15 15 15 8 0 15 7 15 15 0 8 5 15 10 15 6
0 10 7 10 15 0 8 7 15 15 15 8 0 15 5 15 10 0 6 7 10 15 10 8 0 15 7 15 15 0
8 5 15 10 15 6 0 10 7 10 15 0 8 7 15 15 15 8 0 15 7 15 15 0 8 7 15 15 15 8
0 15 5 15 10 0 6 7 10 15 10 8 0 15 7 15 15 0 8 5 15 10 15 6 0 10 7 10 15 0
8 7 15 15 15 8 0 15 5 15 10 0 6 7 10 15 10 8 0 15 7 15 15 0 8 7 15 15 15 8
0 15 7 15 15 0 8 5 15 10 15 6 0 10 7 10 15 0 8 7 15 15 15 8 0 15 5 15 10 0
6 7 10 15 10 8 0 15 7 15 15 0 8 7 15 15 15 8 0 15 7 15 15 0 8 5 15 10 15 6
0 10 11 10 25 0 16 6 25 15 25 11 0 15 12 15 45 0 33 -4 45 -15 45 -8 0 -15 5
-15 10 0 6 7 10 15 10 10 0 15 10 15 30 0 20 5 30 15 30 8 0 15 7 15 15 0 12
14 15 70 15 56 0 70 -3 70 -15z m3770 -195 c0 -5 14 -10 30 -10 29 0 30 -2 30
-45 0 -33 4 -45 15 -45 9 0 15 -9 15 -25 0 -14 5 -25 10 -25 6 0 10 -7 10 -15
0 -8 7 -15 15 -15 8 0 15 -7 15 -15 0 -8 7 -15 15 -15 8 0 15 -4 15 -10 0 -5
7 -10 15 -10 8 0 15 -7 15 -15 0 -8 5 -15 10 -15 6 0 10 -7 10 -15 0 -8 7 -15
15 -15 8 0 15 -4 15 -10 0 -5 7 -10 15 -10 8 0 15 -7 15 -15 0 -8 5 -15 10
-15 6 0 10 -7 10 -15 0 -8 7 -15 15 -15 8 0 15 -7 15 -15 0 -8 7 -15 15 -15 8
0 15 -4 15 -10 0 -5 7 -10 15 -10 8 0 15 -7 15 -15 0 -8 5 -15 10 -15 6 0 10
-7 10 -15 0 -8 7 -15 15 -15 8 0 15 -7 15 -15 0 -8 7 -15 15 -15 8 0 15 -4 15
-10 0 -5 7 -10 15 -10 8 0 15 -7 15 -15 0 -8 5 -15 10 -15 6 0 10 -7 10 -15 0
-8 7 -15 15 -15 8 0 15 -7 15 -15 0 -8 7 -15 15 -15 8 0 15 -4 15 -10 0 -5 7
-10 15 -10 10 0 15 -10 15 -30 0 -16 5 -30 10 -30 6 0 10 -18 10 -40 0 -22 -4
-40 -10 -40 -5 0 -10 -7 -10 -15 0 -8 -7 -15 -15 -15 -12 0 -15 13 -15 55 0
42 -3 55 -15 55 -8 0 -15 7 -15 15 0 8 -7 15 -15 15 -9 0 -15 9 -15 25 0 14
-4 25 -10 25 -5 0 -10 7 -10 15 0 10 -10 15 -30 15 -20 0 -30 5 -30 15 0 8 -7
15 -15 15 -8 0 -15 5 -15 11 0 6 -6 17 -14 25 -8 8 -19 14 -25 14 -6 0 -11 7
-11 15 0 8 -7 15 -15 15 -8 0 -15 7 -15 15 0 8 -7 15 -15 15 -8 0 -15 5 -15
11 0 14 -25 39 -39 39 -6 0 -11 7 -11 15 0 8 -7 15 -15 15 -8 0 -15 7 -15 15
0 8 -4 15 -10 15 -5 0 -10 7 -10 15 0 8 -7 15 -15 15 -8 0 -15 5 -15 10 0 6
-7 10 -15 10 -8 0 -15 7 -15 15 0 8 -7 15 -15 15 -8 0 -15 5 -15 11 0 6 -6 17
-14 25 -8 8 -19 14 -25 14 -6 0 -11 7 -11 15 0 8 -7 15 -15 15 -8 0 -15 7 -15
15 0 12 -13 15 -55 15 -51 0 -55 2 -55 24 0 13 -7 26 -15 30 -8 3 -15 10 -15
16 0 5 7 10 15 10 10 0 15 10 15 30 0 27 3 30 30 30 17 0 30 5 30 10 0 6 5 10
10 10 6 0 10 -4 10 -10z m-2710 -25 c0 -10 10 -15 30 -15 30 0 30 -1 30 -55 0
-42 -3 -55 -15 -55 -8 0 -15 -7 -15 -15 0 -9 -9 -15 -25 -15 -16 0 -25 -6 -25
-15 0 -10 -10 -15 -30 -15 -16 0 -30 -4 -30 -10 0 -5 -7 -10 -15 -10 -8 0 -15
-7 -15 -15 0 -8 -4 -15 -10 -15 -5 0 -10 -7 -10 -15 0 -8 -7 -15 -15 -15 -8 0
-15 -4 -15 -10 0 -5 -7 -10 -15 -10 -8 0 -15 -7 -15 -15 0 -8 -7 -15 -15 -15
-8 0 -15 -7 -15 -15 0 -8 -4 -15 -10 -15 -5 0 -10 -7 -10 -15 0 -8 -7 -15 -15
-15 -8 0 -15 -4 -15 -10 0 -5 -7 -10 -15 -10 -8 0 -15 -7 -15 -15 0 -8 -7 -15
-15 -15 -8 0 -15 -7 -15 -15 0 -8 -4 -15 -10 -15 -5 0 -10 -7 -10 -15 0 -8 -7
-15 -15 -15 -8 0 -15 -4 -15 -10 0 -5 -7 -10 -15 -10 -8 0 -15 -7 -15 -15 0
-8 -9 -15 -20 -15 -15 0 -22 -9 -26 -30 -4 -16 -13 -30 -20 -30 -8 0 -14 -4
-14 -10 0 -5 -11 -10 -25 -10 -16 0 -25 -6 -25 -15 0 -8 -7 -15 -15 -15 -10 0
-15 -10 -15 -30 0 -20 -5 -30 -15 -30 -9 0 -15 -9 -15 -25 0 -16 -6 -25 -15
-25 -12 0 -15 -13 -15 -55 0 -30 -4 -55 -10 -55 -5 0 -10 -18 -10 -40 0 -22 5
-40 11 -40 7 0 8 -60 4 -192 -7 -225 -7 -291 0 -905 4 -314 2 -463 -5 -463 -5
0 -10 -7 -10 -15 0 -8 5 -15 10 -15 6 0 10 -25 10 -55 0 -42 3 -55 15 -55 9 0
15 -9 15 -25 0 -16 6 -25 15 -25 8 0 15 -7 15 -15 0 -8 7 -15 15 -15 8 0 15
-7 15 -15 0 -8 5 -15 10 -15 6 0 10 -7 10 -15 0 -8 7 -15 15 -15 8 0 15 -4 15
-10 0 -5 7 -10 15 -10 8 0 15 -7 15 -15 0 -8 5 -15 10 -15 6 0 10 -7 10 -15 0
-8 7 -15 15 -15 8 0 15 -7 15 -15 0 -8 7 -15 15 -15 8 0 15 -4 15 -10 0 -5 7
-10 15 -10 8 0 15 -7 15 -15 0 -8 5 -15 10 -15 6 0 10 -7 10 -15 0 -8 7 -15
15 -15 8 0 15 -7 15 -15 0 -8 7 -15 15 -15 8 0 15 -4 15 -10 0 -5 7 -10 15
-10 8 0 15 -7 15 -15 0 -8 5 -15 10 -15 6 0 10 -7 10 -15 0 -8 7 -15 15 -15 8
0 15 -4 15 -10 0 -5 7 -10 15 -10 8 0 15 -7 15 -15 0 -8 6 -15 13 -15 28 0 37
-84 39 -358 l3 -272 -28 0 -28 0 2 135 c1 108 4 135 15 135 11 0 14 20 14 95
0 78 -3 95 -15 95 -11 0 -15 12 -15 45 0 33 -4 45 -15 45 -9 0 -15 9 -15 25 0
16 -6 25 -15 25 -9 0 -15 10 -15 26 0 26 -20 54 -39 54 -6 0 -11 7 -11 15 0 8
-7 15 -15 15 -8 0 -15 7 -15 15 0 8 -7 15 -15 15 -8 0 -15 5 -15 10 0 6 -11
10 -25 10 -16 0 -25 6 -25 15 0 8 -7 15 -15 15 -8 0 -15 7 -15 15 0 8 -7 15
-15 15 -8 0 -15 5 -15 11 0 14 -25 39 -39 39 -6 0 -11 7 -11 15 0 8 -7 15 -15
15 -8 0 -15 7 -15 15 0 8 -4 15 -10 15 -5 0 -10 7 -10 15 0 8 -7 15 -15 15 -8
0 -15 5 -15 10 0 6 -7 10 -15 10 -8 0 -15 7 -15 15 0 8 -6 15 -12 15 -13 0
-38 44 -38 67 0 7 -7 13 -15 13 -13 0 -15 115 -15 975 0 860 2 975 15 975 9 0
15 9 15 25 0 14 5 25 10 25 6 0 10 7 10 15 0 8 7 15 15 15 8 0 15 7 15 15 0 9
10 15 26 15 26 0 54 20 54 39 0 6 7 11 15 11 8 0 15 7 15 15 0 8 7 15 15 15 8
0 15 5 15 11 0 6 6 17 14 25 8 8 19 14 25 14 6 0 11 7 11 15 0 8 7 15 15 15 8
0 15 7 15 15 0 8 7 15 15 15 8 0 15 5 15 12 0 6 11 26 25 44 14 18 25 37 25
43 0 6 7 11 15 11 8 0 15 7 15 15 0 8 5 15 11 15 6 0 17 6 25 14 8 8 14 19 14
25 0 6 7 11 15 11 8 0 15 7 15 15 0 8 7 15 15 15 8 0 15 5 15 10 0 6 7 10 15
10 8 0 15 7 15 15 0 8 5 15 10 15 6 0 10 25 10 55 0 42 3 55 15 55 8 0 15 7
15 15 0 10 10 15 30 15 20 0 30 5 30 15 0 8 5 15 10 15 6 0 10 -7 10 -15z
m280 0 c0 -9 10 -15 25 -15 24 0 25 -3 25 -55 0 -42 -3 -55 -15 -55 -8 0 -15
-7 -15 -15 0 -11 -11 -15 -40 -15 -29 0 -40 -4 -40 -15 0 -9 -9 -15 -25 -15
-14 0 -25 -4 -25 -10 0 -5 -5 -10 -11 -10 -6 0 -17 -7 -25 -15 -9 -8 -24 -15
-35 -15 -10 0 -19 -5 -19 -11 0 -6 -6 -17 -14 -25 -8 -8 -19 -14 -25 -14 -6 0
-11 -7 -11 -15 0 -8 -7 -15 -15 -15 -8 0 -15 -7 -15 -15 0 -8 -4 -15 -10 -15
-5 0 -10 -18 -10 -40 0 -29 -4 -40 -15 -40 -13 0 -15 -43 -15 -330 l0 -330 25
0 c16 0 25 -6 25 -15 0 -8 7 -15 15 -15 12 0 15 -14 15 -65 0 -51 -3 -65 -15
-65 -8 0 -15 -7 -15 -15 0 -12 -14 -15 -65 -15 -63 0 -65 1 -65 25 0 16 -6 25
-15 25 -11 0 -15 12 -15 45 0 31 4 45 13 45 8 0 19 11 25 25 6 14 18 25 27 25
13 0 15 44 15 355 0 309 2 355 15 355 8 0 15 7 15 15 0 8 7 15 15 15 8 0 15 7
15 15 0 8 5 15 10 15 6 0 10 7 10 15 0 8 7 15 15 15 8 0 15 5 15 10 0 6 7 10
15 10 8 0 15 7 15 15 0 8 5 15 10 15 6 0 10 7 10 15 0 8 7 15 15 15 9 0 15 9
15 25 0 16 6 25 15 25 8 0 15 7 15 15 0 8 7 15 15 15 11 0 15 11 15 40 0 22 5
40 10 40 6 0 10 7 10 15 0 8 6 15 14 15 8 0 16 6 19 13 7 18 57 20 57 2z m850
0 c0 -8 5 -15 10 -15 6 0 10 -7 10 -15 0 -8 7 -15 15 -15 11 0 15 -11 15 -40
0 -29 -4 -40 -15 -40 -8 0 -15 -7 -15 -15 0 -8 -4 -15 -10 -15 -7 0 -10 -280
-10 -820 0 -540 3 -820 10 -820 6 0 10 -13 10 -30 0 -20 5 -30 15 -30 8 0 15
-4 15 -10 0 -5 7 -10 15 -10 8 0 15 -7 15 -15 0 -8 5 -15 10 -15 6 0 10 -7 10
-15 0 -8 7 -15 15 -15 12 0 15 -16 15 -80 0 -64 -3 -80 -15 -80 -8 0 -15 -7
-15 -15 0 -8 -4 -15 -10 -15 -5 0 -10 -7 -10 -15 0 -8 -7 -15 -15 -15 -8 0
-15 -4 -15 -10 0 -6 -29 -10 -66 -10 -64 0 -94 13 -94 39 0 6 -7 11 -15 11 -8
0 -15 7 -15 15 0 8 -7 15 -15 15 -12 0 -15 16 -15 80 0 64 3 80 15 80 8 0 15
7 15 15 0 8 7 15 15 15 8 0 15 5 15 11 0 14 25 39 39 39 6 0 11 14 11 30 0 20
5 30 15 30 13 0 15 96 15 805 0 709 -2 805 -15 805 -8 0 -15 7 -15 15 0 8 -7
15 -15 15 -10 0 -15 10 -15 29 0 16 -6 32 -12 35 -10 5 -10 7 0 12 6 3 12 19
12 35 0 26 4 29 30 29 20 0 30 5 30 15 0 8 7 15 15 15 8 0 15 -7 15 -15z m840
0 c0 -8 7 -15 15 -15 8 0 15 -7 15 -15 0 -8 7 -15 15 -15 11 0 15 -11 15 -40
0 -29 -4 -40 -15 -40 -8 0 -15 -7 -15 -15 0 -8 -7 -15 -15 -15 -13 0 -15 -43
-15 -330 0 -287 2 -330 15 -330 9 0 15 -9 15 -25 0 -16 6 -25 15 -25 8 0 15
-7 15 -15 0 -8 5 -15 11 -15 14 0 39 -25 39 -39 0 -6 7 -11 15 -11 8 0 15 -7
15 -15 0 -8 7 -15 15 -15 8 0 15 -7 15 -15 0 -8 5 -15 11 -15 14 0 39 -25 39
-39 0 -6 7 -11 15 -11 8 0 15 -7 15 -15 0 -8 7 -15 15 -15 8 0 15 -7 15 -15 0
-8 5 -15 11 -15 14 0 39 -25 39 -39 0 -6 7 -11 15 -11 8 0 15 -7 15 -15 0 -8
7 -15 15 -15 8 0 15 -5 15 -11 0 -14 25 -39 39 -39 6 0 11 -7 11 -15 0 -8 7
-15 15 -15 8 0 15 -7 15 -15 0 -8 7 -15 15 -15 8 0 15 -6 15 -14 0 -8 5 -16
11 -18 6 -2 10 -68 9 -191 0 -160 2 -187 15 -187 12 0 15 -13 15 -55 0 -42 -3
-55 -15 -55 -8 0 -15 -7 -15 -15 0 -8 -4 -15 -10 -15 -6 0 -10 90 -10 250 0
216 -2 250 -15 250 -8 0 -15 5 -15 10 0 6 -7 10 -15 10 -8 0 -15 7 -15 15 0 8
-7 15 -15 15 -8 0 -15 7 -15 15 0 8 -4 15 -10 15 -5 0 -10 7 -10 15 0 8 -7 15
-15 15 -8 0 -15 5 -15 10 0 6 -7 10 -15 10 -8 0 -15 7 -15 15 0 8 -4 15 -10
15 -5 0 -10 7 -10 15 0 8 -7 15 -15 15 -8 0 -15 7 -15 15 0 8 -7 15 -15 15 -8
0 -15 5 -15 10 0 6 -7 10 -15 10 -8 0 -15 7 -15 15 0 8 -4 15 -10 15 -5 0 -10
7 -10 15 0 8 -7 15 -15 15 -8 0 -15 7 -15 15 0 8 -7 15 -15 15 -8 0 -15 5 -15
10 0 6 -7 10 -15 10 -8 0 -15 7 -15 15 0 8 -4 15 -10 15 -5 0 -10 7 -10 15 0
8 -7 15 -15 15 -8 0 -15 7 -15 15 0 8 -7 15 -15 15 -8 0 -15 5 -15 10 0 6 -7
10 -15 10 -8 0 -15 7 -15 15 0 8 -4 15 -10 15 -5 0 -10 11 -10 25 0 16 -6 25
-15 25 -13 0 -15 43 -15 330 0 287 -2 330 -15 330 -10 0 -15 10 -15 30 0 20
-5 30 -15 30 -8 0 -15 5 -15 10 0 6 7 10 15 10 10 0 15 10 15 30 0 27 3 30 30
30 20 0 30 5 30 15 0 8 5 15 10 15 6 0 10 -7 10 -15z m550 0 c0 -8 7 -15 15
-15 11 0 15 -11 15 -40 0 -29 4 -40 15 -40 8 0 15 -7 15 -15 0 -8 5 -15 10
-15 6 0 10 -13 10 -30 0 -20 5 -30 15 -30 8 0 15 -4 15 -10 0 -5 9 -10 20 -10
11 0 23 -7 26 -15 4 -8 12 -15 20 -15 8 0 13 -3 13 -7 -4 -25 3 -43 16 -43 8
0 15 -7 15 -15 0 -8 7 -15 15 -15 8 0 15 -7 15 -15 0 -8 7 -15 15 -15 8 0 15
-5 15 -11 0 -6 6 -17 14 -25 8 -8 19 -14 25 -14 6 0 11 -7 11 -15 0 -8 7 -15
15 -15 8 0 15 -7 15 -15 0 -8 7 -15 15 -15 8 0 15 -5 15 -11 0 -6 6 -17 14
-25 8 -8 19 -14 25 -14 6 0 11 -7 11 -15 0 -8 7 -15 15 -15 8 0 15 -7 15 -15
0 -8 5 -15 10 -15 6 0 10 -7 10 -15 0 -8 7 -15 15 -15 8 0 15 -4 15 -10 0 -5
7 -10 15 -10 8 0 15 -7 15 -15 0 -8 7 -15 15 -15 13 0 15 -29 16 -197 1 -109
1 -201 0 -205 0 -5 4 -8 9 -8 6 0 10 -7 10 -15 0 -8 -4 -15 -10 -15 -5 0 -10
-7 -10 -15 0 -8 -7 -15 -15 -15 -13 0 -15 29 -15 205 0 176 -2 205 -15 205
-10 0 -15 10 -15 30 0 20 -5 30 -15 30 -8 0 -15 5 -15 11 0 6 -6 17 -14 25 -8
8 -19 14 -25 14 -6 0 -11 7 -11 15 0 8 -7 15 -15 15 -8 0 -15 7 -15 15 0 8 -4
15 -10 15 -5 0 -10 7 -10 15 0 8 -7 15 -15 15 -8 0 -15 5 -15 10 0 6 -7 10
-15 10 -8 0 -15 7 -15 15 0 8 -7 15 -15 15 -8 0 -15 7 -15 15 0 8 -4 15 -10
15 -5 0 -10 7 -10 15 0 8 -7 15 -15 15 -8 0 -15 5 -15 10 0 6 -7 10 -15 10 -8
0 -15 7 -15 15 0 8 -7 15 -15 15 -8 0 -15 7 -15 15 0 8 -4 15 -10 15 -5 0 -10
7 -10 15 0 8 -7 15 -15 15 -8 0 -15 5 -15 10 0 6 -7 10 -15 10 -8 0 -15 7 -15
15 0 8 -7 15 -15 15 -8 0 -15 5 -15 11 0 6 -6 17 -14 25 -8 8 -19 14 -25 14
-6 0 -11 7 -11 15 0 10 -10 15 -30 15 -20 0 -30 5 -30 15 0 11 -11 15 -40 15
-29 0 -40 4 -40 15 0 8 -7 15 -15 15 -11 0 -15 11 -15 40 0 29 4 40 15 40 8 0
15 7 15 15 0 12 13 15 55 15 42 0 55 -3 55 -15z m-2710 -30 c0 -8 7 -15 15
-15 12 0 15 -13 15 -55 0 -42 -3 -55 -15 -55 -8 0 -15 -7 -15 -15 0 -12 -13
-15 -55 -15 -30 0 -55 -4 -55 -10 0 -5 -7 -10 -15 -10 -8 0 -15 -7 -15 -15 0
-8 -4 -15 -10 -15 -5 0 -10 -7 -10 -15 0 -8 -7 -15 -15 -15 -8 0 -15 -4 -15
-10 0 -5 -7 -10 -15 -10 -8 0 -15 -7 -15 -15 0 -8 -6 -15 -14 -15 -8 0 -16 -7
-20 -15 -3 -8 -12 -15 -20 -15 -7 0 -16 -7 -20 -15 -3 -8 -10 -15 -16 -15 -15
0 -40 -25 -40 -39 0 -6 -7 -11 -15 -11 -8 0 -15 -7 -15 -15 0 -8 -7 -15 -15
-15 -8 0 -15 -7 -15 -15 0 -8 -5 -15 -11 -15 -6 0 -17 -6 -25 -14 -8 -8 -14
-19 -14 -25 0 -6 -7 -11 -15 -11 -8 0 -15 -4 -15 -10 0 -5 -9 -19 -20 -30 -11
-11 -24 -20 -30 -20 -5 0 -10 -11 -10 -25 0 -20 -5 -25 -25 -25 -16 0 -25 -6
-25 -15 0 -8 -7 -15 -15 -15 -9 0 -15 -9 -15 -25 0 -16 -6 -25 -15 -25 -10 0
-15 -10 -15 -30 0 -16 -4 -30 -10 -30 -7 0 -10 -317 -10 -930 0 -613 3 -930
10 -930 6 0 10 -7 10 -15 0 -8 7 -15 15 -15 8 0 15 -4 15 -10 0 -5 7 -10 15
-10 8 0 15 -7 15 -15 0 -8 7 -15 15 -15 8 0 15 -7 15 -15 0 -8 5 -15 10 -15 6
0 10 -7 10 -15 0 -8 7 -15 15 -15 8 0 15 -4 15 -10 0 -5 7 -10 15 -10 8 0 15
-7 15 -15 0 -8 7 -15 15 -15 8 0 15 -7 15 -15 0 -8 5 -15 10 -15 6 0 10 -7 10
-15 0 -8 7 -15 15 -15 8 0 15 -4 15 -10 0 -5 7 -10 15 -10 8 0 15 -7 15 -15 0
-8 7 -15 15 -15 8 0 15 -7 15 -15 0 -8 5 -15 10 -15 6 0 10 -7 10 -15 0 -8 7
-15 15 -15 8 0 15 -4 15 -10 0 -5 7 -10 15 -10 8 0 15 -7 15 -15 0 -8 5 -15
10 -15 6 0 10 -7 10 -15 0 -8 7 -15 15 -15 8 0 15 -4 15 -10 0 -5 7 -10 15
-10 8 0 15 -7 15 -15 0 -8 6 -15 14 -15 22 0 27 -68 32 -388 4 -248 3 -295
-10 -307 -34 -35 -36 -20 -36 310 0 282 -2 325 -15 325 -8 0 -15 8 -15 19 0
10 -7 24 -15 31 -8 7 -15 18 -15 24 0 6 -13 17 -29 24 -17 7 -36 26 -42 42 -9
19 -26 32 -51 41 -21 7 -38 18 -38 26 0 7 -7 13 -15 13 -8 0 -15 7 -15 15 0 8
-4 15 -10 15 -5 0 -10 7 -10 15 0 8 -7 15 -15 15 -8 0 -15 5 -15 10 0 6 -7 10
-15 10 -8 0 -15 7 -15 15 0 8 -7 15 -15 15 -8 0 -15 7 -15 15 0 8 -4 15 -10
15 -5 0 -10 7 -10 15 0 8 -7 15 -15 15 -8 0 -15 5 -15 10 0 6 -7 10 -15 10
-10 0 -15 10 -15 30 0 25 -4 30 -25 30 -16 0 -25 6 -25 15 0 8 -7 15 -15 15
-13 0 -15 106 -15 890 0 784 -2 890 -15 890 -12 0 -15 14 -15 65 0 51 3 65 15
65 11 0 15 11 15 40 0 29 4 40 15 40 8 0 15 7 15 15 0 8 4 15 9 15 5 0 11 14
15 30 4 24 11 30 31 30 14 0 25 5 25 10 0 6 7 10 15 10 8 0 15 7 15 15 0 8 5
15 10 15 6 0 10 7 10 15 0 8 7 15 15 15 8 0 15 7 15 15 0 8 7 15 15 15 8 0 15
5 15 10 0 6 7 10 15 10 8 0 15 7 15 15 0 8 5 15 10 15 6 0 10 7 10 15 0 8 7
15 15 15 8 0 15 7 15 15 0 8 7 15 15 15 8 0 15 5 15 10 0 6 7 10 15 10 8 0 15
7 15 15 0 8 5 15 10 15 6 0 10 7 10 15 0 8 7 15 15 15 8 0 15 7 15 15 0 8 5
15 11 15 6 0 17 6 25 14 8 8 14 19 14 25 0 6 7 11 15 11 9 0 15 9 15 25 0 28
-14 32 -36 11 -8 -8 -14 -19 -14 -25 0 -6 -7 -11 -15 -11 -8 0 -15 -7 -15 -15
0 -8 -5 -15 -11 -15 -6 0 -17 -6 -25 -14 -8 -8 -14 -19 -14 -25 0 -6 -7 -11
-15 -11 -8 0 -15 -7 -15 -15 0 -8 -7 -15 -15 -15 -8 0 -15 -7 -15 -15 0 -8 -5
-15 -11 -15 -6 0 -17 -6 -25 -14 -8 -8 -14 -19 -14 -25 0 -6 -7 -11 -15 -11
-8 0 -15 -7 -15 -15 0 -8 -7 -15 -15 -15 -8 0 -15 -7 -15 -15 0 -8 -5 -15 -11
-15 -6 0 -17 -6 -25 -14 -8 -8 -14 -19 -14 -25 0 -6 -7 -11 -15 -11 -8 0 -15
-7 -15 -15 0 -8 -7 -15 -15 -15 -8 0 -15 -7 -15 -15 0 -8 -5 -15 -11 -15 -6 0
-17 -6 -25 -14 -8 -8 -14 -19 -14 -25 0 -6 -7 -11 -15 -11 -8 0 -15 -7 -15
-15 0 -8 -7 -15 -15 -15 -8 0 -15 -7 -15 -15 0 -8 -5 -15 -11 -15 -29 0 -39
-30 -39 -119 0 -74 -3 -91 -15 -91 -10 0 -15 -10 -15 -30 0 -20 -5 -30 -15
-30 -8 0 -15 -5 -15 -11 0 -14 -25 -39 -39 -39 -6 0 -11 -7 -11 -15 0 -8 -7
-15 -15 -15 -8 0 -15 -7 -15 -15 0 -8 -7 -15 -15 -15 -8 0 -15 -5 -15 -11 0
-14 -25 -39 -39 -39 -6 0 -11 -7 -11 -15 0 -8 -7 -15 -15 -15 -8 0 -15 -7 -15
-15 0 -8 -7 -15 -15 -15 -8 0 -15 -5 -15 -11 0 -6 -6 -17 -14 -25 -8 -8 -19
-14 -25 -14 -6 0 -11 -7 -11 -15 0 -8 -7 -15 -15 -15 -8 0 -15 -7 -15 -15 0
-8 -7 -15 -15 -15 -8 0 -15 -5 -15 -11 0 -6 -6 -17 -14 -25 -8 -8 -19 -14 -25
-14 -6 0 -11 -7 -11 -15 0 -8 -7 -15 -15 -15 -8 0 -15 -7 -15 -15 0 -8 -5 -15
-11 -15 -6 0 -17 -6 -25 -14 -8 -8 -14 -19 -14 -25 0 -6 -7 -11 -15 -11 -8 0
-15 -7 -15 -15 0 -8 -7 -15 -15 -15 -8 0 -15 -7 -15 -15 0 -8 -7 -15 -15 -15
-8 0 -15 -4 -15 -10 0 -5 -11 -10 -25 -10 -16 0 -25 -6 -25 -15 0 -13 -107
-15 -905 -15 -798 0 -905 2 -905 15 0 14 36 21 77 16 6 -1 14 3 18 9 8 14 895
14 895 0 0 -6 138 -10 395 -10 257 0 395 4 395 10 0 6 7 10 15 10 8 0 15 7 15
15 0 8 7 15 15 15 8 0 15 7 15 15 0 8 5 15 10 15 6 0 10 7 10 15 0 8 8 15 18
15 18 1 63 30 46 30 -5 0 -1 5 9 11 9 5 17 15 17 20 0 14 26 39 39 39 6 0 11
7 11 15 0 8 7 15 15 15 8 0 15 7 15 15 0 8 7 15 15 15 8 0 15 5 15 11 0 6 6
17 14 25 8 8 19 14 25 14 6 0 11 7 11 15 0 8 7 15 15 15 8 0 15 7 15 15 0 8 7
15 15 15 8 0 15 5 15 11 0 13 25 39 38 39 6 0 12 7 16 15 3 8 11 15 18 15 17
1 58 35 58 49 0 6 7 11 15 11 8 0 15 5 15 10 0 6 7 10 15 10 10 0 15 10 15 30
0 20 5 30 15 30 8 0 15 7 15 15 0 8 5 15 10 15 6 0 10 42 10 105 0 87 3 105
15 105 8 0 15 7 15 15 0 8 7 15 15 15 8 0 15 7 15 15 0 8 5 15 10 15 6 0 10 7
10 15 0 8 7 15 15 15 8 0 15 5 15 10 0 6 7 10 15 10 8 0 15 7 15 15 0 8 7 15
15 15 8 0 15 7 15 15 0 8 5 15 10 15 6 0 10 7 10 15 0 8 7 15 15 15 8 0 15 5
15 10 0 6 7 10 15 10 8 0 15 7 15 15 0 8 7 15 15 15 8 0 15 7 15 15 0 8 5 15
10 15 6 0 10 7 10 15 0 8 7 15 15 15 8 0 15 5 15 10 0 6 7 10 15 10 8 0 15 7
15 15 0 8 7 15 15 15 8 0 15 7 15 15 0 8 5 15 10 15 6 0 10 7 10 15 0 8 7 15
15 15 8 0 15 5 15 10 0 6 7 10 15 10 8 0 15 7 15 15 0 8 7 15 15 15 8 0 15 5
15 11 0 6 6 17 14 25 8 8 19 14 25 14 6 0 11 20 11 45 0 33 4 45 15 45 8 0 15
5 15 10 0 6 11 10 25 10 14 0 25 -4 25 -10 0 -5 7 -10 15 -10 8 0 15 -7 15
-15 0 -8 7 -15 15 -15 8 0 15 -7 15 -15 0 -8 5 -15 10 -15 6 0 10 18 10 40 0
29 4 40 15 40 8 0 15 7 15 15 0 8 7 15 15 15 8 0 15 7 15 15 0 11 11 15 40 15
29 0 40 -4 40 -15z m820 0 c0 -8 7 -15 15 -15 11 0 15 -11 15 -40 0 -29 -4
-40 -15 -40 -8 0 -15 -7 -15 -15 0 -11 -11 -15 -40 -15 -27 0 -43 -5 -46 -15
-4 -8 -15 -15 -25 -15 -10 0 -19 -4 -19 -10 0 -5 -7 -10 -15 -10 -8 0 -15 -7
-15 -15 0 -8 -7 -15 -15 -15 -8 0 -15 -7 -15 -15 0 -8 -5 -15 -11 -15 -6 0
-17 -6 -25 -14 -8 -8 -14 -19 -14 -25 0 -6 -7 -11 -15 -11 -8 0 -15 -7 -15
-15 0 -8 -7 -15 -15 -15 -8 0 -15 -7 -15 -15 0 -8 -5 -15 -11 -15 -6 0 -17 -6
-25 -14 -11 -12 -14 -69 -14 -325 0 -201 4 -311 10 -311 6 0 10 -13 10 -30 0
-20 5 -30 15 -30 8 0 15 -7 15 -15 0 -8 7 -15 15 -15 12 0 15 -14 15 -65 0
-51 -3 -65 -15 -65 -8 0 -15 -7 -15 -15 0 -12 -14 -15 -70 -15 -56 0 -70 3
-70 15 0 8 -4 15 -10 15 -5 0 -10 11 -10 25 0 16 -6 25 -15 25 -8 0 -15 7 -15
15 0 8 7 15 15 15 9 0 15 9 15 25 0 14 5 25 10 25 6 0 10 7 10 15 0 8 7 15 15
15 11 0 15 11 15 40 0 29 4 40 15 40 22 0 23 536 0 566 -19 25 -19 44 0 44 8
0 15 5 15 10 0 6 7 10 15 10 8 0 15 7 15 15 0 8 5 15 10 15 6 0 10 7 10 15 0
8 7 15 15 15 8 0 15 7 15 15 0 8 7 15 15 15 13 0 20 19 16 43 -1 5 3 6 9 2 5
-3 13 2 17 12 9 23 28 43 42 43 6 0 11 7 11 15 0 8 7 15 15 15 8 0 15 7 15 15
0 8 7 15 15 15 11 0 15 11 15 40 0 22 5 40 10 40 6 0 10 7 10 15 0 12 13 15
55 15 42 0 55 -3 55 -15z m-1230 -30 c0 -8 7 -15 15 -15 9 0 15 -9 15 -25 0
-16 -6 -25 -15 -25 -8 0 -15 -7 -15 -15 0 -11 -11 -15 -40 -15 -29 0 -40 -4
-40 -15 0 -8 -7 -15 -15 -15 -8 0 -15 -4 -15 -10 0 -5 -7 -10 -15 -10 -8 0
-15 -7 -15 -15 0 -8 -4 -15 -10 -15 -5 0 -10 -7 -10 -15 0 -8 -7 -15 -15 -15
-8 0 -15 -4 -15 -10 0 -5 -7 -10 -15 -10 -8 0 -15 -7 -15 -15 0 -8 -7 -15 -15
-15 -8 0 -15 -7 -15 -15 0 -8 -4 -15 -10 -15 -5 0 -10 -7 -10 -15 0 -8 -7 -15
-15 -15 -8 0 -15 -4 -15 -10 0 -5 -7 -10 -15 -10 -8 0 -15 -7 -15 -15 0 -8 -7
-15 -15 -15 -8 0 -15 -7 -15 -15 0 -8 -4 -15 -10 -15 -5 0 -10 -7 -10 -15 0
-8 -7 -15 -15 -15 -8 0 -15 -4 -15 -10 0 -5 -7 -10 -15 -10 -8 0 -15 -7 -15
-15 0 -8 -4 -15 -10 -15 -5 0 -10 -7 -10 -15 0 -8 -7 -15 -15 -15 -8 0 -15 -7
-15 -15 0 -8 -7 -15 -15 -15 -8 0 -15 -4 -15 -10 0 -5 -7 -10 -15 -10 -8 0
-15 -7 -15 -15 0 -9 -9 -15 -25 -15 -16 0 -25 -6 -25 -15 0 -8 -7 -15 -15 -15
-8 0 -15 -7 -15 -15 0 -8 -5 -15 -11 -15 -6 0 -17 -6 -25 -14 -8 -8 -14 -19
-14 -25 0 -6 -7 -11 -15 -11 -8 0 -15 -7 -15 -15 0 -8 -7 -15 -15 -15 -8 0
-15 -7 -15 -15 0 -8 -5 -15 -11 -15 -6 0 -17 -6 -25 -14 -8 -8 -14 -19 -14
-25 0 -6 -7 -11 -15 -11 -9 0 -15 -9 -15 -25 0 -16 -6 -25 -15 -25 -8 0 -15
-7 -15 -15 0 -8 -7 -15 -15 -15 -8 0 -15 -7 -15 -15 0 -8 -4 -15 -10 -15 -5 0
-10 -7 -10 -15 0 -10 -10 -15 -30 -15 -16 0 -30 -4 -30 -10 0 -5 -7 -10 -15
-10 -8 0 -15 -7 -15 -15 0 -8 -4 -15 -10 -15 -5 0 -10 -7 -10 -15 0 -8 -7 -15
-15 -15 -8 0 -15 -7 -15 -15 0 -8 -5 -15 -11 -15 -6 0 -17 -6 -25 -14 -8 -8
-14 -19 -14 -25 0 -6 -7 -11 -15 -11 -8 0 -15 -7 -15 -15 0 -8 -7 -15 -15 -15
-8 0 -15 -7 -15 -15 0 -8 -5 -15 -11 -15 -6 0 -17 -6 -25 -14 -8 -8 -14 -19
-14 -25 0 -8 -257 -11 -865 -11 l-865 0 0 25 0 25 865 0 c762 0 865 2 865 15
0 8 5 15 10 15 6 0 10 7 10 15 0 8 7 15 15 15 8 0 15 7 15 15 0 8 7 15 15 15
8 0 15 5 15 10 0 6 7 10 15 10 8 0 15 7 15 15 0 8 5 15 10 15 6 0 10 7 10 15
0 8 7 15 15 15 8 0 15 7 15 15 0 8 5 15 11 15 6 0 17 6 25 14 8 8 14 19 14 25
0 6 7 11 15 11 8 0 15 7 15 15 0 8 7 15 15 15 8 0 15 7 15 15 0 8 5 15 11 15
6 0 17 6 25 14 8 8 14 19 14 25 0 6 7 11 15 11 8 0 15 7 15 15 0 8 7 15 15 15
8 0 15 5 15 10 0 6 7 10 15 10 8 0 15 7 15 15 0 8 5 15 10 15 6 0 10 7 10 15
0 8 7 15 15 15 8 0 15 7 15 15 0 8 7 15 15 15 8 0 15 5 15 10 0 6 7 10 15 10
8 0 15 7 15 15 0 8 5 15 10 15 6 0 10 7 10 15 0 8 7 15 15 15 8 0 15 7 15 15
0 8 7 15 15 15 8 0 15 5 15 10 0 6 7 10 15 10 8 0 15 7 15 15 0 8 5 15 10 15
6 0 10 7 10 15 0 8 7 15 15 15 8 0 15 7 15 15 0 8 7 15 15 15 8 0 15 5 15 10
0 6 7 10 15 10 8 0 15 7 15 15 0 8 5 15 10 15 6 0 10 7 10 15 0 8 7 15 15 15
8 0 15 7 15 15 0 8 5 15 11 15 6 0 17 6 25 14 8 8 14 19 14 25 0 6 7 11 15 11
8 0 15 7 15 15 0 8 7 15 15 15 8 0 15 7 15 15 0 8 5 15 11 15 6 0 17 6 25 14
8 8 14 19 14 25 0 6 7 11 15 11 8 0 15 7 15 15 0 8 7 15 15 15 8 0 15 5 15 10
0 6 7 10 15 10 8 0 15 7 15 15 0 8 5 15 10 15 6 0 10 7 10 15 0 8 7 15 15 15
8 0 15 7 15 15 0 8 7 15 15 15 9 0 15 9 15 25 0 23 4 25 40 25 29 0 40 -4 40
-15z m-2050 -740 c0 -8 5 -15 10 -15 6 0 10 -11 10 -25 0 -16 6 -25 15 -25 9
0 15 -9 15 -25 0 -16 -6 -25 -15 -25 -10 0 -15 -10 -15 -30 0 -16 -4 -30 -10
-30 -5 0 -10 -7 -10 -15 0 -10 -10 -15 -30 -15 -16 0 -30 -4 -30 -10 0 -5 -11
-10 -25 -10 -14 0 -25 5 -25 10 0 6 -13 10 -30 10 -20 0 -30 5 -30 15 0 8 -4
15 -10 15 -6 0 -10 29 -10 66 0 64 13 94 39 94 6 0 11 7 11 15 0 12 14 15 70
15 56 0 70 -3 70 -15z m5470 -190 c0 -8 7 -15 15 -15 8 0 15 -4 15 -10 0 -5 7
-10 15 -10 11 0 15 -12 15 -45 0 -33 -4 -45 -15 -45 -8 0 -15 -4 -15 -10 0 -5
-7 -10 -15 -10 -10 0 -15 -10 -15 -30 0 -16 -4 -30 -8 -30 -5 0 -10 -49 -11
-110 -1 -71 2 -110 9 -110 5 0 10 -11 10 -25 0 -14 -4 -25 -10 -25 -5 0 -10
-7 -10 -15 0 -8 -7 -15 -15 -15 -13 0 -15 27 -15 180 0 153 -2 180 -15 180 -9
0 -15 9 -15 25 0 16 -6 25 -15 25 -10 0 -15 10 -15 30 0 20 5 30 15 30 8 0 15
5 15 10 0 6 7 10 15 10 8 0 15 7 15 15 0 9 9 15 25 15 16 0 25 -6 25 -15z
m-6146 -710 c27 -20 126 -21 126 -1 0 12 128 14 860 16 l860 1 0 -796 c0 -629
3 -795 13 -796 10 0 10 -2 0 -6 -9 -3 -13 -35 -13 -108 0 -74 4 -105 13 -107
8 -3 13 -37 15 -111 3 -84 7 -107 18 -107 8 0 14 -4 14 -10 0 -6 43 -10 110
-10 67 0 110 4 110 10 0 6 7 10 15 10 8 0 15 7 15 15 0 8 5 15 10 15 6 0 10 7
10 15 0 8 7 15 15 15 8 0 15 5 15 10 0 6 14 10 30 10 20 0 30 5 30 15 0 11 12
15 50 15 38 0 50 -4 50 -15 0 -10 10 -15 30 -15 17 0 30 -4 30 -10 0 -5 7 -10
15 -10 10 0 15 -10 15 -30 0 -16 5 -30 10 -30 6 0 10 -25 10 -55 0 -30 -4 -55
-10 -55 -5 0 -10 -11 -10 -25 0 -16 -6 -25 -15 -25 -8 0 -15 -7 -15 -15 0 -10
-10 -15 -30 -15 -20 0 -30 -5 -30 -15 0 -12 -14 -15 -65 -15 -51 0 -65 3 -65
15 0 8 -7 15 -15 15 -8 0 -15 7 -15 15 0 8 -7 15 -15 15 -9 0 -15 9 -15 25 0
14 -4 25 -10 25 -5 0 -10 7 -10 15 0 13 -25 15 -165 15 l-165 0 0 1011 c0 952
-1 1013 -17 1025 -15 11 -188 13 -930 14 -602 0 -913 -3 -913 -10 0 -5 -7 -10
-15 -10 -8 0 -15 5 -15 10 0 6 -7 10 -15 10 -10 0 -15 10 -15 30 0 28 2 30 38
30 20 0 46 -7 56 -15z m2914 -34 c2 -6 10 -11 18 -11 8 0 14 -10 14 -25 0 -16
6 -25 15 -25 10 0 15 -10 15 -30 0 -20 -5 -30 -15 -30 -9 0 -15 -9 -15 -25 0
-21 -5 -25 -30 -25 l-30 0 0 -125 c0 -83 -4 -125 -11 -125 -7 0 -9 -25 -4 -77
15 -198 16 -296 4 -304 -10 -6 -10 -13 -1 -34 7 -14 12 -37 12 -50 0 -16 6
-25 15 -25 8 0 15 -7 15 -15 0 -8 7 -15 15 -15 8 0 15 -4 15 -10 0 -5 7 -10
15 -10 8 0 15 -7 15 -15 0 -8 5 -15 10 -15 6 0 10 -7 10 -15 0 -8 7 -15 15
-15 8 0 15 -7 15 -15 0 -8 7 -15 15 -15 8 0 15 -4 15 -10 0 -5 7 -10 15 -10 8
0 15 -7 15 -15 0 -8 5 -15 10 -15 6 0 10 -7 10 -15 0 -8 7 -15 15 -15 8 0 15
-7 15 -15 0 -8 7 -15 15 -15 8 0 15 -4 15 -10 0 -5 7 -10 15 -10 8 0 15 -7 15
-15 0 -8 5 -15 10 -15 6 0 10 -7 10 -15 0 -8 7 -15 15 -15 8 0 15 -7 15 -15 0
-8 7 -15 15 -15 8 0 15 -4 15 -10 0 -5 7 -10 15 -10 8 0 15 -7 15 -15 0 -8 5
-15 10 -15 6 0 10 -7 10 -15 0 -8 7 -15 15 -15 8 0 15 -4 15 -10 0 -5 7 -10
15 -10 8 0 15 -7 15 -15 0 -8 5 -15 10 -15 6 0 10 -18 10 -40 0 -29 4 -40 15
-40 13 0 15 -31 15 -220 0 -189 -2 -220 -15 -220 -8 0 -15 -7 -15 -15 0 -8 -4
-15 -10 -15 -6 0 -10 93 -10 260 0 224 -2 260 -15 260 -8 0 -15 7 -15 15 0 8
-7 15 -15 15 -8 0 -15 5 -15 11 0 14 -25 39 -39 39 -6 0 -11 7 -11 15 0 8 -7
15 -15 15 -8 0 -15 7 -15 15 0 8 -5 15 -11 15 -14 0 -39 25 -39 39 0 6 -7 11
-15 11 -8 0 -15 7 -15 15 0 8 -7 15 -15 15 -8 0 -15 7 -15 15 0 8 -5 15 -11
15 -14 0 -39 25 -39 39 0 6 -7 11 -15 11 -8 0 -15 7 -15 15 0 8 -7 15 -15 15
-8 0 -15 7 -15 15 0 8 -5 15 -11 15 -14 0 -39 25 -39 39 0 6 -7 11 -15 11 -8
0 -15 4 -15 9 0 6 -13 18 -30 28 -16 9 -30 23 -30 30 0 7 -4 13 -10 13 -5 0
-10 7 -10 15 0 8 -7 15 -15 15 -12 0 -15 13 -15 55 0 44 -3 55 -16 55 -14 0
-16 8 -10 53 4 28 11 54 17 55 5 2 9 60 9 128 0 104 -2 124 -15 124 -13 0 -15
22 -15 135 0 83 -4 135 -10 135 -5 0 -10 11 -10 25 0 16 -6 25 -15 25 -11 0
-15 12 -15 45 0 25 5 45 11 45 14 0 39 26 39 41 0 15 103 6 108 -10z m-2738
-296 c0 -8 7 -15 15 -15 8 0 15 -4 15 -10 0 -5 7 -10 15 -10 8 0 15 -7 15 -15
0 -13 48 -15 370 -15 322 0 370 -2 370 -15 0 -8 7 -15 15 -15 8 0 15 -5 15
-11 0 -14 25 -39 39 -39 6 0 11 -7 11 -15 0 -8 7 -15 15 -15 8 0 15 -7 15 -15
0 -8 7 -15 15 -15 8 0 15 -5 15 -11 0 -14 25 -39 39 -39 6 0 11 -7 11 -15 0
-8 7 -15 15 -15 8 0 15 -7 15 -15 0 -8 5 -15 10 -15 6 0 10 -7 10 -15 0 -8 7
-15 15 -15 8 0 15 -4 15 -10 0 -5 7 -10 15 -10 8 0 15 -7 15 -15 0 -8 7 -15
15 -15 8 0 15 -7 15 -15 0 -8 5 -15 10 -15 6 0 10 -7 10 -15 0 -8 7 -15 15
-15 8 0 15 -4 15 -10 0 -5 7 -10 15 -10 8 0 15 -7 15 -15 0 -8 7 -15 15 -15 8
0 15 -5 15 -11 0 -14 25 -39 39 -39 8 0 11 -245 11 -825 0 -727 -2 -825 -15
-825 -8 0 -15 7 -15 15 0 8 -4 15 -10 15 -6 0 -10 98 -10 275 0 238 -2 275
-15 275 -13 0 -15 39 -15 289 0 244 2 292 15 305 12 12 15 46 15 175 0 101 4
161 10 161 6 0 10 11 10 25 0 14 -4 25 -10 25 -5 0 -10 20 -10 45 0 33 -4 45
-15 45 -8 0 -15 5 -15 10 0 6 -7 10 -15 10 -8 0 -15 7 -15 15 0 8 -7 15 -15
15 -8 0 -15 5 -15 11 0 14 -25 39 -39 39 -6 0 -11 7 -11 15 0 8 -7 15 -15 15
-8 0 -15 7 -15 15 0 8 -7 15 -15 15 -8 0 -15 5 -15 11 0 14 -25 39 -39 39 -6
0 -11 7 -11 15 0 8 -7 15 -15 15 -8 0 -15 7 -15 15 0 8 -4 15 -10 15 -5 0 -10
7 -10 15 0 8 -7 15 -15 15 -8 0 -15 5 -15 10 0 6 -7 10 -15 10 -8 0 -15 7 -15
15 0 8 -7 15 -15 15 -8 0 -15 7 -15 15 0 8 -4 15 -10 15 -5 0 -10 7 -10 15 0
8 -7 15 -15 15 -8 0 -15 5 -15 10 0 6 -13 10 -30 10 -20 0 -30 5 -30 15 0 13
-44 15 -340 15 -296 0 -340 -2 -340 -15 0 -9 -10 -15 -26 -15 -26 0 -54 -20
-54 -39 0 -6 -13 -11 -30 -11 -25 0 -30 4 -30 25 0 21 5 25 30 25 20 0 30 5
30 15 0 8 5 15 10 15 15 0 12 49 -4 66 -17 16 -66 19 -66 4 0 -5 -11 -10 -25
-10 -20 0 -25 5 -25 25 0 24 2 25 65 25 51 0 65 -3 65 -15z m3780 -25 c0 -5 7
-10 15 -10 12 0 15 -13 15 -55 0 -42 -3 -55 -15 -55 -8 0 -15 -7 -15 -15 0
-11 -11 -15 -40 -15 -29 0 -40 4 -40 15 0 8 -7 15 -15 15 -12 0 -15 13 -15 55
0 42 3 55 15 55 8 0 15 5 15 10 0 6 18 10 40 10 22 0 40 -4 40 -10z m-3150
-245 c0 -10 10 -15 30 -15 20 0 30 -5 30 -15 0 -8 7 -15 15 -15 12 0 15 -13
15 -55 0 -42 -3 -55 -15 -55 -8 0 -15 -7 -15 -15 0 -8 -7 -15 -15 -15 -9 0
-15 -9 -15 -25 0 -16 -6 -25 -15 -25 -13 0 -15 -43 -15 -330 0 -213 -4 -330
-10 -330 -6 0 -10 117 -10 330 0 287 -2 330 -15 330 -8 0 -15 7 -15 15 0 8 -7
15 -15 15 -8 0 -15 5 -15 10 0 6 -7 10 -15 10 -12 0 -15 14 -15 70 0 56 3 70
15 70 8 0 15 7 15 15 0 13 25 21 53 16 4 0 7 6 7 14 0 8 5 15 10 15 6 0 10 -7
10 -15z m3150 -170 c0 -8 7 -15 15 -15 11 0 15 -12 15 -50 0 -47 -2 -50 -25
-50 -16 0 -25 -6 -25 -15 0 -8 -7 -15 -15 -15 -8 0 -15 7 -15 15 0 10 -10 15
-30 15 -29 0 -30 1 -30 50 0 38 4 50 15 50 8 0 15 7 15 15 0 11 11 15 40 15
29 0 40 -4 40 -15z m-20 -296 c0 -6 6 -17 14 -25 8 -8 19 -14 25 -14 6 0 11
-20 11 -45 0 -33 -4 -45 -15 -45 -8 0 -15 -4 -15 -10 0 -5 -25 -10 -55 -10
l-55 0 0 65 0 65 30 0 c20 0 30 5 30 15 0 8 7 15 15 15 8 0 15 -5 15 -11z
m-1590 -409 l0 -70 -55 0 c-42 0 -55 3 -55 15 0 8 -7 15 -15 15 -11 0 -15 11
-15 40 0 29 4 40 15 40 8 0 15 7 15 15 0 12 13 15 55 15 l55 0 0 -70z m740
-990 c0 -5 -7 -10 -15 -10 -8 0 -15 -7 -15 -15 0 -8 -7 -15 -15 -15 -8 0 -15
-7 -15 -15 0 -9 -9 -15 -25 -15 -14 0 -25 -4 -25 -10 0 -5 -7 -10 -15 -10 -8
0 -15 -7 -15 -15 0 -8 -7 -15 -15 -15 -8 0 -15 -7 -15 -15 0 -8 -7 -15 -15
-15 -8 0 -15 -5 -15 -11 0 -6 -6 -17 -14 -25 -8 -8 -19 -14 -25 -14 -6 0 -11
-7 -11 -15 0 -8 -7 -15 -15 -15 -8 0 -15 -7 -15 -15 0 -8 -4 -15 -10 -15 -5 0
-10 -11 -10 -25 0 -16 -6 -25 -15 -25 -8 0 -15 -7 -15 -15 0 -8 -7 -15 -15
-15 -10 0 -15 -10 -15 -30 0 -16 -5 -30 -11 -30 -19 0 -39 -28 -39 -54 0 -16
-6 -26 -15 -26 -9 0 -15 -9 -15 -24 0 -13 -7 -26 -15 -30 -10 -3 -15 -19 -15
-46 0 -29 -4 -40 -15 -40 -11 0 -15 -12 -15 -50 0 -27 -4 -50 -10 -50 -7 0
-10 -495 -10 -1465 0 -970 3 -1465 10 -1465 6 0 10 -25 10 -55 0 -42 3 -55 15
-55 10 0 15 -10 15 -30 0 -20 5 -30 15 -30 9 0 15 -9 15 -25 0 -16 6 -25 15
-25 8 0 15 -7 15 -15 0 -8 5 -15 10 -15 6 0 10 -10 10 -23 0 -25 31 -57 55
-57 9 0 18 -7 21 -15 4 -8 12 -15 20 -15 8 0 14 -7 14 -15 0 -8 7 -15 15 -15
8 0 15 -4 15 -10 0 -5 11 -10 25 -10 16 0 25 -6 25 -15 0 -10 10 -15 30 -15
20 0 30 -5 30 -15 0 -11 11 -15 40 -15 36 0 40 -2 40 -25 0 -16 -6 -25 -15
-25 -8 0 -15 5 -15 10 0 6 -18 10 -40 10 -29 0 -40 4 -40 15 0 9 -9 15 -25 15
-16 0 -25 6 -25 15 0 10 -10 15 -30 15 -20 0 -30 5 -30 15 0 9 -9 15 -25 15
-14 0 -25 5 -25 10 0 6 -7 10 -15 10 -8 0 -15 7 -15 15 0 8 -7 15 -15 15 -8 0
-15 5 -15 11 0 14 -25 39 -39 39 -6 0 -11 14 -11 30 0 20 -5 30 -15 30 -8 0
-15 7 -15 15 0 8 -7 15 -15 15 -11 0 -15 11 -15 40 0 22 -4 40 -10 40 -5 0
-10 11 -10 25 0 16 -6 25 -15 25 -12 0 -15 14 -15 70 0 56 -3 70 -15 70 -13 0
-15 165 -15 1425 0 1260 2 1425 15 1425 12 0 15 13 15 55 0 42 3 55 15 55 11
0 15 11 15 40 0 22 5 40 10 40 6 0 10 11 10 25 0 16 6 25 15 25 10 0 15 10 15
30 0 20 5 30 15 30 9 0 15 9 15 25 0 16 6 25 15 25 10 0 15 10 15 30 0 17 5
30 10 30 6 0 10 7 10 15 0 8 7 15 15 15 9 0 15 9 15 25 0 16 6 25 15 25 8 0
15 7 15 15 0 8 7 15 15 15 8 0 15 5 15 10 0 13 57 70 70 70 6 0 10 7 10 15 0
8 5 15 10 15 6 0 10 7 10 15 0 8 7 15 15 15 8 0 15 5 15 10 0 6 7 10 15 10 8
0 15 7 15 15 0 8 7 15 15 15 8 0 15 7 15 15 0 9 9 15 25 15 14 0 25 5 25 10 0
6 14 10 30 10 17 0 30 -4 30 -10z m-1590 -355 c0 -11 11 -15 40 -15 l40 0 0
-55 c0 -42 3 -55 15 -55 9 0 15 -9 15 -25 0 -16 6 -25 15 -25 10 0 15 -10 15
-30 0 -16 5 -30 10 -30 6 0 10 -7 10 -15 0 -8 7 -15 15 -15 8 0 15 -4 15 -10
0 -5 7 -10 15 -10 8 0 15 -7 15 -15 0 -8 5 -15 10 -15 6 0 10 -7 10 -15 0 -8
7 -15 15 -15 8 0 15 -4 15 -10 0 -5 7 -10 15 -10 8 0 15 -7 15 -15 0 -8 7 -15
15 -15 8 0 15 -7 15 -15 0 -8 5 -15 10 -15 6 0 10 -7 10 -15 0 -10 10 -15 30
-15 17 0 30 -4 30 -10 0 -5 18 -10 40 -10 29 0 40 -4 40 -15 0 -12 -14 -15
-70 -15 -43 0 -70 4 -70 11 0 6 -6 17 -14 25 -8 8 -19 14 -25 14 -6 0 -11 7
-11 15 0 8 -7 15 -15 15 -8 0 -15 7 -15 15 0 8 -7 15 -15 15 -8 0 -15 5 -15
11 0 14 -25 39 -39 39 -6 0 -11 7 -11 15 0 8 -7 15 -15 15 -8 0 -15 5 -15 11
0 6 -6 17 -14 25 -8 8 -19 14 -25 14 -6 0 -11 7 -11 15 0 8 -7 15 -15 15 -8 0
-15 7 -15 15 0 12 -13 15 -55 15 -52 0 -55 1 -55 25 0 23 4 25 40 25 l40 0 0
41 c0 48 -15 66 -60 71 -19 2 -36 9 -38 17 -3 8 0 11 7 7 7 -5 11 1 11 13 0
12 7 21 15 21 8 0 15 -7 15 -15z m30 -380 c0 -8 5 -15 10 -15 6 0 10 -7 10
-15 0 -8 7 -15 15 -15 8 0 15 -7 15 -15 0 -8 7 -15 15 -15 8 0 15 -4 15 -10 0
-5 7 -10 15 -10 8 0 15 -7 15 -15 0 -8 5 -15 10 -15 6 0 10 -7 10 -15 0 -8 7
-15 15 -15 8 0 15 -7 15 -15 0 -8 5 -15 11 -15 6 0 17 -6 25 -14 8 -8 14 -19
14 -25 0 -7 47 -11 140 -11 l140 0 0 -30 0 -30 -110 0 c-91 0 -110 3 -110 15
0 11 -11 15 -40 15 -29 0 -40 4 -40 15 0 9 -9 15 -24 15 -13 0 -31 11 -42 25
-10 14 -24 25 -31 25 -7 0 -13 7 -13 15 0 8 -7 15 -15 15 -8 0 -15 7 -15 15 0
8 -7 15 -15 15 -8 0 -15 5 -15 11 0 6 -6 17 -14 25 -8 8 -19 14 -25 14 -6 0
-11 14 -11 30 0 20 -5 30 -15 30 -8 0 -15 7 -15 15 0 10 10 15 30 15 20 0 30
-5 30 -15z m460 -1825 c0 -1016 -2 -1150 -15 -1150 -11 0 -15 -11 -15 -40 0
-22 -4 -40 -10 -40 -5 0 -10 -13 -10 -30 0 -20 -5 -30 -15 -30 -8 0 -15 -4
-15 -10 0 -5 -7 -10 -15 -10 -8 0 -15 -7 -15 -15 0 -8 -7 -15 -15 -15 -9 0
-15 -10 -15 -26 0 -26 -20 -54 -39 -54 -6 0 -11 -7 -11 -15 0 -10 -10 -15 -30
-15 -16 0 -30 -5 -30 -11 0 -14 -25 -39 -39 -39 -6 0 -11 -7 -11 -15 0 -9 -9
-15 -25 -15 -16 0 -25 -6 -25 -15 0 -10 -10 -15 -30 -15 -20 0 -30 -5 -30 -15
0 -9 -9 -15 -25 -15 -14 0 -25 -4 -25 -9 0 -6 -15 -12 -32 -14 -18 -2 335 -5
785 -5 l817 -2 0 -245 0 -245 -295 0 -295 0 0 -895 0 -895 -302 2 -303 3 -3
893 -2 892 -290 0 -290 0 -2 148 c-2 81 -3 190 -3 242 l0 95 63 3 c46 2 62 7
62 17 0 10 10 15 30 15 20 0 30 5 30 15 0 9 9 15 25 15 16 0 25 6 25 15 0 10
10 15 30 15 20 0 30 5 30 15 0 8 7 15 15 15 8 0 15 5 15 10 0 6 11 10 25 10
16 0 25 6 25 15 0 8 7 15 15 15 8 0 15 5 15 11 0 14 25 39 39 39 6 0 11 7 11
15 0 8 7 15 15 15 8 0 15 7 15 15 0 8 7 15 15 15 8 0 15 5 15 11 0 14 25 39
39 39 6 0 11 14 11 30 0 20 5 30 15 30 9 0 15 9 15 25 0 16 6 25 15 25 11 0
15 12 15 45 0 25 5 45 10 45 7 0 10 370 10 1091 0 932 -2 1093 -14 1105 -17
17 -256 21 -256 4 0 -6 -30 -10 -70 -10 -68 0 -70 1 -70 25 l0 25 220 0 220 0
0 -1150z m190 685 c0 -16 6 -25 15 -25 13 0 15 -110 15 -930 0 -820 -2 -930
-15 -930 -12 0 -15 15 -17 68 -1 37 -1 79 0 95 1 15 -2 27 -8 27 -6 0 -10 311
-10 860 0 576 3 860 10 860 5 0 10 -11 10 -25z m-1746 -2307 c19 -40 52 -111
74 -158 105 -225 788 -1686 857 -1835 18 -38 56 -118 83 -177 l51 -108 -1100
0 c-604 0 -1099 2 -1099 4 0 7 35 85 90 201 29 61 60 128 70 150 10 22 104
225 210 450 106 226 205 437 220 470 15 33 59 128 98 210 38 83 138 296 222
475 84 179 159 340 166 358 8 17 17 32 20 32 3 0 20 -33 38 -72z m-6831 27
c191 -29 399 -116 547 -230 80 -62 208 -199 263 -282 227 -342 260 -781 86
-1152 -250 -534 -858 -802 -1420 -625 -184 57 -321 138 -458 269 -234 223
-356 498 -366 820 -7 239 52 460 177 663 71 115 235 282 350 357 248 160 535
223 821 180z m4776 0 c196 -29 380 -105 533 -220 87 -65 231 -210 226 -227 -2
-5 -99 -82 -216 -172 l-213 -164 -47 50 c-77 83 -170 139 -287 174 -82 25
-248 25 -330 0 -204 -61 -362 -213 -432 -413 -23 -68 -27 -93 -27 -193 0 -98
4 -126 27 -193 69 -200 229 -353 432 -413 93 -28 241 -25 333 5 88 29 177 84
242 151 48 50 112 145 125 188 l6 22 -291 0 -290 0 2 208 3 207 574 3 c368 1
578 -1 585 -8 13 -13 17 -249 5 -330 -66 -458 -359 -820 -777 -960 -349 -117
-755 -51 -1051 170 -446 334 -599 917 -376 1432 104 240 340 480 577 587 213
97 444 130 667 96z m8481 1 c389 -59 721 -301 890 -650 104 -215 143 -462 109
-692 -96 -635 -701 -1085 -1333 -990 -272 41 -493 154 -682 348 -343 352 -429
883 -215 1331 110 230 336 454 563 557 210 94 448 129 668 96z m-10825 -42
c471 -47 708 -198 785 -500 28 -110 28 -348 0 -460 -54 -213 -179 -347 -400
-425 -46 -17 -75 -32 -74 -41 1 -8 121 -197 268 -421 146 -225 266 -410 266
-413 0 -2 -152 -4 -337 -4 l-338 0 -256 393 -255 392 -107 3 -107 3 -2 -393
-3 -393 -302 -3 -303 -2 0 1140 0 1140 503 0 c386 0 541 -4 662 -16z m8480 0
c471 -47 708 -198 785 -500 28 -110 28 -348 0 -460 -54 -213 -179 -347 -400
-425 -46 -17 -75 -32 -74 -41 1 -8 121 -197 268 -421 146 -225 266 -410 266
-413 0 -2 -152 -4 -337 -4 l-338 0 -256 393 -255 392 -107 3 -107 3 -2 -393
-3 -393 -302 -3 -303 -2 0 1140 0 1140 503 0 c386 0 541 -4 662 -16z m-2490
-2943 c355 -86 627 -354 723 -711 22 -82 25 -116 25 -245 0 -131 -3 -163 -26
-250 -92 -344 -358 -610 -702 -702 -87 -23 -119 -26 -250 -26 -131 0 -163 3
-249 26 -352 94 -610 354 -704 707 -21 81 -25 117 -25 245 0 130 4 163 26 248
102 384 415 664 813 727 85 13 276 3 369 -19z m-3179 -261 c63 -135 122 -261
131 -280 94 -202 144 -302 149 -297 4 3 93 190 198 414 l192 408 262 3 c144 1
262 1 262 -2 0 -2 -25 -57 -56 -122 -97 -205 -140 -297 -164 -347 l-23 -49 20
-41 c11 -23 44 -93 73 -154 29 -62 56 -113 59 -113 3 0 49 91 101 203 52 111
122 261 155 332 34 72 79 167 100 213 l38 82 264 0 264 0 -15 -27 c-7 -16 -29
-62 -49 -103 -30 -66 -543 -1159 -706 -1505 -34 -71 -80 -171 -104 -222 -23
-51 -44 -92 -47 -93 -3 0 -96 191 -205 425 -110 234 -203 426 -208 427 -7 3
-110 -211 -319 -662 -45 -96 -85 -179 -89 -184 -5 -5 -28 33 -52 85 -25 52
-131 279 -237 504 -106 226 -211 448 -233 495 -41 89 -84 180 -159 340 -160
339 -238 508 -238 514 0 3 117 5 261 4 l260 -3 115 -245z m5247 226 c360 -69
511 -204 548 -491 6 -44 8 -118 5 -165 -19 -253 -124 -400 -345 -480 -42 -15
-76 -30 -76 -33 0 -3 99 -157 220 -343 121 -185 224 -343 228 -351 7 -11 -41
-13 -276 -13 l-283 0 -190 293 c-104 160 -200 309 -213 330 l-25 37 -88 0
c-83 0 -88 -1 -93 -22 -3 -13 -5 -32 -4 -43 1 -11 1 -149 1 -307 l-2 -288
-250 0 -250 0 0 951 0 951 503 -5 c415 -3 517 -7 590 -21z m1327 -351 l5 -370
57 -3 c32 -2 66 1 76 7 10 5 126 174 258 375 l239 366 283 0 c224 0 282 -3
276 -12 -11 -18 -303 -466 -462 -708 -74 -113 -137 -213 -140 -222 -2 -11 108
-189 295 -475 165 -252 303 -464 307 -470 6 -10 -52 -13 -276 -13 l-283 0
-240 366 c-172 264 -246 369 -264 376 -14 5 -48 8 -76 6 l-50 -3 -5 -370 -5
-370 -252 -3 -253 -2 0 950 0 950 253 -2 252 -3 5 -370z m1920 353 c0 -13 0
-173 0 -355 0 -183 3 -340 6 -348 5 -13 46 -15 290 -15 l284 0 0 370 0 370
250 0 250 0 0 -950 0 -950 -250 0 -250 0 0 375 0 375 -284 0 c-250 0 -285 -2
-290 -16 -3 -9 -6 -177 -6 -375 l0 -359 -250 0 -250 0 0 950 0 950 250 0 250
0 0 -22z m1892 -606 l3 -627 33 -68 c50 -102 128 -147 253 -147 114 0 198 51
246 148 l28 57 5 630 5 630 253 3 253 2 -3 -657 c-4 -640 -5 -660 -26 -738
-74 -270 -242 -437 -507 -505 -218 -56 -516 -28 -700 67 -88 46 -207 163 -251
248 -46 86 -81 206 -93 318 -12 105 -16 1249 -4 1260 3 4 118 7 254 7 l248 0
3 -628z m2491 604 c227 -43 355 -109 431 -219 93 -135 110 -358 39 -504 -31
-63 -107 -137 -177 -171 l-47 -24 68 -33 c138 -66 203 -154 225 -303 23 -160
-17 -313 -107 -411 -86 -92 -200 -143 -410 -182 -99 -19 -161 -22 -617 -26
l-508 -5 0 952 0 952 508 -5 c420 -3 522 -7 595 -21z"/>
<path d="M19060 23805 c0 -8 -7 -15 -15 -15 -19 0 -19 -5 2 -30 12 -13 30 -20
55 -20 38 0 38 0 38 40 l0 40 -40 0 c-29 0 -40 -4 -40 -15z"/>
<path d="M19470 23205 c0 -10 -10 -15 -30 -15 -25 0 -30 -4 -30 -25 0 -14 -4
-25 -10 -25 -5 0 -10 -18 -10 -41 0 -39 17 -69 39 -69 6 0 11 -7 11 -15 0 -12
14 -15 70 -15 56 0 70 3 70 15 0 8 5 15 10 15 6 0 10 28 10 65 0 37 -4 65 -10
65 -5 0 -10 7 -10 15 0 8 -7 15 -15 15 -8 0 -15 7 -15 15 0 11 -11 15 -40 15
-29 0 -40 -4 -40 -15z"/>
<path d="M19660 25750 c0 -5 -7 -10 -15 -10 -8 0 -15 -7 -15 -15 0 -8 7 -15
15 -15 8 0 15 -7 15 -15 0 -8 7 -15 15 -15 8 0 15 -7 15 -15 0 -8 5 -15 10
-15 6 0 10 7 10 15 0 8 7 15 15 15 11 0 15 11 15 40 l0 40 -40 0 c-22 0 -40
-4 -40 -10z"/>
<path d="M17960 25340 c0 -5 -7 -10 -15 -10 -8 0 -15 -7 -15 -15 0 -8 7 -15
15 -15 10 0 15 -10 15 -30 0 -27 3 -30 30 -30 20 0 30 5 30 15 0 8 5 15 10 15
6 0 10 7 10 15 0 8 7 15 15 15 8 0 15 7 15 15 0 8 -7 15 -15 15 -8 0 -15 5
-15 10 0 6 -18 10 -40 10 -22 0 -40 -4 -40 -10z"/>
<path d="M18430 24555 l0 -55 40 0 c29 0 40 4 40 15 0 8 7 15 15 15 10 0 15
10 15 30 0 20 -5 30 -15 30 -8 0 -15 5 -15 10 0 6 -18 10 -40 10 l-40 0 0 -55z"/>
<path d="M17820 22440 c0 -29 4 -40 15 -40 8 0 15 -7 15 -15 0 -10 10 -15 30
-15 20 0 30 5 30 15 0 8 5 15 10 15 6 0 10 18 10 40 l0 40 -55 0 -55 0 0 -40z"/>
<path d="M16840 24465 c0 -8 -7 -15 -15 -15 -10 0 -15 -10 -15 -30 0 -20 5
-30 15 -30 8 0 15 -4 15 -10 0 -5 18 -10 40 -10 l40 0 0 40 c0 29 -4 40 -15
40 -8 0 -15 7 -15 15 0 9 -9 15 -25 15 -16 0 -25 -6 -25 -15z"/>
<path d="M17470 23915 c0 -32 4 -45 14 -45 8 0 17 -6 20 -12 5 -10 7 -10 12 0
3 6 12 12 20 12 8 0 14 9 14 21 0 12 4 18 11 13 7 -4 9 -2 5 7 -3 8 -9 22 -12
32 -5 12 -17 17 -45 17 l-39 0 0 -45z"/>
<path d="M15770 22960 l0 -40 40 0 c22 0 40 5 40 10 0 6 7 10 15 10 8 0 15 7
15 15 0 8 -7 15 -15 15 -8 0 -15 7 -15 15 0 11 -11 15 -40 15 l-40 0 0 -40z"/>
<path d="M18320 23150 c0 -29 4 -40 15 -40 8 0 15 -7 15 -15 0 -8 5 -15 10
-15 6 0 10 7 10 15 0 8 7 15 15 15 11 0 15 11 15 40 l0 40 -40 0 -40 0 0 -40z"/>
<path d="M18650 23150 c0 -22 5 -40 10 -40 6 0 10 -7 10 -15 0 -8 7 -15 15
-15 8 0 15 7 15 15 0 8 7 15 15 15 8 0 15 7 15 15 0 8 7 15 15 15 8 0 15 5 15
10 0 6 -7 10 -15 10 -8 0 -15 7 -15 15 0 11 -11 15 -40 15 l-40 0 0 -40z"/>
<path d="M19630 21870 c0 -5 -3 -9 -7 -8 -16 3 -43 -15 -43 -28 0 -8 -7 -14
-15 -14 -12 0 -15 -13 -15 -55 0 -42 3 -55 15 -55 8 0 15 -5 15 -11 0 -14 25
-39 39 -39 6 0 11 -7 11 -15 0 -10 10 -15 30 -15 20 0 30 5 30 15 0 9 9 15 25
15 14 0 25 5 25 10 0 6 7 10 15 10 12 0 15 14 15 70 0 56 -3 70 -15 70 -8 0
-15 7 -15 15 0 8 -7 15 -15 15 -8 0 -15 7 -15 15 0 11 -11 15 -40 15 -22 0
-40 -4 -40 -10z"/>
<path d="M14730 21755 c0 -8 -7 -15 -15 -15 -10 0 -15 -10 -15 -30 0 -20 5
-30 15 -30 8 0 15 -5 15 -11 0 -6 16 -9 38 -7 l37 3 3 53 3 52 -40 0 c-30 0
-41 -4 -41 -15z"/>
<path d="M16150 20655 c0 -8 -4 -15 -10 -15 -7 0 -10 -462 -10 -1365 l0 -1365
25 0 c16 0 25 -6 25 -15 0 -13 163 -15 1410 -15 1247 0 1410 2 1410 15 0 8 7
15 15 15 8 0 15 5 15 10 0 6 7 10 15 10 12 0 15 19 15 108 0 60 -2 111 -5 113
-5 6 -4 1308 2 2012 4 426 2 477 -11 477 -9 0 -16 7 -16 15 0 13 -167 15
-1440 15 -1273 0 -1440 -2 -1440 -15z m1128 -652 l-3 -208 -389 -3 c-279 -1
-393 1 -402 9 -11 9 -14 52 -14 194 0 101 3 190 6 199 5 14 51 16 405 16 l399
0 -2 -207z m1486 191 c3 -9 6 -98 6 -199 0 -142 -3 -185 -14 -194 -9 -8 -191
-10 -662 -9 l-649 3 -3 208 -2 207 659 0 c592 0 659 -2 665 -16z m-1654 -934
l0 -480 -224 0 c-123 0 -231 3 -240 6 -14 5 -16 57 -16 474 0 365 3 469 13
473 6 3 114 6 240 6 l227 1 0 -480z m1240 -230 l0 -710 -250 0 -250 0 0 710 0
710 250 0 250 0 0 -710z m-1167 -297 l97 -6 0 -204 0 -203 -402 2 -403 3 0
200 0 200 80 6 c109 8 508 9 628 2z"/>
<path d="M16480 16085 c0 -33 4 -45 15 -45 8 0 15 -4 15 -10 0 -15 49 -12 66
4 16 17 19 66 4 66 -5 0 -10 7 -10 15 0 11 -12 15 -45 15 l-45 0 0 -45z"/>
<path d="M17630 15345 c0 -8 -4 -15 -10 -15 -5 0 -10 -11 -10 -25 0 -16 -6
-25 -15 -25 -11 0 -15 -11 -15 -40 0 -29 4 -40 15 -40 8 0 15 -7 15 -15 0 -8
5 -15 10 -15 6 0 10 -7 10 -15 0 -12 14 -15 70 -15 56 0 70 3 70 15 0 8 7 15
15 15 9 0 15 9 15 25 0 14 5 25 10 25 6 0 10 14 10 30 0 17 -4 30 -10 30 -5 0
-10 11 -10 25 0 16 -6 25 -15 25 -8 0 -15 7 -15 15 0 12 -14 15 -70 15 -56 0
-70 -3 -70 -15z"/>
<path d="M16810 16085 c0 -33 4 -45 15 -45 8 0 15 -4 15 -10 0 -5 5 -10 11
-10 22 0 39 30 39 69 l0 41 -40 0 -40 0 0 -45z"/>
<path d="M15530 13595 c0 -8 -7 -15 -15 -15 -8 0 -15 -7 -15 -15 0 -8 -7 -15
-15 -15 -12 0 -15 -13 -15 -55 0 -42 3 -55 15 -55 9 0 15 -9 15 -25 0 -24 2
-25 65 -25 51 0 65 3 65 15 0 8 7 15 15 15 8 0 15 5 15 10 0 6 7 10 15 10 12
0 15 13 15 55 0 42 -3 55 -15 55 -8 0 -15 7 -15 15 0 8 -7 15 -15 15 -8 0 -15
7 -15 15 0 11 -12 15 -50 15 -38 0 -50 -4 -50 -15z"/>
<path d="M16070 15455 c0 -33 4 -45 15 -45 8 0 15 -4 15 -10 0 -5 11 -10 25
-10 14 0 25 5 25 10 0 6 7 10 15 10 10 0 15 10 15 30 0 20 -5 30 -15 30 -8 0
-15 7 -15 15 0 11 -11 15 -40 15 l-40 0 0 -45z"/>
<path d="M14020 14905 c0 -8 -7 -15 -15 -15 -9 0 -15 -9 -15 -25 0 -16 6 -25
15 -25 8 0 15 -7 15 -15 0 -11 11 -15 40 -15 29 0 40 4 40 15 0 8 7 15 15 15
8 0 15 5 15 10 0 6 -7 13 -15 16 -8 4 -15 17 -15 30 0 21 -4 24 -40 24 -29 0
-40 -4 -40 -15z"/>
<path d="M13626 7679 c-13 -30 -51 -112 -85 -183 -33 -70 -61 -130 -61 -131 0
-1 -27 -60 -60 -129 -33 -70 -60 -129 -60 -131 0 -3 133 -5 296 -5 293 0 295
0 289 21 -4 11 -32 73 -62 137 -31 64 -91 194 -135 287 -43 94 -83 174 -88
179 -6 6 -19 -12 -34 -45z"/>
<path d="M6605 8404 c-294 -46 -525 -296 -542 -589 -17 -286 177 -556 462
-641 41 -12 93 -18 165 -18 119 0 212 23 309 77 77 43 209 177 249 254 94 179
94 407 0 586 -40 77 -172 211 -249 254 -30 17 -86 41 -124 52 -67 21 -210 34
-270 25z"/>
<path d="M19865 8404 c-200 -31 -387 -167 -474 -344 -45 -92 -71 -194 -71
-280 0 -86 26 -188 71 -280 74 -151 224 -275 394 -326 94 -29 258 -24 360 9
256 84 434 330 435 598 0 157 -59 305 -169 421 -121 129 -260 195 -430 202
-47 3 -99 2 -116 0z"/>
<path d="M8740 8175 l0 -255 203 0 c301 0 417 22 491 90 93 86 89 261 -8 335
-77 58 -248 84 -568 85 l-118 0 0 -255z"/>
<path d="M17220 8175 l0 -255 203 0 c301 0 417 22 491 90 93 86 89 261 -8 335
-77 58 -248 84 -568 85 l-118 0 0 -255z"/>
<path d="M14926 5514 c-180 -43 -338 -203 -381 -385 -78 -334 174 -650 518
-649 275 1 516 242 517 517 0 245 -168 463 -401 518 -79 18 -175 18 -253 -1z"/>
<path d="M16768 5534 c-11 -10 -10 -386 1 -403 7 -10 49 -12 217 -9 179 4 219
8 274 26 102 33 140 83 140 182 0 99 -38 149 -140 182 -55 18 -96 22 -275 25
-115 3 -213 2 -217 -3z"/>
<path d="M24386 5532 c-9 -16 -6 -296 4 -312 6 -10 53 -12 221 -7 240 6 296
17 344 67 27 28 30 38 30 95 0 57 -3 67 -30 95 -49 51 -104 62 -346 67 -150 4
-218 2 -223 -5z"/>
<path d="M24384 4787 c-2 -7 -3 -82 -2 -167 l3 -155 175 -1 c268 -3 368 15
428 75 33 33 34 36 30 99 -4 59 -7 68 -36 92 -61 51 -173 69 -425 70 -128 0
-169 -3 -173 -13z"/>
</g>
</svg>
