<?xml version="1.0" standalone="no"?>
<!DOCTYPE svg PUBLIC "-//W3C//DTD SVG 20010904//EN"
 "http://www.w3.org/TR/2001/REC-SVG-20010904/DTD/svg10.dtd">
<svg version="1.0" xmlns="http://www.w3.org/2000/svg"
 width="960.000000pt" height="960.000000pt" viewBox="0 0 960.000000 960.000000"
 preserveAspectRatio="xMidYMid meet">

<g transform="translate(0.000000,960.000000) scale(0.100000,-0.100000)"
fill="#000000" stroke="none">
<path d="M0 4800 l0 -4800 4800 0 4800 0 0 4800 0 4800 -4800 0 -4800 0 0
-4800z m5677 4163 c-3 -10 -5 -2 -5 17 0 19 2 27 5 18 2 -10 2 -26 0 -35z m88
-188 c-22 -19 -41 -32 -43 -30 -5 5 61 64 72 65 5 0 -8 -16 -29 -35z m37 -41
c-21 -15 -22 -21 -22 -221 l0 -206 124 -126 c111 -112 163 -181 137 -181 -5 0
-11 10 -15 23 -3 13 -62 79 -131 148 l-125 125 0 209 c0 200 1 210 22 232 12
13 24 21 27 18 2 -3 -5 -12 -17 -21z m158 -976 c0 -328 -10 -290 112 -407 38
-35 68 -70 68 -76 0 -7 -43 31 -95 84 l-95 97 0 285 c0 333 16 285 -152 448
-59 57 -106 107 -103 111 2 4 63 -52 135 -124 l130 -132 0 -286z m-72 -18 l2
-285 93 -94 c50 -51 83 -89 72 -83 -11 6 -55 46 -97 89 l-78 78 -2 285 -3 285
-125 6 -125 5 130 0 130 -1 3 -285z m154 -71 l3 -215 93 -92 92 -92 0 -232 0
-232 26 -27 c20 -21 25 -34 20 -53 -14 -55 -88 -56 -102 -1 -5 20 0 33 20 54
l27 28 -3 231 -3 231 -92 94 -93 94 1 234 c2 283 7 273 11 -22z m283 2 c29
-15 32 -20 18 -25 -10 -3 -25 -11 -34 -17 -23 -17 -49 -4 -49 25 0 20 7 29 28
35 1 1 18 -7 37 -18z m-775 -151 c44 0 80 -3 80 -7 0 -7 -109 -9 -157 -4 -9 1
-12 21 -11 69 l2 67 3 -62 4 -63 79 0z m175 -10 c0 -31 -25 -37 -60 -14 l-26
17 23 13 c36 20 63 13 63 -16z m-337 -602 c-7 -4 -42 -8 -77 -8 l-64 0 -69 68
c-54 55 -68 74 -67 98 l1 29 9 -30 c4 -16 33 -54 62 -83 59 -58 106 -76 167
-63 l35 7 1 284 c0 157 2 292 5 300 2 8 5 -122 6 -289 3 -237 0 -306 -9 -313z
m972 534 c0 -24 -8 -32 -26 -25 -22 8 -17 43 6 43 13 0 20 -7 20 -18z m82
-239 l3 -248 73 -3 c39 -2 72 -7 72 -13 0 -6 -31 -9 -77 -7 l-78 3 -5 258 c-3
141 -2 257 2 257 4 0 9 -111 10 -247z m-87 92 c0 -28 -29 -25 -33 3 -3 19 0
23 15 20 10 -2 18 -12 18 -23z m-469 -33 c1 -7 0 -8 -3 -2 -6 13 -30 13 -38 0
-4 -6 -1 -17 5 -26 10 -11 16 -12 26 -3 19 15 18 1 -1 -17 -12 -12 -15 -46
-15 -172 l0 -157 -53 -55 c-30 -30 -73 -73 -98 -95 -24 -22 -2 3 49 55 l92 95
0 163 c0 106 -4 169 -12 181 -16 26 -3 53 24 49 12 -2 23 -9 24 -16z m203
-185 c1 -42 7 -76 16 -91 14 -20 14 -25 1 -35 -24 -20 -51 -9 -54 22 -2 15 1
27 7 27 7 0 12 46 12 133 2 109 3 122 9 72 4 -33 8 -91 9 -128z m9 -604 c-29
-29 -57 -53 -62 -53 -5 0 16 27 47 59 l57 60 2 358 3 358 2 -365 3 -364 -52
-53z m-770 726 c4 -33 -21 -45 -51 -24 -12 8 -36 15 -54 15 -18 0 -33 5 -33
11 0 6 11 8 28 5 17 -4 35 -1 47 9 30 22 59 15 63 -16z m1027 -14 c0 -11 -8
-21 -17 -23 -14 -3 -18 3 -18 23 0 20 4 26 18 23 9 -2 17 -12 17 -23z m-575
-94 c0 -11 -5 -23 -11 -27 -15 -9 -33 12 -26 30 9 23 37 20 37 -3z m-225 -62
c4 -13 1 -27 -9 -38 -14 -15 -16 -57 -16 -317 l0 -299 39 -22 c24 -14 40 -31
43 -47 3 -14 1 -23 -3 -20 -5 3 -9 11 -9 19 0 7 -17 24 -37 36 -21 12 -39 23
-41 25 -2 1 -3 133 -2 293 0 242 -2 297 -15 328 -19 45 -14 63 19 63 16 0 27
-7 31 -21z m-506 -121 l-2 -102 97 -91 96 -91 0 -245 c0 -134 3 -254 6 -266 4
-16 1 -25 -11 -29 -26 -10 -41 11 -27 38 16 35 27 460 11 490 -6 13 -51 64
-100 114 l-89 91 0 90 c0 79 4 103 17 103 2 0 3 -46 2 -102z m731 51 c0 -12
-7 -19 -20 -19 -19 0 -28 28 -14 43 11 11 34 -5 34 -24z m-824 -254 c13 -20
13 -24 -1 -39 -19 -18 -18 -18 -39 -10 -20 8 -21 50 -1 58 11 4 15 25 17 88
l2 83 3 -79 c3 -47 10 -87 19 -101z m370 74 c10 -17 -23 -46 -37 -32 -7 7 -9
19 -6 27 7 18 33 21 43 5z m114 -8 c0 -24 -25 -34 -40 -16 -15 18 -5 35 21 35
12 0 19 -7 19 -19z m530 -20 c0 -10 -7 -24 -15 -31 -12 -10 -15 -38 -15 -130
l0 -118 -56 -58 -55 -58 4 -110 c3 -61 6 -122 8 -136 3 -16 -1 -25 -12 -28
-20 -4 -34 27 -19 42 6 6 10 59 10 125 l0 114 55 58 55 58 0 119 c0 94 -3 122
-15 132 -19 16 -19 25 1 44 19 20 54 5 54 -23z m-120 14 c10 -13 10 -19 -4
-33 -13 -15 -16 -41 -16 -133 -1 -120 -4 -131 -55 -169 -11 -8 -8 -1 8 16 26
29 27 33 27 147 0 72 -5 125 -12 136 -24 39 22 72 52 36z m747 6 c-43 -6 -56
-16 -140 -96 -50 -50 -136 -133 -190 -185 -54 -52 -103 -104 -109 -115 -7 -12
-10 -64 -9 -130 2 -94 5 -112 22 -128 24 -22 24 -29 -1 -52 -35 -31 -74 4 -52
48 6 12 13 75 14 139 l3 118 205 205 205 205 50 -1 50 -2 -48 -6z m-1663 -291
c48 -50 86 -93 84 -95 -2 -3 -46 37 -96 88 l-93 93 0 84 c-1 117 4 123 10 13
l6 -91 89 -92z m741 50 c30 -25 4 -67 -35 -55 -24 7 -26 37 -5 55 11 9 16 35
17 89 l2 76 3 -77 c3 -51 9 -80 18 -88z m-805 -68 c49 -47 90 -90 90 -96 0
-15 -200 184 -210 209 -13 34 2 39 16 5 8 -18 54 -71 104 -118z m1755 90 l-60
-3 -117 -117 c-114 -112 -118 -118 -118 -159 0 -32 -5 -45 -19 -53 -43 -22
-81 1 -81 49 0 36 17 51 56 51 27 0 50 17 154 120 122 118 123 119 174 122 28
2 56 1 61 -2 6 -3 -17 -6 -50 -8z m65 -92 c0 -5 -18 -10 -40 -10 -31 0 -40 -4
-40 -17 0 -10 -3 -74 -6 -143 l-5 -125 -87 -87 c-85 -85 -87 -86 -141 -90 -31
-2 -63 -6 -71 -9 -9 -2 -16 4 -18 18 -3 21 -1 21 70 16 l73 -5 83 79 82 79 0
146 0 147 48 4 c26 2 48 4 50 5 1 1 2 -2 2 -8z m-948 -66 c-21 -14 -22 -22
-22 -138 0 -70 4 -126 10 -132 13 -13 2 -44 -15 -44 -20 0 -35 24 -25 40 6 8
10 65 10 126 0 97 3 115 21 138 11 14 26 26 32 26 6 0 1 -7 -11 -16z m270
-114 c-2 -77 1 -137 7 -149 14 -25 3 -53 -18 -49 -11 3 -15 12 -12 28 2 14 5
81 7 150 4 113 8 150 16 150 2 0 2 -58 0 -130z m-1224 67 c4 -22 -27 -35 -38
-16 -10 15 7 42 24 36 6 -2 12 -11 14 -20z m275 -227 c9 -21 -8 -44 -27 -37
-18 7 -21 32 -6 42 6 3 11 56 12 118 l2 112 6 -110 c3 -60 9 -117 13 -125z
m1632 201 l-30 -6 -5 -120 c-4 -92 -7 -111 -12 -80 -10 50 -10 199 -1 208 3 4
22 6 42 6 36 -1 36 -1 6 -8z m-2160 -31 c3 -5 12 -7 19 -4 13 5 46 -20 46 -34
-1 -40 -63 -42 -68 -2 -2 14 -9 31 -14 38 -7 8 -7 12 0 12 6 0 13 -4 17 -10z
m1090 -176 c8 -26 -10 -41 -30 -24 -11 9 -12 17 -5 30 6 10 11 47 12 82 l1 63
7 -65 c4 -36 11 -75 15 -86z m-838 100 c7 -20 -17 -37 -34 -23 -15 13 -6 39
13 39 8 0 17 -7 21 -16z m-318 -58 c13 -14 33 -26 45 -28 13 -2 21 -10 21 -23
0 -28 -31 -31 -46 -3 -6 13 -23 35 -37 51 -14 15 -21 27 -16 27 6 0 21 -11 33
-24z m224 -246 c43 0 86 4 96 9 22 12 46 -2 38 -23 -7 -18 -32 -21 -42 -6 -3
6 -42 10 -86 10 -58 0 -87 5 -105 17 -25 16 -27 16 -36 0 -12 -23 -37 -21 -46
2 -4 11 -38 51 -76 90 -37 39 -64 71 -59 71 5 0 38 -29 73 -65 56 -57 90 -79
90 -59 0 3 -30 38 -67 76 -110 113 -84 102 34 -14 l108 -108 78 0z m1967 139
c0 -13 -30 -52 -77 -100 l-76 -79 -92 0 c-58 0 -95 -4 -103 -12 -9 -10 -15 -9
-27 2 -31 31 -4 39 100 30 78 -7 105 -6 121 5 43 28 133 124 140 149 8 31 14
34 14 5z m-2185 -253 c11 -3 94 -1 185 3 170 8 197 3 165 -29 -12 -11 -18 -11
-27 -2 -8 8 -61 12 -176 12 l-165 0 -78 78 c-43 42 -79 81 -79 87 0 5 35 -25
78 -67 42 -42 86 -78 97 -82z m1606 107 c11 -13 15 -107 17 -498 2 -464 2
-483 -17 -506 l-19 -24 -511 0 c-476 0 -511 1 -528 18 -17 16 -18 52 -21 485
-1 257 0 477 3 489 13 55 -6 53 549 53 465 0 515 -2 527 -17z m614 -63 l-59
-60 -149 0 c-86 0 -157 -4 -168 -11 -24 -12 -51 4 -42 27 6 16 39 19 48 4 4
-6 66 -10 153 -10 l148 0 54 55 c30 30 59 55 64 55 6 0 -16 -27 -49 -60z
m-323 -165 c39 -3 25 -13 -29 -18 -38 -4 -60 -2 -65 6 -12 20 4 29 41 22 20
-5 44 -9 53 -10z m-1536 -16 c14 -15 16 -24 8 -37 -15 -23 -48 -27 -64 -7 -7
8 -19 15 -26 15 -8 0 -14 5 -14 10 0 6 6 10 14 10 7 0 19 7 26 15 17 20 33 19
56 -6z m1899 11 c-7 -12 -52 -12 -80 0 -15 6 -6 9 33 9 33 1 51 -3 47 -9z
m-2505 -30 c11 -7 2 -10 -32 -10 -27 0 -48 5 -48 10 0 13 60 13 80 0z m2100
-45 c10 -12 48 -15 209 -17 l196 -2 -197 -6 c-181 -5 -198 -7 -211 -25 -13
-17 -18 -18 -41 -7 -28 13 -31 23 -16 53 13 23 43 25 60 4z m-1870 -84 c0 -25
-18 -37 -33 -22 -7 7 -67 11 -171 11 -87 0 -157 3 -153 6 3 3 70 6 149 5 80
-1 150 3 158 9 25 16 50 12 50 -9z m2210 -41 l55 -7 -48 -2 c-26 0 -56 -7 -67
-13 -15 -10 -22 -10 -31 -1 -17 17 -3 47 19 38 9 -4 42 -11 72 -15z m-1845
-27 c-6 -5 -179 -6 -385 -3 l-375 6 350 2 c291 2 353 5 370 17 17 13 21 13 34
0 9 -9 11 -18 6 -22z m1500 -33 c4 -6 82 -10 201 -10 107 0 194 -3 194 -7 0
-5 -88 -6 -196 -5 -128 3 -200 0 -207 -7 -14 -14 -48 5 -41 24 7 17 40 20 49
5z m-1504 -94 c-12 -14 -16 -14 -34 -1 -18 12 -67 15 -276 15 -140 0 -251 3
-247 7 4 4 120 6 259 5 153 -2 258 1 267 7 23 15 48 -12 31 -33z m1498 20 c9
-8 32 -19 51 -24 l35 -10 -33 -1 c-18 -1 -43 -8 -56 -16 -27 -18 -53 -11 -61
16 -13 40 32 64 64 35z m-2174 -5 c-49 -3 -96 -10 -102 -14 -9 -5 -13 -3 -13
7 0 14 16 16 103 14 l102 -2 -90 -5z m2493 -18 c-38 -2 -98 -2 -135 0 -38 2
-7 3 67 3 74 0 105 -1 68 -3z m-1818 -58 c18 -22 -6 -51 -27 -33 -9 7 -65 13
-155 14 l-141 3 -73 -71 -74 -71 -2 -156 -3 -156 -207 -3 c-136 -1 -208 1
-208 8 0 5 15 9 33 8 17 -1 110 -1 205 0 l172 2 0 153 0 154 74 71 74 72 145
0 c87 0 148 4 152 10 9 14 21 12 35 -5z m-620 -163 c4 -116 8 -155 19 -161 18
-12 6 -43 -16 -39 -14 3 -16 23 -17 173 l-1 170 -45 3 c-43 3 -49 0 -99 -48
-29 -28 -56 -49 -58 -46 -3 3 19 28 48 55 53 49 55 51 109 48 l55 -2 5 -153z
m627 62 c9 -25 -14 -41 -37 -26 -12 7 -55 12 -103 12 l-84 0 -67 -70 -67 -69
3 -163 c2 -90 7 -171 12 -180 6 -13 3 -20 -9 -24 -25 -10 -42 12 -27 36 8 13
12 70 12 178 l0 159 71 71 71 72 77 1 c42 0 85 4 96 9 31 13 45 12 52 -6z
m1493 -4 c0 -6 63 -10 170 -10 94 0 170 -3 170 -7 0 -5 -73 -8 -162 -8 -90 0
-174 -2 -188 -5 -20 -4 -26 -1 -28 18 -3 17 2 22 17 22 12 0 21 -4 21 -10z m5
-100 c4 -6 72 -11 163 -12 l157 -2 -160 -6 c-88 -3 -166 -9 -173 -13 -20 -13
-45 12 -31 29 13 16 35 18 44 4z m-1508 -23 c-2 -8 -24 -11 -64 -9 l-60 4 -84
-83 -84 -83 -5 -145 -5 -146 -297 -3 c-213 -3 -298 0 -298 7 0 8 85 11 293 11
l292 -1 5 141 5 141 88 89 89 89 56 3 c64 3 75 1 69 -15z m1507 -102 c3 -8 12
-15 21 -15 25 0 17 -14 -19 -32 -30 -15 -36 -15 -55 -2 -24 17 -27 34 -9 52
17 17 55 15 62 -3z m-2264 -25 c0 -23 -35 -28 -43 -6 -7 18 1 26 25 26 11 0
18 -7 18 -20z m2408 4 c33 -7 111 -69 100 -80 -4 -3 -19 8 -35 26 -19 21 -46
37 -78 45 -51 14 -42 20 13 9z m2 -64 c14 0 37 -11 53 -24 35 -30 36 -44 1
-17 -30 24 -65 27 -94 9 -24 -15 -46 2 -36 27 4 12 13 15 29 11 12 -3 33 -6
47 -6z m-1630 -89 c5 -11 7 -26 4 -35 -6 -17 -32 -29 -44 -21 -5 3 -39 -23
-77 -57 l-68 -63 58 62 c36 39 57 70 57 85 0 46 50 66 70 29z m1250 -78 c0 -9
45 -62 100 -118 l100 -101 -2 -80 -1 -79 -6 82 -6 83 -85 86 c-47 47 -100 92
-117 100 -37 16 -41 28 -16 43 21 11 33 6 33 -16z m84 -5 c8 -18 55 -73 105
-123 57 -56 91 -98 90 -110 0 -16 -4 -13 -14 10 -16 37 -187 205 -208 205 -22
0 -31 18 -17 35 19 22 28 18 44 -17z m-954 -9 c0 -11 -7 -19 -16 -19 -9 0 -56
-38 -103 -85 -48 -47 -90 -85 -92 -85 -3 0 32 38 78 84 49 50 83 92 83 104 0
21 16 32 38 24 6 -2 12 -13 12 -23z m90 12 c9 -18 5 -22 -35 -40 -25 -11 -48
-27 -51 -35 -3 -9 -11 -16 -17 -16 -6 0 3 15 20 33 17 17 36 42 42 55 14 27
27 28 41 3z m104 13 c25 -10 19 -33 -11 -45 -16 -6 -45 -27 -65 -47 l-38 -36
0 -114 c0 -89 4 -120 17 -142 14 -24 14 -31 4 -44 -8 -9 -19 -16 -26 -16 -7 0
-18 7 -26 16 -10 13 -10 20 4 44 13 22 17 53 17 142 l0 114 35 34 c19 18 41
48 50 67 17 36 17 36 39 27z m187 -318 l-2 -318 26 -24 c14 -13 23 -29 19 -35
-4 -7 -11 -2 -18 12 -13 27 -41 33 -61 12 -23 -22 -18 -52 10 -65 21 -9 28 -8
45 7 11 10 20 14 20 9 0 -18 -24 -34 -50 -34 -54 0 -67 52 -25 102 l25 30 0
279 c0 194 -4 285 -12 298 -13 21 -4 55 13 49 8 -3 11 -93 10 -322z m307 296
c2 -12 -1 -22 -7 -22 -7 0 -11 -41 -11 -118 l0 -118 95 -93 95 -94 -2 -91 -2
-91 -3 88 -4 88 -94 96 -95 96 0 117 c0 74 -4 120 -12 128 -8 8 -8 15 2 27 17
20 34 14 38 -13z m-770 -4 c-2 -14 -11 -24 -24 -26 -11 -2 -65 -47 -119 -102
-95 -96 -98 -100 -97 -141 2 -32 -1 -40 -9 -32 -7 7 -9 25 -5 48 6 29 27 57
98 127 49 49 87 92 84 96 -8 8 -177 -156 -196 -190 -16 -29 -30 -36 -30 -16 0
6 45 58 100 113 55 56 100 107 100 114 0 6 7 11 15 11 8 0 15 -7 15 -16 0 -14
3 -14 15 -4 8 7 15 19 15 26 0 8 9 14 21 14 15 0 20 -5 17 -22z m-138 2 c0 -6
-9 -14 -19 -18 -11 -4 -108 -94 -216 -199 l-198 -193 -86 0 c-47 0 -184 -3
-303 -7 -163 -5 -218 -3 -218 5 0 9 80 12 303 12 l302 0 195 195 c107 107 196
199 198 205 5 13 42 13 42 0z m-350 -94 c0 -2 -21 -25 -47 -50 l-48 -46 -280
2 -280 3 279 2 278 3 47 45 c46 45 51 49 51 41z m540 -21 c0 -8 -2 -15 -4 -15
-2 0 -6 7 -10 15 -3 8 -1 15 4 15 6 0 10 -7 10 -15z m-1220 -69 c0 -2 -9 -6
-20 -9 -11 -3 -20 -1 -20 4 0 5 9 9 20 9 11 0 20 -2 20 -4z m1020 -35 c-5 -11
-10 -81 -10 -157 0 -76 -2 -135 -5 -133 -2 3 -5 67 -6 142 -1 95 3 142 11 152
17 21 23 19 10 -4z m-715 -66 c0 -27 -3 -30 -30 -30 -21 0 -31 5 -33 18 -6 33
6 49 35 45 24 -3 28 -8 28 -33z m585 20 c0 -23 -43 -75 -130 -158 l-101 -97
-322 2 -322 2 322 6 323 5 105 105 c58 57 105 113 105 122 0 10 5 18 10 18 6
0 10 -2 10 -5z m1345 -65 c3 -5 -1 -20 -9 -31 -9 -14 -13 -33 -9 -50 3 -18 1
-29 -6 -29 -6 0 -11 16 -11 38 0 20 -3 47 -6 60 -5 17 -2 22 14 22 12 0 24 -4
27 -10z m-1308 -372 c-1 -68 -3 -13 -3 122 0 135 2 190 3 123 2 -68 2 -178 0
-245z m311 321 c4 -30 -22 -46 -44 -28 -15 12 -19 41 -7 53 16 16 48 1 51 -25z
m982 -94 c0 -8 -4 -15 -10 -15 -5 0 -10 7 -10 15 0 8 5 15 10 15 6 0 10 -7 10
-15z m-1508 -86 c1 -2 5 -164 8 -359 l5 -355 44 -3 c37 -3 48 1 61 19 19 24
61 29 85 9 21 -17 19 -56 -5 -80 -26 -26 -43 -25 -71 5 -20 20 -34 25 -75 25
-38 0 -53 4 -58 16 -3 9 -6 171 -6 360 l0 344 -330 0 c-181 0 -330 3 -330 8 0
7 668 18 672 11z m372 -15 c20 -8 21 -53 1 -60 -12 -5 -15 -29 -15 -126 l0
-120 100 -103 100 -103 0 -81 c0 -50 -4 -81 -11 -81 -6 0 -9 30 -8 80 2 91 11
76 -113 199 l-78 78 0 125 c0 99 -3 128 -15 138 -19 16 -19 25 1 44 18 18 17
18 38 10z m19 -418 l87 -84 -2 -109 -2 -108 -3 103 -4 103 -89 90 -90 90 2
157 2 157 6 -157 5 -158 88 -84z m-832 294 l122 0 93 -92 94 -92 -1 -290 c0
-189 -4 -281 -10 -261 -8 28 -13 327 -7 480 l3 70 -84 83 c-46 45 -94 85 -106
88 -13 3 -73 4 -134 2 -84 -2 -111 0 -111 10 0 6 -12 12 -27 12 -22 0 -25 2
-13 10 10 6 22 4 37 -5 16 -11 54 -15 144 -15z m1189 -10 c0 -24 -29 -38 -40
-20 -12 19 -1 40 21 40 12 0 19 -7 19 -20z m-1085 -91 c4 -13 1 -27 -9 -38
-12 -14 -16 -44 -18 -137 l-2 -119 -3 118 c-3 87 -8 125 -20 143 -12 19 -13
27 -3 39 18 22 48 18 55 -6z m1083 -52 c4 -22 -27 -35 -38 -16 -10 15 7 42 24
36 6 -2 12 -11 14 -20z m-437 -140 l89 -88 -2 -117 -2 -117 -5 117 -6 118 -87
88 c-67 66 -88 93 -87 112 l2 25 4 -25 c3 -13 44 -63 94 -113z m437 30 c4 -21
-25 -34 -40 -19 -8 8 -8 16 2 27 16 19 34 15 38 -8z m-570 -119 c-4 -27 -33
-36 -42 -13 -8 22 1 35 25 35 15 0 20 -6 17 -22z m207 -390 c-56 -49 -90 -101
-116 -176 -18 -51 -19 -90 -19 -547 0 -560 1 -566 71 -630 23 -20 54 -41 70
-47 29 -10 29 -11 29 -89 l0 -79 -285 0 -285 0 0 73 0 72 56 29 c31 16 72 49
92 74 l37 45 3 403 c2 379 2 403 -15 407 -14 4 -13 5 5 6 l22 1 0 -403 0 -404
-30 -44 c-16 -24 -45 -55 -65 -69 -19 -14 -35 -28 -35 -32 0 -4 101 -7 225 -8
124 0 225 3 224 7 0 5 -19 22 -42 38 -30 22 -48 46 -64 85 -23 55 -23 57 -20
580 l2 525 29 60 c29 59 123 165 147 165 6 0 -9 -19 -36 -42z m-475 -118 c0
-26 98 -130 124 -131 18 -1 18 -2 3 -6 -12 -3 -38 14 -78 52 -32 31 -63 54
-68 50 -5 -3 -12 -1 -16 5 -3 5 1 10 9 10 9 0 16 9 16 20 0 11 -7 20 -15 20
-8 0 -15 5 -15 10 0 7 6 7 20 0 11 -6 20 -20 20 -30z m97 -180 c23 0 45 -4 48
-10 8 -13 -45 -13 -78 -1 -31 12 -97 69 -97 84 0 6 19 -8 43 -31 36 -36 49
-42 84 -42z m-10 -163 c3 -4 -17 -7 -46 -7 -29 0 -50 4 -47 8 6 10 83 9 93 -1z
m131 -493 l-3 -319 -5 327 c-3 180 -2 324 3 319 4 -4 6 -151 5 -327z m-508
-531 c22 -47 40 -93 40 -101 0 -8 6 -20 13 -26 8 -6 44 -78 82 -161 38 -82 88
-190 112 -239 23 -48 41 -91 39 -95 -2 -3 -158 -5 -345 -3 l-341 3 14 32 c8
17 55 120 106 227 50 107 117 249 147 315 62 132 71 148 85 139 5 -3 27 -44
48 -91z m-2075 48 c71 -35 148 -117 176 -188 32 -81 32 -195 -1 -278 -31 -79
-116 -165 -193 -193 -151 -57 -299 -30 -402 73 -52 51 -72 83 -96 153 -24 71
-24 134 1 213 25 80 62 133 125 181 75 57 114 68 235 65 88 -2 113 -6 155 -26z
m1495 0 c54 -29 100 -62 100 -73 0 -12 -111 -118 -124 -118 -6 0 -33 11 -60
25 -56 28 -72 30 -128 13 -45 -13 -94 -59 -114 -105 -46 -108 32 -237 151
-251 47 -5 94 15 131 55 41 44 33 52 -58 55 l-83 3 0 60 0 60 190 0 190 0 -3
-70 c-5 -122 -77 -242 -179 -297 -173 -93 -383 -39 -488 127 -102 160 -55 379
104 489 68 47 106 56 221 53 87 -2 113 -7 150 -26z m2678 -4 c213 -110 262
-402 96 -573 -53 -54 -144 -99 -218 -108 -65 -9 -165 8 -219 36 -61 31 -130
101 -163 165 -26 53 -29 67 -29 158 0 90 3 106 28 155 33 63 75 112 131 147
70 45 104 53 216 50 92 -3 112 -7 158 -30z m-3393 0 c93 -42 132 -114 122
-228 -9 -106 -45 -153 -141 -184 -17 -5 -17 -7 -3 -18 14 -11 158 -229 154
-233 -1 -2 -52 -4 -112 -5 l-110 -3 -71 104 c-39 58 -69 108 -67 113 2 4 25 7
51 8 26 0 65 4 87 9 32 7 23 8 -39 5 -43 -3 -96 -5 -118 -5 l-38 0 0 -115 0
-115 -80 -1 c-44 -1 -90 -2 -102 -2 l-23 -1 -3 348 -2 348 227 -4 c192 -3 234
-6 268 -21z m2675 -4 c59 -29 73 -41 95 -83 20 -37 27 -160 13 -210 -11 -39
-59 -86 -105 -105 -35 -14 -40 -19 -29 -30 19 -20 147 -219 147 -228 -1 -9
-205 -12 -219 -3 -10 6 -142 202 -142 211 0 3 26 6 58 6 31 1 71 5 87 10 21 6
8 7 -40 4 -38 -3 -91 -5 -117 -5 l-48 0 0 -115 0 -115 -100 0 -100 0 0 346 0
346 228 -4 c208 -3 231 -5 272 -25z m1640 -48 l0 -75 -175 0 -175 0 0 75 0 75
175 0 175 0 0 -75z m620 0 l0 -75 -282 2 -283 3 -3 59 c-2 32 -1 65 2 72 4 11
58 14 286 14 l280 0 0 -75z m-3020 -355 l0 -260 -105 0 -105 0 0 260 0 260
105 0 105 0 0 -260z m2330 85 l0 -175 -105 0 -105 0 0 175 0 175 105 0 105 0
0 -175z m510 -85 l0 -261 -102 3 -103 3 -3 258 -2 257 105 0 105 0 0 -260z
m-440 -185 l0 -75 -165 0 c-91 0 -168 -1 -172 -2 -5 -2 -9 32 -11 75 l-3 77
176 0 175 0 0 -75z"/>
<path d="M6190 6765 c-7 -9 -10 -25 -6 -40 6 -22 11 -26 39 -23 25 2 33 8 35
26 7 44 -41 70 -68 37z"/>
<path d="M6272 7653 c2 -10 10 -18 18 -18 8 0 16 8 18 18 2 12 -3 17 -18 17
-15 0 -20 -5 -18 -17z"/>
<path d="M5680 7510 c0 -15 5 -20 18 -18 9 2 17 10 17 18 0 8 -8 16 -17 18
-13 2 -18 -3 -18 -18z"/>
<path d="M6062 6973 c2 -10 10 -18 18 -18 8 0 16 8 18 18 2 12 -3 17 -18 17
-15 0 -20 -5 -18 -17z"/>
<path d="M5293 7213 c-21 -7 -15 -33 7 -33 11 0 20 6 20 14 0 18 -11 25 -27
19z"/>
<path d="M5510 7020 c0 -23 25 -27 33 -6 7 16 -1 26 -20 26 -7 0 -13 -9 -13
-20z"/>
<path d="M4915 6701 c-8 -15 3 -31 21 -31 9 0 14 7 12 17 -4 20 -24 28 -33 14z"/>
<path d="M5920 6750 c0 -15 5 -20 18 -18 9 2 17 10 17 18 0 8 -8 16 -17 18
-13 2 -18 -3 -18 -18z"/>
<path d="M5802 6753 c5 -26 38 -29 38 -4 0 15 -6 21 -21 21 -14 0 -19 -5 -17
-17z"/>
<path d="M5635 6510 c-8 -14 3 -30 21 -30 8 0 14 9 14 20 0 21 -24 28 -35 10z"/>
<path d="M6250 6295 c-15 -18 -6 -61 16 -69 24 -9 54 12 54 37 0 43 -44 63
-70 32z"/>
<path d="M4544 6259 c-8 -14 11 -33 25 -25 16 10 13 36 -3 36 -8 0 -18 -5 -22
-11z"/>
<path d="M5045 5880 c-4 -6 -6 -225 -6 -487 0 -374 3 -478 13 -485 7 -4 232
-8 499 -8 373 0 489 3 502 13 16 11 17 50 15 492 l-3 480 -507 3 c-339 1 -509
-1 -513 -8z m403 -205 c2 -22 0 -55 -3 -72 l-6 -33 -139 0 -140 0 0 75 0 76
142 -3 143 -3 3 -40z m520 -27 l-3 -73 -232 -3 -233 -2 0 75 0 75 235 0 236 0
-3 -72z m-583 -258 l0 -165 -82 -3 -83 -3 0 171 0 171 83 -3 82 -3 0 -165z
m433 -82 l2 -248 -85 0 -85 0 0 250 0 251 83 -3 82 -3 3 -247z m-373 -131 c4
-18 5 -51 3 -72 l-3 -40 -142 -3 -143 -3 0 69 c0 38 3 72 7 75 3 4 66 7 139 7
l133 0 6 -33z"/>
<path d="M5280 4290 c-13 -8 -13 -11 2 -26 16 -17 18 -17 24 0 9 23 -7 38 -26
26z"/>
<path d="M5165 4290 c-8 -14 3 -30 21 -30 8 0 14 9 14 20 0 21 -24 28 -35 10z"/>
<path d="M4822 3401 c-8 -4 -12 -21 -10 -37 2 -25 7 -29 32 -29 36 0 56 27 40
53 -13 19 -43 26 -62 13z"/>
<path d="M5020 4049 c0 -25 33 -22 38 4 2 12 -3 17 -17 17 -15 0 -21 -6 -21
-21z"/>
<path d="M4294 3859 c-9 -15 11 -33 30 -26 9 4 13 13 10 22 -7 17 -30 20 -40
4z"/>
<path d="M4206 1301 c-19 -38 -32 -71 -29 -75 13 -12 133 -7 133 7 0 15 -57
137 -64 137 -3 0 -21 -31 -40 -69z"/>
<path d="M1995 1591 c-84 -38 -130 -130 -106 -210 23 -78 100 -141 172 -141
49 0 110 35 144 83 25 36 30 51 30 104 0 53 -4 66 -31 100 -33 42 -104 83
-144 83 -14 0 -43 -9 -65 -19z"/>
<path d="M6175 1599 c-39 -11 -94 -63 -111 -105 -61 -146 97 -305 234 -235
114 58 140 199 53 290 -52 55 -107 71 -176 50z"/>
<path d="M2718 1554 c-3 -38 -2 -73 3 -78 4 -4 41 -7 82 -4 89 4 117 22 117
74 0 46 -29 62 -122 70 l-75 7 -5 -69z"/>
<path d="M5385 1608 c-3 -8 -5 -42 -3 -74 l3 -59 81 0 c96 0 124 16 124 71 0
46 -29 62 -123 70 -63 6 -78 4 -82 -8z"/>
</g>
</svg>
